<?xml version="1.0" encoding="UTF-8" standalone="no"?>
<!-- Created with Inkscape (http://www.inkscape.org/) -->

<svg
   width="200mm"
   height="200mm"
   viewBox="0 0 200 200"
   version="1.1"
   id="svg1"
   inkscape:version="1.4 (e7c3feb1, 2024-10-09)"
   sodipodi:docname="fire_rune.svg"
   xmlns:inkscape="http://www.inkscape.org/namespaces/inkscape"
   xmlns:sodipodi="http://sodipodi.sourceforge.net/DTD/sodipodi-0.dtd"
   xmlns:xlink="http://www.w3.org/1999/xlink"
   xmlns="http://www.w3.org/2000/svg"
   xmlns:svg="http://www.w3.org/2000/svg">
  <sodipodi:namedview
     id="namedview1"
     pagecolor="#ffffff"
     bordercolor="#000000"
     borderopacity="0.25"
     inkscape:showpageshadow="2"
     inkscape:pageopacity="0.0"
     inkscape:pagecheckerboard="0"
     inkscape:deskcolor="#d1d1d1"
     inkscape:document-units="mm"
     inkscape:zoom="0.91852959"
     inkscape:cx="424.59166"
     inkscape:cy="367.43509"
     inkscape:window-width="1920"
     inkscape:window-height="940"
     inkscape:window-x="1080"
     inkscape:window-y="351"
     inkscape:window-maximized="0"
     inkscape:current-layer="layer1" />
  <defs
     id="defs1">
    <linearGradient
       id="linearGradient6"
       inkscape:collect="always">
      <stop
         style="stop-color:#f60000;stop-opacity:1;"
         offset="0"
         id="stop6" />
      <stop
         style="stop-color:#e02802;stop-opacity:0.30769235;"
         offset="0.9690848"
         id="stop8" />
      <stop
         style="stop-color:#ffffff;stop-opacity:0;"
         offset="1"
         id="stop7" />
    </linearGradient>
    <radialGradient
       inkscape:collect="always"
       xlink:href="#linearGradient6"
       id="radialGradient7"
       cx="100"
       cy="100"
       fx="100"
       fy="100"
       r="75"
       gradientUnits="userSpaceOnUse" />
    <filter
       inkscape:collect="always"
       style="color-interpolation-filters:sRGB"
       id="filter24"
       x="-0.32910986"
       y="-0.32910986"
       width="1.6582197"
       height="1.6582197">
      <feGaussianBlur
         inkscape:collect="always"
         stdDeviation="20.569366"
         id="feGaussianBlur24" />
    </filter>
    <filter
       inkscape:collect="always"
       style="color-interpolation-filters:sRGB"
       id="filter1"
       x="-0.038481486"
       y="-0.042680723"
       width="1.076963"
       height="1.0853614">
      <feGaussianBlur
         inkscape:collect="always"
         stdDeviation="1.9934124"
         id="feGaussianBlur1" />
    </filter>
  </defs>
  <g
     inkscape:label="Rune Base"
     inkscape:groupmode="layer"
     id="layer1"
     style="fill:#ffffff;fill-opacity:1"
     sodipodi:insensitive="true"
     transform="matrix(1.2308231,0,0,1.2308231,-23.370358,-22.794256)">
    <circle
       style="display:inline;fill:url(#radialGradient7);fill-opacity:1;fill-rule:evenodd;stroke-width:0.910445;filter:url(#filter24)"
       id="Rune_Base"
       cx="100"
       cy="100"
       r="75"
       inkscape:label="Base" />
  </g>
  <g
     inkscape:groupmode="layer"
     id="layer2-0"
     inkscape:label="Rune"
     transform="translate(0,-0.517)"
     style="filter:url(#filter1)">
    <path
       style="fill:#000000;fill-opacity:1;fill-rule:evenodd;stroke-width:0.333315"
       id="path8-3"
       d="m 35,38.517 c 2.56114,6.008412 5.531948,11.814536 9.081081,17.303569 1.027877,1.5897 2.131004,3.129463 3.196502,4.694191 4.620041,6.436566 10.055881,12.209084 16.456339,16.902978 5.223715,3.83091 8.240564,5.194933 14.342434,8.598233 7.539399,3.486084 15.454743,6.106877 23.542474,7.979112 3.40882,0.789114 5.33273,1.08939 8.68014,1.681526 3.81394,0.584918 2.03187,0.336564 5.34361,0.763535 0,0 -3.71672,-2.76642 -3.71672,-2.76642 v 0 c -3.14745,-0.321343 -1.45065,-0.127812 -5.08796,-0.601431 -3.42566,-0.551779 -4.90914,-0.742665 -8.434551,-1.536015 C 90.366309,89.727637 82.512155,87.112116 75.061177,83.586645 74.274561,83.196706 73.450172,82.875136 72.701326,82.416828 68.946335,80.118697 65.794586,77.872343 62.47963,74.97809 58.124795,71.175925 54.382495,66.763796 50.959545,62.121572 49.903517,60.568693 48.804507,59.04419 47.791462,57.46294 44.386164,52.147653 41.551086,46.488495 39.406042,40.550556 Z" />
    <path
       style="fill:#000000;fill-opacity:1;fill-rule:evenodd;stroke-width:0.333315"
       id="path9-9"
       d="m 105.23212,71.604532 c -3.40947,4.623487 -5.693211,9.982024 -8.019181,15.199827 -0.63242,1.623995 -1.40327,3.200668 -1.89724,4.871988 -0.57608,1.949093 -0.98136,3.949634 -1.30321,5.956434 -1.02078,6.364919 -1.04889,12.931059 0.23568,19.263729 0.41839,2.06262 1.11435,4.05906 1.67153,6.08858 0.87579,1.9341 1.61368,3.93678 2.62738,5.80229 2.891811,5.32184 6.964291,10.22444 11.752861,13.94816 4.169,3.24193 8.05716,4.73654 12.93832,7.14538 1.8128,0.24181 3.60977,0.69645 5.43839,0.72544 7.52505,0.1193 16.38349,-3.15061 21.93791,-8.23054 1.53726,-1.40595 2.74255,-3.13655 4.11383,-4.70482 0.99353,-1.7598 2.22711,-3.40423 2.98061,-5.27941 1.56098,-3.88467 1.94613,-7.71662 1.34731,-11.84702 -0.54984,-3.79254 -2.16707,-7.62505 -3.97131,-10.96845 -0.79134,-1.46643 -1.77793,-2.81879 -2.66689,-4.22817 -0.84037,-1.10151 -1.68073,-2.20303 -2.52108,-3.30454 0,0 -3.93242,-1.68496 -3.93242,-1.68496 v 0 c 0.89074,1.10951 1.78149,2.21901 2.67224,3.32853 0.93136,1.40894 1.96399,2.75595 2.79409,4.22685 1.86748,3.30905 3.50517,7.05237 4.09176,10.84223 0.62951,4.06718 0.27866,7.82508 -1.23811,11.66417 -0.73256,1.8542 -1.93995,3.48358 -2.90992,5.22537 -1.35917,1.54096 -2.55249,3.24583 -4.0775,4.62288 -5.57376,5.03302 -14.3568,8.17582 -21.86257,7.91084 -1.82095,-0.0642 -3.60142,-0.55656 -5.40214,-0.83483 -2.98614,-0.22094 -1.84472,0.078 -6.04071,-3.10347 -4.84188,-3.67108 -8.96868,-8.52544 -11.90377,-13.83657 -1.01951,-1.84484 -1.76371,-3.82893 -2.645561,-5.7434 -0.57007,-2.01629 -1.27923,-3.99833 -1.71021,-6.04886 -1.71744,-8.17129 -1.33689,-16.966 1.16172,-24.939706 0.51813,-1.653503 1.288681,-3.217055 1.933021,-4.825583 0.70218,-1.474933 1.37039,-2.966525 2.10654,-4.424802 1.16815,-2.314037 2.34654,-4.39239 3.73817,-6.561232 0.58691,-0.914704 1.4726,-2.173748 2.21653,-3.04644 0.18336,-0.215105 0.39544,-0.403976 0.59316,-0.605964 z" />
    <path
       style="fill:#000000;fill-opacity:1;fill-rule:evenodd;stroke-width:0.333315"
       id="path10-8"
       d="m 57.923959,114.77154 c 0.02423,-4.17259 -0.512189,-8.32466 -0.671793,-12.49006 -0.205759,-5.369919 -0.07986,-7.325126 0.03346,-12.816606 0.377946,-8.371113 1.223124,-16.962555 4.89654,-24.628947 1.915016,-3.996618 2.621217,-4.414896 5.394006,-7.656912 1.011444,-0.880959 2.022885,-1.761914 3.034327,-2.642868 0,0 -3.661217,-2.272304 -3.661217,-2.272304 v 0 c -0.998761,0.912931 -1.997524,1.825861 -2.996286,2.738791 -2.74345,3.349568 -3.439639,3.776194 -5.298585,7.871247 -3.530761,7.777866 -4.306844,16.432587 -4.770963,24.844888 -0.232621,6.090804 -0.322696,6.801516 -0.316146,12.703311 0.002,1.6605 0.04829,3.32064 0.07242,4.98096 0.02333,1.14943 0.06798,2.29861 0.06996,3.44826 0.0035,2.04455 -0.02113,1.98419 -0.182683,3.62439 z" />
  </g>
  <g
     inkscape:groupmode="layer"
     id="layer2"
     inkscape:label="Rune">
    <path
       style="fill:#000000;fill-opacity:1;fill-rule:evenodd;stroke-width:0.333315"
       id="path8"
       d="m 35,38.517 c 2.56114,6.008412 5.531948,11.814536 9.081081,17.303569 1.027877,1.5897 2.131004,3.129463 3.196502,4.694191 4.620041,6.436566 10.055881,12.209084 16.456339,16.902978 5.223715,3.83091 8.240564,5.194933 14.342434,8.598233 7.539399,3.486084 15.454743,6.106877 23.542474,7.979112 3.40882,0.789114 5.33273,1.08939 8.68014,1.681526 3.81394,0.584918 2.03187,0.336564 5.34361,0.763535 0,0 -3.71672,-2.76642 -3.71672,-2.76642 v 0 c -3.14745,-0.321343 -1.45065,-0.127812 -5.08796,-0.601431 -3.42566,-0.551779 -4.90914,-0.742665 -8.434551,-1.536015 C 90.366309,89.727637 82.512155,87.112116 75.061177,83.586645 74.274561,83.196706 73.450172,82.875136 72.701326,82.416828 68.946335,80.118697 65.794586,77.872343 62.47963,74.97809 58.124795,71.175925 54.382495,66.763796 50.959545,62.121572 49.903517,60.568693 48.804507,59.04419 47.791462,57.46294 44.386164,52.147653 41.551086,46.488495 39.406042,40.550556 Z" />
    <path
       style="fill:#000000;fill-opacity:1;fill-rule:evenodd;stroke-width:0.333315"
       id="path9"
       d="m 105.23212,71.604532 c -3.40947,4.623487 -5.693211,9.982024 -8.019181,15.199827 -0.63242,1.623995 -1.40327,3.200668 -1.89724,4.871988 -0.57608,1.949093 -0.98136,3.949634 -1.30321,5.956434 -1.02078,6.364919 -1.04889,12.931059 0.23568,19.263729 0.41839,2.06262 1.11435,4.05906 1.67153,6.08858 0.87579,1.9341 1.61368,3.93678 2.62738,5.80229 2.891811,5.32184 6.964291,10.22444 11.752861,13.94816 4.169,3.24193 8.05716,4.73654 12.93832,7.14538 1.8128,0.24181 3.60977,0.69645 5.43839,0.72544 7.52505,0.1193 16.38349,-3.15061 21.93791,-8.23054 1.53726,-1.40595 2.74255,-3.13655 4.11383,-4.70482 0.99353,-1.7598 2.22711,-3.40423 2.98061,-5.27941 1.56098,-3.88467 1.94613,-7.71662 1.34731,-11.84702 -0.54984,-3.79254 -2.16707,-7.62505 -3.97131,-10.96845 -0.79134,-1.46643 -1.77793,-2.81879 -2.66689,-4.22817 -0.84037,-1.10151 -1.68073,-2.20303 -2.52108,-3.30454 0,0 -3.93242,-1.68496 -3.93242,-1.68496 v 0 c 0.89074,1.10951 1.78149,2.21901 2.67224,3.32853 0.93136,1.40894 1.96399,2.75595 2.79409,4.22685 1.86748,3.30905 3.50517,7.05237 4.09176,10.84223 0.62951,4.06718 0.27866,7.82508 -1.23811,11.66417 -0.73256,1.8542 -1.93995,3.48358 -2.90992,5.22537 -1.35917,1.54096 -2.55249,3.24583 -4.0775,4.62288 -5.57376,5.03302 -14.3568,8.17582 -21.86257,7.91084 -1.82095,-0.0642 -3.60142,-0.55656 -5.40214,-0.83483 -2.98614,-0.22094 -1.84472,0.078 -6.04071,-3.10347 -4.84188,-3.67108 -8.96868,-8.52544 -11.90377,-13.83657 -1.01951,-1.84484 -1.76371,-3.82893 -2.645561,-5.7434 -0.57007,-2.01629 -1.27923,-3.99833 -1.71021,-6.04886 -1.71744,-8.17129 -1.33689,-16.966 1.16172,-24.939706 0.51813,-1.653503 1.288681,-3.217055 1.933021,-4.825583 0.70218,-1.474933 1.37039,-2.966525 2.10654,-4.424802 1.16815,-2.314037 2.34654,-4.39239 3.73817,-6.561232 0.58691,-0.914704 1.4726,-2.173748 2.21653,-3.04644 0.18336,-0.215105 0.39544,-0.403976 0.59316,-0.605964 z" />
    <path
       style="fill:#000000;fill-opacity:1;fill-rule:evenodd;stroke-width:0.333315"
       id="path10"
       d="m 57.923959,114.77154 c 0.02423,-4.17259 -0.512189,-8.32466 -0.671793,-12.49006 -0.205759,-5.369919 -0.07986,-7.325126 0.03346,-12.816606 0.377946,-8.371113 1.223124,-16.962555 4.89654,-24.628947 1.915016,-3.996618 2.621217,-4.414896 5.394006,-7.656912 1.011444,-0.880959 2.022885,-1.761914 3.034327,-2.642868 0,0 -3.661217,-2.272304 -3.661217,-2.272304 v 0 c -0.998761,0.912931 -1.997524,1.825861 -2.996286,2.738791 -2.74345,3.349568 -3.439639,3.776194 -5.298585,7.871247 -3.530761,7.777866 -4.306844,16.432587 -4.770963,24.844888 -0.232621,6.090804 -0.322696,6.801516 -0.316146,12.703311 0.002,1.6605 0.04829,3.32064 0.07242,4.98096 0.02333,1.14943 0.06798,2.29861 0.06996,3.44826 0.0035,2.04455 -0.02113,1.98419 -0.182683,3.62439 z" />
  </g>
</svg>
