<?xml version="1.0" encoding="UTF-8" standalone="no"?>
<!-- Created with Inkscape (http://www.inkscape.org/) -->

<svg
   width="200mm"
   height="200mm"
   viewBox="0 0 200 200"
   version="1.1"
   id="svg1"
   inkscape:version="1.4 (e7c3feb1, 2024-10-09)"
   sodipodi:docname="fire_rune.svg"
   xmlns:inkscape="http://www.inkscape.org/namespaces/inkscape"
   xmlns:sodipodi="http://sodipodi.sourceforge.net/DTD/sodipodi-0.dtd"
   xmlns:xlink="http://www.w3.org/1999/xlink"
   xmlns="http://www.w3.org/2000/svg"
   xmlns:svg="http://www.w3.org/2000/svg">
  <sodipodi:namedview
     id="namedview1"
     pagecolor="#ffffff"
     bordercolor="#000000"
     borderopacity="0.25"
     inkscape:showpageshadow="2"
     inkscape:pageopacity="0.0"
     inkscape:pagecheckerboard="0"
     inkscape:deskcolor="#d1d1d1"
     inkscape:document-units="mm"
     inkscape:zoom="0.91852959"
     inkscape:cx="424.04731"
     inkscape:cy="367.43509"
     inkscape:window-width="1920"
     inkscape:window-height="940"
     inkscape:window-x="1080"
     inkscape:window-y="351"
     inkscape:window-maximized="0"
     inkscape:current-layer="layer2" />
  <defs
     id="defs1">
    <linearGradient
       id="linearGradient6"
       inkscape:collect="always">
      <stop
         style="stop-color:#8f2700;stop-opacity:1;"
         offset="0"
         id="stop6" />
      <stop
         style="stop-color:#c25421;stop-opacity:0.30769235;"
         offset="0.79522115"
         id="stop8" />
      <stop
         style="stop-color:#b0b0b0;stop-opacity:0;"
         offset="1"
         id="stop7" />
    </linearGradient>
    <radialGradient
       inkscape:collect="always"
       xlink:href="#linearGradient6"
       id="radialGradient7"
       cx="100"
       cy="100"
       fx="100"
       fy="100"
       r="75"
       gradientUnits="userSpaceOnUse" />
    <filter
       inkscape:collect="always"
       style="color-interpolation-filters:sRGB"
       id="filter18"
       x="-0.4109109"
       y="-0.11230292"
       width="1.8218218"
       height="1.2246058">
      <feGaussianBlur
         inkscape:collect="always"
         stdDeviation="2.321778"
         id="feGaussianBlur18" />
    </filter>
    <filter
       inkscape:collect="always"
       style="color-interpolation-filters:sRGB"
       id="filter19"
       x="-0.10626333"
       y="-0.088852578"
       width="1.2125267"
       height="1.1777052">
      <feGaussianBlur
         inkscape:collect="always"
         stdDeviation="2.321778"
         id="feGaussianBlur19" />
    </filter>
    <filter
       inkscape:collect="always"
       style="color-interpolation-filters:sRGB"
       id="filter20"
       x="-0.087048262"
       y="-0.12119157"
       width="1.1740965"
       height="1.2423831">
      <feGaussianBlur
         inkscape:collect="always"
         stdDeviation="2.321778"
         id="feGaussianBlur20" />
    </filter>
    <filter
       inkscape:collect="always"
       style="color-interpolation-filters:sRGB"
       id="filter21"
       x="-0.068913762"
       y="-0.018834294"
       width="1.1378275"
       height="1.0376686">
      <feGaussianBlur
         inkscape:collect="always"
         stdDeviation="0.3893848"
         id="feGaussianBlur21" />
    </filter>
    <filter
       inkscape:collect="always"
       style="color-interpolation-filters:sRGB"
       id="filter22"
       x="-0.017821396"
       y="-0.014901443"
       width="1.0356428"
       height="1.0298029">
      <feGaussianBlur
         inkscape:collect="always"
         stdDeviation="0.3893848"
         id="feGaussianBlur22" />
    </filter>
    <filter
       inkscape:collect="always"
       style="color-interpolation-filters:sRGB"
       id="filter23"
       x="-0.014598842"
       y="-0.020325006"
       width="1.0291977"
       height="1.04065">
      <feGaussianBlur
         inkscape:collect="always"
         stdDeviation="0.3893848"
         id="feGaussianBlur23" />
    </filter>
    <filter
       inkscape:collect="always"
       style="color-interpolation-filters:sRGB"
       id="filter24"
       x="-0.040769535"
       y="-0.040769535"
       width="1.0815391"
       height="1.0815391">
      <feGaussianBlur
         inkscape:collect="always"
         stdDeviation="2.5480959"
         id="feGaussianBlur24" />
    </filter>
  </defs>
  <g
     inkscape:label="Rune Base"
     inkscape:groupmode="layer"
     id="layer1"
     style="fill:#ffffff;fill-opacity:1"
     sodipodi:insensitive="true">
    <circle
       style="display:inline;fill:url(#radialGradient7);fill-opacity:1;fill-rule:evenodd;stroke-width:0.910445;filter:url(#filter24)"
       id="Rune_Base"
       cx="100"
       cy="100"
       r="75"
       inkscape:label="Base" />
  </g>
  <g
     inkscape:groupmode="layer"
     id="layer2-4"
     inkscape:label="Rune Blur"
     transform="matrix(1.1033066,0,0,1.1033066,-7.0863049,-12.078166)">
    <path
       style="fill:#1a1a1a;fill-opacity:1;fill-rule:evenodd;stroke-width:0.264583;filter:url(#filter20)"
       id="path8-3"
       d="m 46.953921,48.63153 c 2.033016,4.769437 4.391223,9.378299 7.208501,13.735457 0.815922,1.261893 1.691577,2.484147 2.537362,3.726217 3.667358,5.109303 7.982291,9.691489 13.062932,13.417471 4.14655,3.040951 6.541304,4.123703 11.384928,6.82522 5.984724,2.76723 12.267874,4.847598 18.687854,6.333765 2.705902,0.626394 4.233092,0.864751 6.890242,1.334784 3.02748,0.464304 1.61288,0.267163 4.24172,0.606089 0,0 -2.95031,-2.195965 -2.95031,-2.195965 v 0 c -2.49842,-0.25508 -1.15151,-0.101457 -4.03879,-0.477412 -2.71926,-0.437999 -3.89684,-0.589523 -6.695284,-1.219279 C 90.903326,89.28219 84.668751,87.206007 78.754215,84.407512 78.129804,84.097981 77.47541,83.842721 76.880981,83.478919 73.900294,81.654678 71.398457,79.871537 68.767067,77.574099 65.310228,74.555966 62.339616,71.053647 59.622501,67.368681 58.784233,66.136016 57.911846,64.925876 57.107698,63.67069 54.404595,59.451451 52.154129,54.959249 50.451408,50.245753 Z" />
    <path
       style="fill:#1a1a1a;fill-opacity:1;fill-rule:evenodd;stroke-width:0.264583;filter:url(#filter19)"
       id="path9-9"
       d="m 102.70371,74.896191 c -2.706422,3.670093 -4.519233,7.923664 -6.365575,12.065521 -0.502007,1.289116 -1.113907,2.540669 -1.506019,3.867351 -0.457285,1.547177 -0.778997,3.135193 -1.034473,4.728178 -0.810289,5.052429 -0.832607,10.264589 0.187076,15.291419 0.332118,1.63729 0.884566,3.22205 1.326851,4.83307 0.695198,1.53528 1.280927,3.12499 2.085594,4.60582 2.295501,4.22444 5.528206,8.11609 9.329346,11.07196 3.30932,2.57342 6.39572,3.75983 10.27035,5.67195 1.43899,0.19195 2.86541,0.55284 4.31696,0.57585 5.97333,0.0947 13.0051,-2.50093 17.41416,-6.53335 1.22027,-1.11603 2.17702,-2.48977 3.26553,-3.73465 0.78866,-1.39692 1.76787,-2.70226 2.36599,-4.19076 1.2391,-3.08363 1.54483,-6.1254 1.06949,-9.40409 -0.43646,-3.01049 -1.72021,-6.05271 -3.1524,-8.70668 -0.62816,-1.16404 -1.41131,-2.23753 -2.11696,-3.35629 -0.66708,-0.87437 -1.33415,-1.74875 -2.00122,-2.623124 0,0 -3.12153,-1.337508 -3.12153,-1.337508 v 0 c 0.70707,0.880721 1.41414,1.76144 2.12121,2.642162 0.73931,1.11841 1.559,2.18766 2.21793,3.35525 1.48239,2.6267 2.78238,5.59812 3.24801,8.60649 0.4997,3.2285 0.2212,6.21149 -0.9828,9.25894 -0.5815,1.47185 -1.53992,2.76524 -2.30988,4.14786 -1.0789,1.2232 -2.02615,2.57652 -3.23669,3.66961 -4.42441,3.99518 -11.39633,6.48991 -17.35436,6.27957 -1.44546,-0.051 -2.85878,-0.44179 -4.28818,-0.66268 -2.37038,-0.17538 -1.46433,0.0619 -4.79508,-2.46351 -3.84345,-2.91408 -7.11928,-6.76744 -9.44913,-10.98338 -0.809282,-1.46442 -1.400019,-3.03938 -2.100028,-4.55907 -0.452516,-1.60052 -1.015441,-3.17385 -1.35755,-4.80155 -1.363295,-6.48631 -1.061217,-13.467496 0.92216,-19.796967 0.411292,-1.312539 1.022945,-2.553676 1.534419,-3.830515 0.557387,-1.170792 1.087809,-2.354808 1.672159,-3.512378 0.92727,-1.836867 1.86267,-3.48665 2.96733,-5.208262 0.46589,-0.726086 1.16894,-1.725507 1.75947,-2.418244 0.14555,-0.170749 0.3139,-0.320673 0.47085,-0.48101 z" />
    <path
       style="fill:#1a1a1a;fill-opacity:1;fill-rule:evenodd;stroke-width:0.264583;filter:url(#filter18)"
       id="path10-0"
       d="m 65.150806,109.16187 c 0.01923,-3.31217 -0.406572,-6.60806 -0.533265,-9.91452 -0.16333,-4.262609 -0.06339,-5.814639 0.02656,-10.173739 0.300011,-6.644934 0.970907,-13.464763 3.88684,-19.550293 1.520127,-3.172489 2.080705,-3.504515 4.281726,-6.078006 0.802878,-0.699299 1.605753,-1.398595 2.408629,-2.097891 0,0 -2.90625,-1.803739 -2.90625,-1.803739 v 0 c -0.79281,0.724678 -1.585621,1.449356 -2.378432,2.174034 -2.177732,2.658864 -2.730362,2.997517 -4.205981,6.248143 -2.802694,6.174018 -3.418744,13.044077 -3.787158,19.721705 -0.184653,4.83484 -0.256154,5.398998 -0.250955,10.083803 0.0016,1.31809 0.03833,2.635903 0.05749,3.953853 0.01852,0.91241 0.05396,1.82462 0.05553,2.73721 0.0028,1.62295 -0.01677,1.57503 -0.145012,2.87701 z" />
  </g>
  <g
     inkscape:groupmode="layer"
     id="layer2"
     inkscape:label="Rune">
    <path
       style="fill:#380000;fill-opacity:1;fill-rule:evenodd;stroke-width:0.264583;filter:url(#filter23)"
       id="path8"
       d="m 46.953921,48.63153 c 2.033016,4.769437 4.391223,9.378299 7.208501,13.735457 0.815922,1.261893 1.691577,2.484147 2.537362,3.726217 3.667358,5.109303 7.982291,9.691489 13.062932,13.417471 4.14655,3.040951 6.541304,4.123703 11.384928,6.82522 5.984724,2.76723 12.267874,4.847598 18.687854,6.333765 2.705902,0.626394 4.233092,0.864751 6.890242,1.334784 3.02748,0.464304 1.61288,0.267163 4.24172,0.606089 0,0 -2.95031,-2.195965 -2.95031,-2.195965 v 0 c -2.49842,-0.25508 -1.15151,-0.101457 -4.03879,-0.477412 -2.71926,-0.437999 -3.89684,-0.589523 -6.695284,-1.219279 C 90.903326,89.28219 84.668751,87.206007 78.754215,84.407512 78.129804,84.097981 77.47541,83.842721 76.880981,83.478919 73.900294,81.654678 71.398457,79.871537 68.767067,77.574099 65.310228,74.555966 62.339616,71.053647 59.622501,67.368681 58.784233,66.136016 57.911846,64.925876 57.107698,63.67069 54.404595,59.451451 52.154129,54.959249 50.451408,50.245753 Z" />
    <path
       style="fill:#380000;fill-opacity:1;fill-rule:evenodd;stroke-width:0.264583;filter:url(#filter22)"
       id="path9"
       d="m 102.70371,74.896191 c -2.706422,3.670093 -4.519233,7.923664 -6.365575,12.065521 -0.502007,1.289116 -1.113907,2.540669 -1.506019,3.867351 -0.457285,1.547177 -0.778997,3.135193 -1.034473,4.728178 -0.810289,5.052429 -0.832607,10.264589 0.187076,15.291419 0.332118,1.63729 0.884566,3.22205 1.326851,4.83307 0.695198,1.53528 1.280927,3.12499 2.085594,4.60582 2.295501,4.22444 5.528206,8.11609 9.329346,11.07196 3.30932,2.57342 6.39572,3.75983 10.27035,5.67195 1.43899,0.19195 2.86541,0.55284 4.31696,0.57585 5.97333,0.0947 13.0051,-2.50093 17.41416,-6.53335 1.22027,-1.11603 2.17702,-2.48977 3.26553,-3.73465 0.78866,-1.39692 1.76787,-2.70226 2.36599,-4.19076 1.2391,-3.08363 1.54483,-6.1254 1.06949,-9.40409 -0.43646,-3.01049 -1.72021,-6.05271 -3.1524,-8.70668 -0.62816,-1.16404 -1.41131,-2.23753 -2.11696,-3.35629 -0.66708,-0.87437 -1.33415,-1.74875 -2.00122,-2.623124 0,0 -3.12153,-1.337508 -3.12153,-1.337508 v 0 c 0.70707,0.880721 1.41414,1.76144 2.12121,2.642162 0.73931,1.11841 1.559,2.18766 2.21793,3.35525 1.48239,2.6267 2.78238,5.59812 3.24801,8.60649 0.4997,3.2285 0.2212,6.21149 -0.9828,9.25894 -0.5815,1.47185 -1.53992,2.76524 -2.30988,4.14786 -1.0789,1.2232 -2.02615,2.57652 -3.23669,3.66961 -4.42441,3.99518 -11.39633,6.48991 -17.35436,6.27957 -1.44546,-0.051 -2.85878,-0.44179 -4.28818,-0.66268 -2.37038,-0.17538 -1.46433,0.0619 -4.79508,-2.46351 -3.84345,-2.91408 -7.11928,-6.76744 -9.44913,-10.98338 -0.809282,-1.46442 -1.400019,-3.03938 -2.100028,-4.55907 -0.452516,-1.60052 -1.015441,-3.17385 -1.35755,-4.80155 -1.363295,-6.48631 -1.061217,-13.467496 0.92216,-19.796967 0.411292,-1.312539 1.022945,-2.553676 1.534419,-3.830515 0.557387,-1.170792 1.087809,-2.354808 1.672159,-3.512378 0.92727,-1.836867 1.86267,-3.48665 2.96733,-5.208262 0.46589,-0.726086 1.16894,-1.725507 1.75947,-2.418244 0.14555,-0.170749 0.3139,-0.320673 0.47085,-0.48101 z" />
    <path
       style="fill:#380000;fill-opacity:1;fill-rule:evenodd;stroke-width:0.264583;filter:url(#filter21)"
       id="path10"
       d="m 65.150806,109.16187 c 0.01923,-3.31217 -0.406572,-6.60806 -0.533265,-9.91452 -0.16333,-4.262609 -0.06339,-5.814639 0.02656,-10.173739 0.300011,-6.644934 0.970907,-13.464763 3.88684,-19.550293 1.520127,-3.172489 2.080705,-3.504515 4.281726,-6.078006 0.802878,-0.699299 1.605753,-1.398595 2.408629,-2.097891 0,0 -2.90625,-1.803739 -2.90625,-1.803739 v 0 c -0.79281,0.724678 -1.585621,1.449356 -2.378432,2.174034 -2.177732,2.658864 -2.730362,2.997517 -4.205981,6.248143 -2.802694,6.174018 -3.418744,13.044077 -3.787158,19.721705 -0.184653,4.83484 -0.256154,5.398998 -0.250955,10.083803 0.0016,1.31809 0.03833,2.635903 0.05749,3.953853 0.01852,0.91241 0.05396,1.82462 0.05553,2.73721 0.0028,1.62295 -0.01677,1.57503 -0.145012,2.87701 z" />
  </g>
</svg>
