<?xml version="1.0" encoding="UTF-8" standalone="no"?>
<!-- Created with Inkscape (http://www.inkscape.org/) -->

<svg
   width="200mm"
   height="200mm"
   viewBox="0 0 200 200"
   version="1.1"
   id="svg1"
   inkscape:version="1.4 (e7c3feb1, 2024-10-09)"
   sodipodi:docname="frost_rune.svg"
   xmlns:inkscape="http://www.inkscape.org/namespaces/inkscape"
   xmlns:sodipodi="http://sodipodi.sourceforge.net/DTD/sodipodi-0.dtd"
   xmlns:xlink="http://www.w3.org/1999/xlink"
   xmlns="http://www.w3.org/2000/svg"
   xmlns:svg="http://www.w3.org/2000/svg">
  <sodipodi:namedview
     id="namedview1"
     pagecolor="#ffffff"
     bordercolor="#000000"
     borderopacity="0.25"
     inkscape:showpageshadow="2"
     inkscape:pageopacity="0.0"
     inkscape:pagecheckerboard="0"
     inkscape:deskcolor="#d1d1d1"
     inkscape:document-units="mm"
     inkscape:zoom="0.91852959"
     inkscape:cx="423.50296"
     inkscape:cy="367.43509"
     inkscape:window-width="1920"
     inkscape:window-height="940"
     inkscape:window-x="1080"
     inkscape:window-y="351"
     inkscape:window-maximized="0"
     inkscape:current-layer="layer1" />
  <defs
     id="defs1">
    <linearGradient
       id="linearGradient6"
       inkscape:collect="always">
      <stop
         style="stop-color:#004b8f;stop-opacity:1;"
         offset="0"
         id="stop6" />
      <stop
         style="stop-color:#0cf8ff;stop-opacity:0.30769235;"
         offset="1"
         id="stop8" />
      <stop
         style="stop-color:#ffffff;stop-opacity:0;"
         offset="1"
         id="stop7" />
    </linearGradient>
    <radialGradient
       inkscape:collect="always"
       xlink:href="#linearGradient6"
       id="radialGradient7"
       cx="100"
       cy="100"
       fx="100"
       fy="100"
       r="75"
       gradientUnits="userSpaceOnUse" />
    <filter
       inkscape:collect="always"
       style="color-interpolation-filters:sRGB"
       id="filter24"
       x="-0.26283945"
       y="-0.26283945"
       width="1.5256789"
       height="1.5256789">
      <feGaussianBlur
         inkscape:collect="always"
         stdDeviation="16.427465"
         id="feGaussianBlur24" />
    </filter>
    <filter
       inkscape:collect="always"
       style="color-interpolation-filters:sRGB"
       id="filter11"
       x="-0.036095971"
       y="-0.031237579"
       width="1.0721919"
       height="1.0624752">
      <feGaussianBlur
         inkscape:collect="always"
         stdDeviation="1.9514974"
         id="feGaussianBlur11" />
    </filter>
    <filter
       inkscape:collect="always"
       style="color-interpolation-filters:sRGB"
       id="filter12"
       x="-0.36847261"
       y="-0.47789617"
       width="1.7369452"
       height="1.9557923">
      <feGaussianBlur
         inkscape:collect="always"
         stdDeviation="0.62639685"
         id="feGaussianBlur12" />
    </filter>
    <filter
       inkscape:collect="always"
       style="color-interpolation-filters:sRGB"
       id="filter13"
       x="-0.44462325"
       y="-0.58674397"
       width="1.8892465"
       height="2.1734879">
      <feGaussianBlur
         inkscape:collect="always"
         stdDeviation="0.9167053"
         id="feGaussianBlur13" />
    </filter>
    <filter
       inkscape:collect="always"
       style="color-interpolation-filters:sRGB"
       id="filter14"
       x="-0.25289301"
       y="-0.39575438"
       width="1.505786"
       height="1.7915088">
      <feGaussianBlur
         inkscape:collect="always"
         stdDeviation="0.45442663"
         id="feGaussianBlur14" />
    </filter>
    <filter
       inkscape:collect="always"
       style="color-interpolation-filters:sRGB"
       id="filter15"
       x="-0.095523031"
       y="-0.14935484"
       width="1.1910461"
       height="1.2987097">
      <feGaussianBlur
         inkscape:collect="always"
         stdDeviation="0.14273095"
         id="feGaussianBlur15" />
    </filter>
    <filter
       inkscape:collect="always"
       style="color-interpolation-filters:sRGB"
       id="filter16"
       x="-0.10932186"
       y="-0.18631752"
       width="1.2186437"
       height="1.372635">
      <feGaussianBlur
         inkscape:collect="always"
         stdDeviation="0.39049668"
         id="feGaussianBlur16" />
    </filter>
    <filter
       inkscape:collect="always"
       style="color-interpolation-filters:sRGB"
       id="filter17"
       x="-0.11877109"
       y="-0.22588705"
       width="1.2375422"
       height="1.4517741">
      <feGaussianBlur
         inkscape:collect="always"
         stdDeviation="0.47368522"
         id="feGaussianBlur17" />
    </filter>
  </defs>
  <g
     inkscape:label="Rune Base"
     inkscape:groupmode="layer"
     id="layer1"
     style="fill:#ffffff;fill-opacity:1"
     sodipodi:insensitive="true">
    <circle
       style="display:inline;fill:url(#radialGradient7);fill-opacity:1;fill-rule:evenodd;stroke-width:0.910445;filter:url(#filter24)"
       id="Rune_Base"
       cx="100"
       cy="100"
       r="75"
       inkscape:label="Base"
       transform="matrix(1.2325986,0,0,1.2325986,-23.403888,-23.115838)" />
  </g>
  <g
     inkscape:groupmode="layer"
     id="layer2-2"
     inkscape:label="Rune"
     transform="translate(-0.271167,-0.348662)"
     style="filter:url(#filter11)">
    <path
       style="fill:#000000;fill-rule:evenodd;stroke-width:0.264583"
       id="path1-3"
       d="m 40.861868,57.583868 c 4.002292,2.585054 8.14097,5.000123 11.904737,7.936056 1.097227,0.855892 2.137204,1.782749 3.205808,2.674122 4.86106,4.42464 9.342638,9.365218 12.745712,15.016435 0.564888,0.938064 1.058727,1.917118 1.58809,2.875677 2.364851,4.504026 3.552457,9.48064 3.870423,14.539702 0.0625,0.9944 0.05726,1.99189 0.08589,2.98783 0.03656,3.59085 -0.346231,7.15974 -1.323375,10.61899 -0.580493,2.05504 -0.787984,2.45066 -1.549595,4.39804 -1.121312,2.6134 -2.470023,5.14244 -4.158853,7.43654 -0.785358,1.06682 -1.332799,1.65268 -2.19654,2.64053 -1.491207,1.58067 -3.014053,3.13104 -4.503988,4.71278 -0.52967,0.56616 -0.282006,0.28776 -0.746094,0.83244 0,0 3.319733,1.98824 3.319733,1.98824 v 0 c 0.425127,-0.54659 0.195746,-0.26433 0.692002,-0.84362 1.402834,-1.64149 2.864032,-3.2313 4.293729,-4.84929 0.964224,-1.14388 1.28088,-1.4696 2.153513,-2.71416 1.647232,-2.3493 2.98246,-4.91989 4.13072,-7.54359 0.691877,-1.86887 0.975542,-2.51241 1.507844,-4.46878 0.953826,-3.50557 1.334971,-7.12323 1.256877,-10.75303 -0.06157,-2.18289 -0.05221,-3.86745 -0.342667,-6.039007 -0.131088,-0.980046 -0.333722,-1.949675 -0.537615,-2.917201 -0.216427,-1.026993 -0.42744,-2.057445 -0.722963,-3.064534 C 74.78275,90.483647 74.327225,89.782207 73.173803,87.36844 72.628801,86.394789 72.119476,85.400292 71.538797,84.447487 68.078571,78.76981 63.547018,73.79731 58.689782,69.29307 57.656957,68.408258 56.655173,67.485873 55.591304,66.63864 52.054926,63.822373 48.138812,61.528083 44.420512,58.970647 Z" />
    <path
       style="fill:#000000;fill-rule:evenodd;stroke-width:0.264583"
       id="path2-6"
       d="m 124.37025,28.348662 c -0.23699,1.229365 -0.74036,2.38474 -1.09893,3.579495 -0.33393,1.112602 -0.82627,3.015075 -1.11238,4.096329 -0.20627,0.880859 -0.41365,1.761458 -0.61881,2.642574 -0.21174,0.909304 -0.45692,1.811594 -0.63191,2.728679 -0.21898,1.14766 -0.38204,2.305458 -0.54931,3.461788 -0.59463,4.110579 -0.98423,8.233248 -1.34351,12.369495 -0.36831,5.888625 -0.43369,11.805192 0.048,17.6901 0.27156,3.317682 0.58711,5.275482 1.04048,8.57092 1.04775,7.017261 2.49483,13.999684 4.78163,20.727288 0.44561,1.31098 0.95964,2.5977 1.43947,3.89655 2.67401,6.15032 5.60368,12.22879 9.26843,17.85996 0.60736,0.93326 1.2615,1.83522 1.89225,2.75283 2.00193,2.78586 4.2179,5.42591 6.68138,7.81645 1.08734,1.05516 1.99017,1.82653 3.12669,2.82818 2.95093,2.49901 6.04719,4.81936 9.1978,7.0589 0.38401,0.25882 0.76803,0.51763 1.15204,0.77645 0,0 3.38152,1.32139 3.38152,1.32139 v 0 c -0.40967,-0.26531 -0.81934,-0.53061 -1.229,-0.79591 -3.20287,-2.21569 -6.29915,-4.58166 -9.30349,-7.06001 -3.70673,-3.24423 -7.26551,-6.66414 -10.13613,-10.69611 -0.6468,-0.91925 -1.31553,-1.82346 -1.94041,-2.75775 -3.75113,-5.60848 -6.83748,-11.65258 -9.43928,-17.87001 -0.48423,-1.29524 -1.0032,-2.57801 -1.45268,-3.88572 -2.30814,-6.715282 -3.79145,-13.684614 -4.83352,-20.698916 -0.51168,-3.689104 -0.71956,-4.834787 -1.0386,-8.54593 -0.50465,-5.87048 -0.56361,-11.777107 -0.0672,-17.650796 0.12719,-1.411944 0.23234,-2.826044 0.38157,-4.235829 0.5965,-5.63527 1.57887,-11.23312 3.18837,-16.672189 0.21873,-0.719794 0.41984,-1.445181 0.65619,-2.159381 0.58899,-1.779767 1.3522,-3.494706 2.01363,-5.246388 z" />
    <path
       style="fill:#000000;fill-rule:evenodd;stroke-width:0.264583"
       id="path3-5"
       d="m 139.02689,60.803784 c -1.00514,1.510043 -2.23789,2.849065 -3.35545,4.272015 -0.43128,0.549132 -3.21659,4.274222 -3.53681,4.701651 -0.68206,1.035177 -1.37903,2.060697 -2.04621,3.105534 -1.73606,2.71875 -2.76683,4.376478 -4.17748,7.337155 -2.21141,4.641278 -3.95275,9.497219 -5.69466,14.32637 -1.8455,6.141451 -3.31456,12.440741 -3.92393,18.836951 -0.26584,2.79044 -0.2675,5.06934 -0.32909,7.8574 0.002,4.54326 0.35442,9.09023 1.1204,13.56978 0.45424,2.65642 0.8329,4.2347 1.40988,6.86178 1.51279,6.60421 3.67792,13.0315 5.98654,19.39317 1.52272,4.03252 3.21353,8.00556 5.10335,11.88014 0.65643,1.28844 1.34741,2.55887 2.10379,3.79131 0,0 3.52002,1.54622 3.52002,1.54622 v 0 c -0.83845,-1.23728 -1.58849,-2.5318 -2.30682,-3.84198 -2.11014,-3.87844 -3.89358,-7.92477 -5.52307,-12.02637 -2.38634,-6.34777 -4.58162,-12.77588 -6.09307,-19.39628 -0.67301,-3.01729 -0.88515,-3.77646 -1.39459,-6.83003 -0.74876,-4.48803 -1.14369,-9.02891 -1.24527,-13.57687 0.0187,-3.0866 -0.0222,-4.776 0.21071,-7.88518 0.48068,-6.41579 1.74083,-12.75802 3.69996,-18.884903 1.29144,-3.61016 2.10923,-6.090211 3.64777,-9.610291 2.30138,-5.265431 5.18161,-10.254554 8.67396,-14.821286 0.64873,-0.814798 1.28141,-1.642631 1.94619,-2.44439 1.76683,-2.130928 3.67059,-4.144987 5.58829,-6.139096 z" />
    <path
       style="fill:#000000;fill-rule:evenodd;stroke-width:0.264583"
       id="path4-5"
       d="m 99.150801,62.484801 c 0.351526,-0.678048 0.807434,-1.286806 1.506889,-1.618258 0,0 -3.273496,-2.131406 -3.273496,-2.131406 v 0 c -0.708186,0.455638 -1.209961,1.094636 -1.674722,1.790226 z" />
    <path
       style="fill:#000000;fill-rule:evenodd;stroke-width:0.264583"
       id="path5-8"
       d="m 34.285922,80.366247 c 2.20249,0.835724 4.377756,1.740755 6.556973,2.634613 0,0 -2.452843,-1.935724 -2.452843,-1.935724 v 0 c -2.377321,-1.021934 -4.761577,-2.029378 -7.118885,-3.097077 z" />
    <path
       style="fill:#000000;fill-rule:evenodd;stroke-width:0.264583"
       id="path6-1"
       d="m 60.549617,134.20071 c 1.906302,1.15649 3.691649,2.50434 5.496076,3.81035 0,0 3.076702,1.21973 3.076702,1.21973 v 0 c -1.625208,-1.20819 -3.223458,-2.45768 -4.889439,-3.60907 z" />
    <circle
       id="path7-4"
       style="fill:#000000;stroke:#000000;stroke-width:0.264583"
       cx="146.90599"
       cy="83.534775"
       r="0.038368106" />
    <circle
       id="path8-7"
       style="fill:#000000;stroke:#000000;stroke-width:0.264583"
       cx="151.51482"
       cy="101.10588"
       r="0.038368106" />
    <path
       style="fill:#000000;fill-rule:evenodd;stroke-width:0.264583"
       id="path9-1"
       d="m 136.56317,103.64687 c 0.50139,0.70339 0.2089,0.28963 0.87336,1.24417 0,0 3.43923,1.51164 3.43923,1.51164 v 0 c -0.53048,-0.90383 -0.29029,-0.52202 -0.70327,-1.1561 z" />
    <path
       style="fill:#000000;fill-rule:evenodd;stroke-width:0.264583"
       id="path10-3"
       d="m 95.122618,135.31091 c 0.04523,-0.12816 0.09047,-0.25633 0.135702,-0.38449 0,0 -3.393723,-1.90907 -3.393723,-1.90907 v 0 c -0.06412,0.12226 -0.128246,0.24452 -0.192368,0.36677 z" />
    <path
       style="fill:#000000;fill-rule:evenodd;stroke-width:0.264583"
       id="path11-8"
       d="m 94.973906,81.853044 c -0.389702,0.779113 -0.171127,0.362958 -0.66426,1.243949 0,0 3.279193,1.901823 3.279193,1.901823 v 0 c 0.550256,-0.846908 0.280077,-0.460481 0.800764,-1.166051 z" />
  </g>
  <g
     inkscape:groupmode="layer"
     id="layer2"
     inkscape:label="Rune">
    <path
       style="fill:#000000;fill-rule:evenodd;stroke-width:0.264583"
       id="path1"
       d="m 40.861868,57.583868 c 4.002292,2.585054 8.14097,5.000123 11.904737,7.936056 1.097227,0.855892 2.137204,1.782749 3.205808,2.674122 4.86106,4.42464 9.342638,9.365218 12.745712,15.016435 0.564888,0.938064 1.058727,1.917118 1.58809,2.875677 2.364851,4.504026 3.552457,9.48064 3.870423,14.539702 0.0625,0.9944 0.05726,1.99189 0.08589,2.98783 0.03656,3.59085 -0.346231,7.15974 -1.323375,10.61899 -0.580493,2.05504 -0.787984,2.45066 -1.549595,4.39804 -1.121312,2.6134 -2.470023,5.14244 -4.158853,7.43654 -0.785358,1.06682 -1.332799,1.65268 -2.19654,2.64053 -1.491207,1.58067 -3.014053,3.13104 -4.503988,4.71278 -0.52967,0.56616 -0.282006,0.28776 -0.746094,0.83244 0,0 3.319733,1.98824 3.319733,1.98824 v 0 c 0.425127,-0.54659 0.195746,-0.26433 0.692002,-0.84362 1.402834,-1.64149 2.864032,-3.2313 4.293729,-4.84929 0.964224,-1.14388 1.28088,-1.4696 2.153513,-2.71416 1.647232,-2.3493 2.98246,-4.91989 4.13072,-7.54359 0.691877,-1.86887 0.975542,-2.51241 1.507844,-4.46878 0.953826,-3.50557 1.334971,-7.12323 1.256877,-10.75303 -0.06157,-2.18289 -0.05221,-3.86745 -0.342667,-6.039007 -0.131088,-0.980046 -0.333722,-1.949675 -0.537615,-2.917201 -0.216427,-1.026993 -0.42744,-2.057445 -0.722963,-3.064534 C 74.78275,90.483647 74.327225,89.782207 73.173803,87.36844 72.628801,86.394789 72.119476,85.400292 71.538797,84.447487 68.078571,78.76981 63.547018,73.79731 58.689782,69.29307 57.656957,68.408258 56.655173,67.485873 55.591304,66.63864 52.054926,63.822373 48.138812,61.528083 44.420512,58.970647 Z" />
    <path
       style="fill:#000000;fill-rule:evenodd;stroke-width:0.264583"
       id="path2"
       d="m 124.37025,28.348662 c -0.23699,1.229365 -0.74036,2.38474 -1.09893,3.579495 -0.33393,1.112602 -0.82627,3.015075 -1.11238,4.096329 -0.20627,0.880859 -0.41365,1.761458 -0.61881,2.642574 -0.21174,0.909304 -0.45692,1.811594 -0.63191,2.728679 -0.21898,1.14766 -0.38204,2.305458 -0.54931,3.461788 -0.59463,4.110579 -0.98423,8.233248 -1.34351,12.369495 -0.36831,5.888625 -0.43369,11.805192 0.048,17.6901 0.27156,3.317682 0.58711,5.275482 1.04048,8.57092 1.04775,7.017261 2.49483,13.999684 4.78163,20.727288 0.44561,1.31098 0.95964,2.5977 1.43947,3.89655 2.67401,6.15032 5.60368,12.22879 9.26843,17.85996 0.60736,0.93326 1.2615,1.83522 1.89225,2.75283 2.00193,2.78586 4.2179,5.42591 6.68138,7.81645 1.08734,1.05516 1.99017,1.82653 3.12669,2.82818 2.95093,2.49901 6.04719,4.81936 9.1978,7.0589 0.38401,0.25882 0.76803,0.51763 1.15204,0.77645 0,0 3.38152,1.32139 3.38152,1.32139 v 0 c -0.40967,-0.26531 -0.81934,-0.53061 -1.229,-0.79591 -3.20287,-2.21569 -6.29915,-4.58166 -9.30349,-7.06001 -3.70673,-3.24423 -7.26551,-6.66414 -10.13613,-10.69611 -0.6468,-0.91925 -1.31553,-1.82346 -1.94041,-2.75775 -3.75113,-5.60848 -6.83748,-11.65258 -9.43928,-17.87001 -0.48423,-1.29524 -1.0032,-2.57801 -1.45268,-3.88572 -2.30814,-6.715282 -3.79145,-13.684614 -4.83352,-20.698916 -0.51168,-3.689104 -0.71956,-4.834787 -1.0386,-8.54593 -0.50465,-5.87048 -0.56361,-11.777107 -0.0672,-17.650796 0.12719,-1.411944 0.23234,-2.826044 0.38157,-4.235829 0.5965,-5.63527 1.57887,-11.23312 3.18837,-16.672189 0.21873,-0.719794 0.41984,-1.445181 0.65619,-2.159381 0.58899,-1.779767 1.3522,-3.494706 2.01363,-5.246388 z" />
    <path
       style="fill:#000000;fill-rule:evenodd;stroke-width:0.264583"
       id="path3"
       d="m 139.02689,60.803784 c -1.00514,1.510043 -2.23789,2.849065 -3.35545,4.272015 -0.43128,0.549132 -3.21659,4.274222 -3.53681,4.701651 -0.68206,1.035177 -1.37903,2.060697 -2.04621,3.105534 -1.73606,2.71875 -2.76683,4.376478 -4.17748,7.337155 -2.21141,4.641278 -3.95275,9.497219 -5.69466,14.32637 -1.8455,6.141451 -3.31456,12.440741 -3.92393,18.836951 -0.26584,2.79044 -0.2675,5.06934 -0.32909,7.8574 0.002,4.54326 0.35442,9.09023 1.1204,13.56978 0.45424,2.65642 0.8329,4.2347 1.40988,6.86178 1.51279,6.60421 3.67792,13.0315 5.98654,19.39317 1.52272,4.03252 3.21353,8.00556 5.10335,11.88014 0.65643,1.28844 1.34741,2.55887 2.10379,3.79131 0,0 3.52002,1.54622 3.52002,1.54622 v 0 c -0.83845,-1.23728 -1.58849,-2.5318 -2.30682,-3.84198 -2.11014,-3.87844 -3.89358,-7.92477 -5.52307,-12.02637 -2.38634,-6.34777 -4.58162,-12.77588 -6.09307,-19.39628 -0.67301,-3.01729 -0.88515,-3.77646 -1.39459,-6.83003 -0.74876,-4.48803 -1.14369,-9.02891 -1.24527,-13.57687 0.0187,-3.0866 -0.0222,-4.776 0.21071,-7.88518 0.48068,-6.41579 1.74083,-12.75802 3.69996,-18.884903 1.29144,-3.61016 2.10923,-6.090211 3.64777,-9.610291 2.30138,-5.265431 5.18161,-10.254554 8.67396,-14.821286 0.64873,-0.814798 1.28141,-1.642631 1.94619,-2.44439 1.76683,-2.130928 3.67059,-4.144987 5.58829,-6.139096 z" />
    <path
       style="fill:#000000;fill-rule:evenodd;stroke-width:0.264583;filter:url(#filter13)"
       id="path4"
       d="m 99.150801,62.484801 c 0.351526,-0.678048 0.807434,-1.286806 1.506889,-1.618258 0,0 -3.273496,-2.131406 -3.273496,-2.131406 v 0 c -0.708186,0.455638 -1.209961,1.094636 -1.674722,1.790226 z" />
    <path
       style="fill:#000000;fill-rule:evenodd;stroke-width:0.264583;filter:url(#filter17)"
       id="path5"
       d="m 34.285922,80.366247 c 2.20249,0.835724 4.377756,1.740755 6.556973,2.634613 0,0 -2.452843,-1.935724 -2.452843,-1.935724 v 0 c -2.377321,-1.021934 -4.761577,-2.029378 -7.118885,-3.097077 z" />
    <path
       style="fill:#000000;fill-rule:evenodd;stroke-width:0.264583;filter:url(#filter16)"
       id="path6"
       d="m 60.549617,134.20071 c 1.906302,1.15649 3.691649,2.50434 5.496076,3.81035 0,0 3.076702,1.21973 3.076702,1.21973 v 0 c -1.625208,-1.20819 -3.223458,-2.45768 -4.889439,-3.60907 z" />
    <circle
       id="path7"
       style="fill:#000000;stroke:#000000;stroke-width:0.264583"
       cx="146.90599"
       cy="83.534775"
       r="0.038368106" />
    <circle
       id="path8"
       style="fill:#000000;stroke:#000000;stroke-width:0.264583"
       cx="151.51482"
       cy="101.10588"
       r="0.038368106" />
    <path
       style="fill:#000000;fill-rule:evenodd;stroke-width:0.264583;filter:url(#filter14)"
       id="path9"
       d="m 136.56317,103.64687 c 0.50139,0.70339 0.2089,0.28963 0.87336,1.24417 0,0 3.43923,1.51164 3.43923,1.51164 v 0 c -0.53048,-0.90383 -0.29029,-0.52202 -0.70327,-1.1561 z" />
    <path
       style="fill:#000000;fill-rule:evenodd;stroke-width:0.264583;filter:url(#filter15)"
       id="path10"
       d="m 95.122618,135.31091 c 0.04523,-0.12816 0.09047,-0.25633 0.135702,-0.38449 0,0 -3.393723,-1.90907 -3.393723,-1.90907 v 0 c -0.06412,0.12226 -0.128246,0.24452 -0.192368,0.36677 z" />
    <path
       style="fill:#000000;fill-rule:evenodd;stroke-width:0.264583;filter:url(#filter12)"
       id="path11"
       d="m 94.973906,81.853044 c -0.389702,0.779113 -0.171127,0.362958 -0.66426,1.243949 0,0 3.279193,1.901823 3.279193,1.901823 v 0 c 0.550256,-0.846908 0.280077,-0.460481 0.800764,-1.166051 z" />
  </g>
</svg>
