<?xml version="1.0" encoding="UTF-8" standalone="no"?>
<!-- Created with Inkscape (http://www.inkscape.org/) -->

<svg
   width="200mm"
   height="200mm"
   viewBox="0 0 200 200"
   version="1.1"
   id="svg1"
   inkscape:version="1.4 (e7c3feb1, 2024-10-09)"
   sodipodi:docname="lightning_rune_epic.svg"
   xmlns:inkscape="http://www.inkscape.org/namespaces/inkscape"
   xmlns:sodipodi="http://sodipodi.sourceforge.net/DTD/sodipodi-0.dtd"
   xmlns:xlink="http://www.w3.org/1999/xlink"
   xmlns="http://www.w3.org/2000/svg"
   xmlns:svg="http://www.w3.org/2000/svg">
  <sodipodi:namedview
     id="namedview1"
     pagecolor="#ffffff"
     bordercolor="#000000"
     borderopacity="0.25"
     inkscape:showpageshadow="2"
     inkscape:pageopacity="0.0"
     inkscape:pagecheckerboard="0"
     inkscape:deskcolor="#d1d1d1"
     inkscape:document-units="mm"
     inkscape:zoom="1"
     inkscape:cx="345.5"
     inkscape:cy="381"
     inkscape:window-width="1800"
     inkscape:window-height="1101"
     inkscape:window-x="3000"
     inkscape:window-y="494"
     inkscape:window-maximized="1"
     inkscape:current-layer="layer1" />
  <defs
     id="defs1">
    <linearGradient
       id="linearGradient6"
       inkscape:collect="always">
      <stop
         style="stop-color:#f6ed00;stop-opacity:1;"
         offset="0"
         id="stop6" />
      <stop
         style="stop-color:#e0b602;stop-opacity:0.66137564;"
         offset="0.73561084"
         id="stop8" />
      <stop
         style="stop-color:#8c00ff;stop-opacity:1;"
         offset="0.7974683"
         id="stop7" />
    </linearGradient>
    <radialGradient
       inkscape:collect="always"
       xlink:href="#linearGradient6"
       id="radialGradient7"
       cx="100"
       cy="100"
       fx="100"
       fy="100"
       r="75"
       gradientUnits="userSpaceOnUse" />
    <filter
       inkscape:collect="always"
       style="color-interpolation-filters:sRGB"
       id="filter24"
       x="-0.13972733"
       y="-0.13972733"
       width="1.2794547"
       height="1.2794547">
      <feGaussianBlur
         inkscape:collect="always"
         stdDeviation="8.7329575"
         id="feGaussianBlur24" />
    </filter>
    <filter
       inkscape:collect="always"
       style="color-interpolation-filters:sRGB"
       id="filter28"
       x="-0.079102513"
       y="-0.062751633"
       width="1.159486"
       height="1.1255033">
      <feGaussianBlur
         inkscape:collect="always"
         stdDeviation="3.403786"
         id="feGaussianBlur28" />
    </filter>
  </defs>
  <g
     inkscape:label="Rune Base"
     inkscape:groupmode="layer"
     id="layer1"
     style="fill:#ffffff;fill-opacity:1"
     sodipodi:insensitive="true"
     transform="matrix(1.2308231,0,0,1.2308231,-23.370358,-22.794256)">
    <circle
       style="display:inline;fill:url(#radialGradient7);fill-opacity:1;fill-rule:evenodd;stroke-width:0.910445;filter:url(#filter24)"
       id="Rune_Base"
       cx="100"
       cy="100"
       r="75"
       inkscape:label="Base" />
  </g>
  <g
     inkscape:groupmode="layer"
     id="layer2-9"
     inkscape:label="Rune Blur"
     transform="translate(-0.007268,3.53e-4)"
     style="filter:url(#filter28)">
    <path
       style="fill:#8c00ff;fill-rule:evenodd;stroke-width:0.264583;fill-opacity:1"
       id="path3-1"
       d="m 99.273234,35.298647 c -0.04642,0.228137 -0.08243,0.458639 -0.139263,0.684405 -0.244266,0.97027 -0.556895,1.871179 -0.830249,2.839564 -0.239446,0.848262 -0.466826,1.699932 -0.689542,2.552737 -0.655904,2.511528 -1.162192,4.614458 -1.787223,7.156696 -2.248606,9.561857 -5.325523,18.89579 -8.226909,28.271727 -2.3657,7.805372 -5.18686,15.459199 -7.681637,23.221964 -0.82436,2.4881 -1.49614,5.02115 -2.216999,7.53957 -0.219917,1.57505 -0.15521,0.55302 3.415998,2.41736 0.116856,0.061 0.23037,-0.12937 0.351882,-0.18047 0.25462,-0.10708 0.515435,-0.19887 0.77497,-0.29342 3.287633,-1.19764 -1.309677,0.51661 2.989758,-1.09779 0.717367,-0.24765 1.433332,-0.4994 2.152105,-0.74295 0.312319,-0.10583 4.982609,-1.65866 5.182155,-1.7285 2.716197,-0.95055 5.373677,-2.02205 8.0204,-3.14844 4.97853,-2.41163 9.91744,-4.903526 14.91021,-7.286297 2.21808,-1.146828 4.61361,-1.98242 6.7343,-3.315237 0.31154,-0.26865 0.73702,-0.420595 0.93895,-0.791451 0.5734,-1.389091 -1.28871,-1.164042 -3.52225,-1.920237 -0.1522,-0.05153 -0.16837,0.273772 -0.25586,0.408556 -0.1486,0.228928 -0.30157,0.454994 -0.45235,0.68249 -2.26462,3.449469 -4.6601,6.819654 -6.82135,10.336346 -0.63734,1.03707 -1.23182,2.09989 -1.84773,3.14983 -1.84549,3.47159 -3.69666,6.95149 -5.33583,10.52737 -0.57645,1.25753 -1.10141,2.53802 -1.65247,3.80688 -2.14808,4.94613 -1.05041,2.34771 -3.16495,7.49706 -0.554127,1.34789 -1.098356,2.69989 -1.662374,4.04367 -1.049382,2.50016 -2.266529,5.25024 -3.336194,7.74374 -1.571522,3.66337 -3.104359,7.34322 -4.642668,11.0206 -1.719577,4.41543 -3.72087,8.70971 -5.621173,13.04747 -0.280863,0.60866 -0.52332,1.23328 -0.756164,1.86137 0,0 3.422298,1.87664 3.422298,1.87664 v 0 c 0.166865,-0.64944 0.357111,-1.29215 0.586748,-1.92272 1.597991,-4.47996 3.477149,-8.85353 5.161513,-13.30095 0.982337,-2.49017 1.83529,-4.68697 2.871677,-7.16595 2.192374,-5.24403 4.518997,-10.43222 6.671487,-15.69331 3.13674,-7.36754 6.19061,-14.79984 10.23364,-21.73269 0.63744,-1.0327 1.25951,-2.07504 1.91232,-3.09809 2.22525,-3.487295 4.66995,-6.836904 7.27075,-10.052483 0.17082,-0.216495 0.34086,-0.433602 0.51246,-0.649483 0.11056,-0.139097 0.47152,-0.302951 0.33399,-0.415441 -1.02596,-0.839115 -2.25836,-1.38802 -3.38754,-2.08203 0.0136,0.02241 0.0272,0.031 0.0193,0.06312 -0.0869,0.254804 -0.60622,0.445225 -0.74698,0.665559 -1.97543,1.402712 -4.23981,2.347516 -6.35963,3.499231 -4.94224,2.446517 -9.8397,4.985874 -14.83999,7.312807 -2.141135,0.91821 -2.999345,1.31544 -5.192881,2.13711 -3.38532,1.26809 -6.860667,2.26107 -10.303034,3.3572 -1.19874,0.37532 -2.004102,0.64473 -3.173619,0.95758 -0.285157,0.0763 -0.56933,0.16182 -0.861073,0.20674 -0.0788,0.0121 -0.301974,-0.0828 -0.23617,-0.0378 3.303601,2.25984 3.571761,3.27144 3.144385,1.88235 0.3927,-2.62575 1.058138,-5.20155 1.744419,-7.76317 2.186993,-7.889034 4.848207,-15.633605 7.228406,-23.46521 2.979648,-9.336479 5.939542,-18.683589 8.476303,-28.152373 0.779306,-2.807335 1.158716,-4.29923 2.034044,-7.006182 0.5691,-1.759945 1.24997,-3.469812 1.89281,-5.201772 0.0795,-0.214273 0.15025,-0.431713 0.22538,-0.647568 z" />
    <path
       style="fill:#8c00ff;fill-rule:evenodd;stroke-width:0.264583;fill-opacity:1"
       id="path4-7"
       d="m 81.195581,109.72437 c 0.395158,-0.21082 0.738166,-0.48889 1.102794,-0.74396 0.212018,-0.0999 0.383476,-0.24351 0.548068,-0.41262 0.103826,-0.0929 0.143243,-0.21901 0.158584,-0.35408 0.015,-0.0918 -0.121701,0.068 0.05853,0.0835 0.160964,0.14161 0.236362,-0.26237 0.353263,-0.2271 0.06797,-0.0169 0.03393,-0.008 0.102129,-0.0257 0,0 -3.316528,-2.21169 -3.316528,-2.21169 v 0 c -0.09094,0.0509 -0.04393,0.0222 -0.140224,0.0874 -0.177749,0.17035 -0.08516,0.0428 -0.285027,0.10939 -0.134443,0.0652 -0.320789,0.19622 -0.319464,0.35904 0.0079,0.12421 0.07365,-0.0108 -0.01233,0.10277 -0.145534,0.15147 -0.330631,0.23843 -0.494911,0.36732 -0.34285,0.26485 -0.689528,0.52065 -1.07955,0.71468 z" />
    <path
       style="fill:#8c00ff;fill-rule:evenodd;stroke-width:0.264583;fill-opacity:1"
       id="path5-2"
       d="m 119.88389,89.101807 c -0.31974,0.403175 -0.67181,0.781331 -1.00733,1.172686 -0.11606,0.192919 -0.30577,0.302461 -0.45372,0.451141 -0.11013,0.172916 -0.28408,0.160925 -0.40759,0.310134 -0.0908,0.145016 -0.18673,0.284801 -0.29451,0.417889 -0.10105,0.168656 -0.12153,0.362947 -0.19797,0.540652 -0.0671,0.147256 -0.14024,0.29329 -0.19767,0.443158 -0.10088,0.115692 -0.18138,0.223417 -0.30749,0.316095 -0.16383,0.06588 -0.15553,0.272767 -0.28103,0.373283 -0.18308,0.117229 -0.24061,0.341323 -0.43964,0.429622 -0.16015,0.164613 -0.25176,0.184375 -0.47177,0.246515 -0.14927,0.08038 -0.28749,0.205647 -0.44261,0.299622 -0.0969,0.128577 -0.15744,0.275648 -0.20094,0.429091 -0.0657,0.218286 0.0658,0.0687 -0.0435,0.11249 -0.10227,0.0948 -0.21217,0.180898 -0.32178,0.266949 0,0 3.38017,2.114992 3.38017,2.114992 v 0 c 0.10107,-0.08855 0.20259,-0.177454 0.31386,-0.253143 0.0966,-0.09344 0.24104,-0.223385 0.19968,-0.370033 8e-4,-0.0478 0.008,-0.129379 0.0284,-0.148955 0.12648,-0.09005 0.23749,-0.196213 0.38369,-0.225941 0.1956,-0.08472 0.36091,-0.201843 0.52784,-0.326213 0.18201,-0.15126 0.29508,-0.357031 0.47943,-0.506704 0.13683,-0.159551 0.14172,-0.245599 0.26478,-0.330327 0.14005,-0.128987 0.25968,-0.27455 0.37361,-0.426614 0.0922,-0.153085 0.13268,-0.328636 0.21632,-0.490286 0.073,-0.1525 0.13069,-0.291608 0.16061,-0.457081 0.0883,-0.121028 0.17784,-0.242281 0.26218,-0.365178 0.14943,-0.05558 0.27972,-0.176101 0.39388,-0.302299 0.1912,-0.138613 0.33804,-0.325314 0.47737,-0.514274 0.31125,-0.412533 0.65708,-0.793202 1.00148,-1.177734 z" />
    <path
       style="fill:#8c00ff;fill-rule:evenodd;stroke-width:0.264583;fill-opacity:1"
       id="path6-3"
       d="m 107.91083,63.22996 c 0.27934,-0.524446 0.10577,-0.219411 0.54333,-0.901867 0,0 -3.31246,-1.955085 -3.31246,-1.955085 v 0 c -0.53071,0.674769 -0.31589,0.369207 -0.66681,0.900581 z" />
    <path
       style="fill:#8c00ff;fill-rule:evenodd;stroke-width:0.264583;fill-opacity:1"
       id="path7-6"
       d="m 97.406435,160.92431 c 0.763109,-0.74172 1.50626,-1.50347 2.261171,-2.25364 0,0 -3.152777,-1.94107 -3.152777,-1.94107 v 0 c -0.790467,0.73198 -1.569,1.48548 -2.449018,2.11213 z" />
    <path
       style="fill:#8c00ff;fill-rule:evenodd;stroke-width:0.264583;fill-opacity:1"
       id="path8-5"
       d="m 130.94744,122.78162 c 0.51897,-0.83367 1.1468,-1.59075 1.75965,-2.35508 0,0 -3.19779,-1.91811 -3.19779,-1.91811 v 0 c -0.65033,0.7643 -1.30227,1.52697 -1.97022,2.27599 z" />
    <path
       style="fill:#8c00ff;fill-rule:evenodd;stroke-width:0.264583;fill-opacity:1"
       id="path9-5"
       d="m 55.991683,88.854051 c 0.576556,0.227288 0.243136,0.09518 0.999744,0.397637 0,0 -3.020113,-2.378707 -3.020113,-2.378707 v 0 c -0.826969,-0.345363 -0.457782,-0.199538 -1.104046,-0.446273 z" />
    <path
       style="fill:#8c00ff;fill-rule:evenodd;stroke-width:0.264583;fill-opacity:1"
       id="path10-8"
       d="m 132.42857,68.941386 c 0.59778,0.874437 0.23573,0.353705 1.09826,1.553699 0,0 3.42645,1.494449 3.42645,1.494449 v 0 c -0.72306,-1.119265 -0.42867,-0.633688 -0.90446,-1.443599 z" />
    <path
       style="fill:#8c00ff;fill-rule:evenodd;stroke-width:0.264583;fill-opacity:1"
       id="path11-1"
       d="m 62.518908,134.78561 c 1.233869,1.36516 0.540774,0.59404 2.075569,2.3167 0,0 3.316452,1.40315 3.316452,1.40315 v 0 c -1.353741,-1.63807 -0.754251,-0.90694 -1.801829,-2.19064 z" />
    <path
       style="fill:#8c00ff;fill-rule:evenodd;stroke-width:0.264583;fill-opacity:1"
       id="path12-4"
       d="m 99.87546,86.521194 c 0.03267,0.208507 0.06533,0.417017 0.098,0.625528 0,0 3.46705,1.71297 3.46705,1.71297 v 0 c -0.0176,-0.19626 -0.0351,-0.39252 -0.0527,-0.588782 z" />
    <path
       style="fill:#8c00ff;fill-rule:evenodd;stroke-width:0.264583;fill-opacity:1"
       id="path13-7"
       d="m 70.266459,43.410012 c 0.08564,0.288356 0.171288,0.576715 0.256934,0.865071 0,0 3.441081,1.645164 3.441081,1.645164 v 0 c -0.057,-0.264107 -0.114004,-0.528214 -0.171006,-0.792322 z" />
    <circle
       id="path14-1"
       style="fill:#8c00ff;stroke:#000000;stroke-width:0.264583;fill-opacity:1"
       cx="152.39999"
       cy="92.074997"
       r="0.035242245" />
    <circle
       id="path15-3"
       style="fill:#8c00ff;stroke:#000000;stroke-width:0.264583;fill-opacity:1"
       cx="156.10417"
       cy="111.125"
       r="0.035242245" />
  </g>
  <g
     inkscape:groupmode="layer"
     id="layer2"
     inkscape:label="Rune">
    <path
       style="fill:#8c00ff;fill-rule:evenodd;stroke-width:0.264583;fill-opacity:1"
       id="path3"
       d="m 99.273234,35.298647 c -0.04642,0.228137 -0.08243,0.458639 -0.139263,0.684405 -0.244266,0.97027 -0.556895,1.871179 -0.830249,2.839564 -0.239446,0.848262 -0.466826,1.699932 -0.689542,2.552737 -0.655904,2.511528 -1.162192,4.614458 -1.787223,7.156696 -2.248606,9.561857 -5.325523,18.89579 -8.226909,28.271727 -2.3657,7.805372 -5.18686,15.459199 -7.681637,23.221964 -0.82436,2.4881 -1.49614,5.02115 -2.216999,7.53957 -0.219917,1.57505 -0.15521,0.55302 3.415998,2.41736 0.116856,0.061 0.23037,-0.12937 0.351882,-0.18047 0.25462,-0.10708 0.515435,-0.19887 0.77497,-0.29342 3.287633,-1.19764 -1.309677,0.51661 2.989758,-1.09779 0.717367,-0.24765 1.433332,-0.4994 2.152105,-0.74295 0.312319,-0.10583 4.982609,-1.65866 5.182155,-1.7285 2.716197,-0.95055 5.373677,-2.02205 8.0204,-3.14844 4.97853,-2.41163 9.91744,-4.903526 14.91021,-7.286297 2.21808,-1.146828 4.61361,-1.98242 6.7343,-3.315237 0.31154,-0.26865 0.73702,-0.420595 0.93895,-0.791451 0.5734,-1.389091 -1.28871,-1.164042 -3.52225,-1.920237 -0.1522,-0.05153 -0.16837,0.273772 -0.25586,0.408556 -0.1486,0.228928 -0.30157,0.454994 -0.45235,0.68249 -2.26462,3.449469 -4.6601,6.819654 -6.82135,10.336346 -0.63734,1.03707 -1.23182,2.09989 -1.84773,3.14983 -1.84549,3.47159 -3.69666,6.95149 -5.33583,10.52737 -0.57645,1.25753 -1.10141,2.53802 -1.65247,3.80688 -2.14808,4.94613 -1.05041,2.34771 -3.16495,7.49706 -0.554127,1.34789 -1.098356,2.69989 -1.662374,4.04367 -1.049382,2.50016 -2.266529,5.25024 -3.336194,7.74374 -1.571522,3.66337 -3.104359,7.34322 -4.642668,11.0206 -1.719577,4.41543 -3.72087,8.70971 -5.621173,13.04747 -0.280863,0.60866 -0.52332,1.23328 -0.756164,1.86137 0,0 3.422298,1.87664 3.422298,1.87664 v 0 c 0.166865,-0.64944 0.357111,-1.29215 0.586748,-1.92272 1.597991,-4.47996 3.477149,-8.85353 5.161513,-13.30095 0.982337,-2.49017 1.83529,-4.68697 2.871677,-7.16595 2.192374,-5.24403 4.518997,-10.43222 6.671487,-15.69331 3.13674,-7.36754 6.19061,-14.79984 10.23364,-21.73269 0.63744,-1.0327 1.25951,-2.07504 1.91232,-3.09809 2.22525,-3.487295 4.66995,-6.836904 7.27075,-10.052483 0.17082,-0.216495 0.34086,-0.433602 0.51246,-0.649483 0.11056,-0.139097 0.47152,-0.302951 0.33399,-0.415441 -1.02596,-0.839115 -2.25836,-1.38802 -3.38754,-2.08203 0.0136,0.02241 0.0272,0.031 0.0193,0.06312 -0.0869,0.254804 -0.60622,0.445225 -0.74698,0.665559 -1.97543,1.402712 -4.23981,2.347516 -6.35963,3.499231 -4.94224,2.446517 -9.8397,4.985874 -14.83999,7.312807 -2.141135,0.91821 -2.999345,1.31544 -5.192881,2.13711 -3.38532,1.26809 -6.860667,2.26107 -10.303034,3.3572 -1.19874,0.37532 -2.004102,0.64473 -3.173619,0.95758 -0.285157,0.0763 -0.56933,0.16182 -0.861073,0.20674 -0.0788,0.0121 -0.301974,-0.0828 -0.23617,-0.0378 3.303601,2.25984 3.571761,3.27144 3.144385,1.88235 0.3927,-2.62575 1.058138,-5.20155 1.744419,-7.76317 2.186993,-7.889034 4.848207,-15.633605 7.228406,-23.46521 2.979648,-9.336479 5.939542,-18.683589 8.476303,-28.152373 0.779306,-2.807335 1.158716,-4.29923 2.034044,-7.006182 0.5691,-1.759945 1.24997,-3.469812 1.89281,-5.201772 0.0795,-0.214273 0.15025,-0.431713 0.22538,-0.647568 z" />
    <path
       style="fill:#8c00ff;fill-rule:evenodd;stroke-width:0.264583;fill-opacity:1"
       id="path4"
       d="m 81.195581,109.72437 c 0.395158,-0.21082 0.738166,-0.48889 1.102794,-0.74396 0.212018,-0.0999 0.383476,-0.24351 0.548068,-0.41262 0.103826,-0.0929 0.143243,-0.21901 0.158584,-0.35408 0.015,-0.0918 -0.121701,0.068 0.05853,0.0835 0.160964,0.14161 0.236362,-0.26237 0.353263,-0.2271 0.06797,-0.0169 0.03393,-0.008 0.102129,-0.0257 0,0 -3.316528,-2.21169 -3.316528,-2.21169 v 0 c -0.09094,0.0509 -0.04393,0.0222 -0.140224,0.0874 -0.177749,0.17035 -0.08516,0.0428 -0.285027,0.10939 -0.134443,0.0652 -0.320789,0.19622 -0.319464,0.35904 0.0079,0.12421 0.07365,-0.0108 -0.01233,0.10277 -0.145534,0.15147 -0.330631,0.23843 -0.494911,0.36732 -0.34285,0.26485 -0.689528,0.52065 -1.07955,0.71468 z" />
    <path
       style="fill:#8c00ff;fill-rule:evenodd;stroke-width:0.264583;fill-opacity:1"
       id="path5"
       d="m 119.88389,89.101807 c -0.31974,0.403175 -0.67181,0.781331 -1.00733,1.172686 -0.11606,0.192919 -0.30577,0.302461 -0.45372,0.451141 -0.11013,0.172916 -0.28408,0.160925 -0.40759,0.310134 -0.0908,0.145016 -0.18673,0.284801 -0.29451,0.417889 -0.10105,0.168656 -0.12153,0.362947 -0.19797,0.540652 -0.0671,0.147256 -0.14024,0.29329 -0.19767,0.443158 -0.10088,0.115692 -0.18138,0.223417 -0.30749,0.316095 -0.16383,0.06588 -0.15553,0.272767 -0.28103,0.373283 -0.18308,0.117229 -0.24061,0.341323 -0.43964,0.429622 -0.16015,0.164613 -0.25176,0.184375 -0.47177,0.246515 -0.14927,0.08038 -0.28749,0.205647 -0.44261,0.299622 -0.0969,0.128577 -0.15744,0.275648 -0.20094,0.429091 -0.0657,0.218286 0.0658,0.0687 -0.0435,0.11249 -0.10227,0.0948 -0.21217,0.180898 -0.32178,0.266949 0,0 3.38017,2.114992 3.38017,2.114992 v 0 c 0.10107,-0.08855 0.20259,-0.177454 0.31386,-0.253143 0.0966,-0.09344 0.24104,-0.223385 0.19968,-0.370033 8e-4,-0.0478 0.008,-0.129379 0.0284,-0.148955 0.12648,-0.09005 0.23749,-0.196213 0.38369,-0.225941 0.1956,-0.08472 0.36091,-0.201843 0.52784,-0.326213 0.18201,-0.15126 0.29508,-0.357031 0.47943,-0.506704 0.13683,-0.159551 0.14172,-0.245599 0.26478,-0.330327 0.14005,-0.128987 0.25968,-0.27455 0.37361,-0.426614 0.0922,-0.153085 0.13268,-0.328636 0.21632,-0.490286 0.073,-0.1525 0.13069,-0.291608 0.16061,-0.457081 0.0883,-0.121028 0.17784,-0.242281 0.26218,-0.365178 0.14943,-0.05558 0.27972,-0.176101 0.39388,-0.302299 0.1912,-0.138613 0.33804,-0.325314 0.47737,-0.514274 0.31125,-0.412533 0.65708,-0.793202 1.00148,-1.177734 z" />
    <path
       style="fill:#8c00ff;fill-rule:evenodd;stroke-width:0.264583;fill-opacity:1"
       id="path6"
       d="m 107.91083,63.22996 c 0.27934,-0.524446 0.10577,-0.219411 0.54333,-0.901867 0,0 -3.31246,-1.955085 -3.31246,-1.955085 v 0 c -0.53071,0.674769 -0.31589,0.369207 -0.66681,0.900581 z" />
    <path
       style="fill:#8c00ff;fill-rule:evenodd;stroke-width:0.264583;fill-opacity:1"
       id="path7"
       d="m 97.406435,160.92431 c 0.763109,-0.74172 1.50626,-1.50347 2.261171,-2.25364 0,0 -3.152777,-1.94107 -3.152777,-1.94107 v 0 c -0.790467,0.73198 -1.569,1.48548 -2.449018,2.11213 z" />
    <path
       style="fill:#8c00ff;fill-rule:evenodd;stroke-width:0.264583;fill-opacity:1"
       id="path8"
       d="m 130.94744,122.78162 c 0.51897,-0.83367 1.1468,-1.59075 1.75965,-2.35508 0,0 -3.19779,-1.91811 -3.19779,-1.91811 v 0 c -0.65033,0.7643 -1.30227,1.52697 -1.97022,2.27599 z" />
    <path
       style="fill:#8c00ff;fill-rule:evenodd;stroke-width:0.264583;fill-opacity:1"
       id="path9"
       d="m 55.991683,88.854051 c 0.576556,0.227288 0.243136,0.09518 0.999744,0.397637 0,0 -3.020113,-2.378707 -3.020113,-2.378707 v 0 c -0.826969,-0.345363 -0.457782,-0.199538 -1.104046,-0.446273 z" />
    <path
       style="fill:#8c00ff;fill-rule:evenodd;stroke-width:0.264583;fill-opacity:1"
       id="path10"
       d="m 132.42857,68.941386 c 0.59778,0.874437 0.23573,0.353705 1.09826,1.553699 0,0 3.42645,1.494449 3.42645,1.494449 v 0 c -0.72306,-1.119265 -0.42867,-0.633688 -0.90446,-1.443599 z" />
    <path
       style="fill:#8c00ff;fill-rule:evenodd;stroke-width:0.264583;fill-opacity:1"
       id="path11"
       d="m 62.518908,134.78561 c 1.233869,1.36516 0.540774,0.59404 2.075569,2.3167 0,0 3.316452,1.40315 3.316452,1.40315 v 0 c -1.353741,-1.63807 -0.754251,-0.90694 -1.801829,-2.19064 z" />
    <path
       style="fill:#8c00ff;fill-rule:evenodd;stroke-width:0.264583;fill-opacity:1"
       id="path12"
       d="m 99.87546,86.521194 c 0.03267,0.208507 0.06533,0.417017 0.098,0.625528 0,0 3.46705,1.71297 3.46705,1.71297 v 0 c -0.0176,-0.19626 -0.0351,-0.39252 -0.0527,-0.588782 z" />
    <path
       style="fill:#8c00ff;fill-rule:evenodd;stroke-width:0.264583;fill-opacity:1"
       id="path13"
       d="m 70.266459,43.410012 c 0.08564,0.288356 0.171288,0.576715 0.256934,0.865071 0,0 3.441081,1.645164 3.441081,1.645164 v 0 c -0.057,-0.264107 -0.114004,-0.528214 -0.171006,-0.792322 z" />
    <circle
       id="path14"
       style="fill:#8c00ff;stroke:#000000;stroke-width:0.264583;fill-opacity:1"
       cx="152.39999"
       cy="92.074997"
       r="0.035242245" />
    <circle
       id="path15"
       style="fill:#8c00ff;stroke:#000000;stroke-width:0.264583;fill-opacity:1"
       cx="156.10417"
       cy="111.125"
       r="0.035242245" />
  </g>
</svg>
