<?xml version="1.0" encoding="UTF-8" standalone="no"?>
<!-- Created with Inkscape (http://www.inkscape.org/) -->

<svg
   width="200mm"
   height="200mm"
   viewBox="0 0 200 200"
   version="1.1"
   id="svg1"
   inkscape:version="1.4 (e7c3feb1, 2024-10-09)"
   sodipodi:docname="placeholder_life_frost.svg"
   xmlns:inkscape="http://www.inkscape.org/namespaces/inkscape"
   xmlns:sodipodi="http://sodipodi.sourceforge.net/DTD/sodipodi-0.dtd"
   xmlns:xlink="http://www.w3.org/1999/xlink"
   xmlns="http://www.w3.org/2000/svg"
   xmlns:svg="http://www.w3.org/2000/svg">
  <sodipodi:namedview
     id="namedview1"
     pagecolor="#ffffff"
     bordercolor="#000000"
     borderopacity="0.25"
     inkscape:showpageshadow="2"
     inkscape:pageopacity="0.0"
     inkscape:pagecheckerboard="0"
     inkscape:deskcolor="#d1d1d1"
     inkscape:document-units="mm"
     inkscape:zoom="1.2112919"
     inkscape:cx="476.35091"
     inkscape:cy="338.89436"
     inkscape:window-width="1920"
     inkscape:window-height="948"
     inkscape:window-x="1080"
     inkscape:window-y="350"
     inkscape:window-maximized="1"
     inkscape:current-layer="layer2-9" />
  <defs
     id="defs1">
    <linearGradient
       id="linearGradient6"
       inkscape:collect="always">
      <stop
         style="stop-color:#1df600;stop-opacity:1;"
         offset="0.35019454"
         id="stop6" />
      <stop
         style="stop-color:#02d5eb;stop-opacity:1;"
         offset="0.56614786"
         id="stop8" />
    </linearGradient>
    <filter
       inkscape:collect="always"
       style="color-interpolation-filters:sRGB"
       id="filter24"
       x="-0.35231003"
       y="-0.35231003"
       width="1.7046201"
       height="1.7046201">
      <feGaussianBlur
         inkscape:collect="always"
         stdDeviation="22.019376"
         id="feGaussianBlur24" />
    </filter>
    <linearGradient
       inkscape:collect="always"
       xlink:href="#linearGradient6"
       id="linearGradient2"
       x1="4.4553719"
       y1="4.67171"
       x2="195.54463"
       y2="196.5717"
       gradientUnits="userSpaceOnUse" />
    <filter
       inkscape:collect="always"
       style="color-interpolation-filters:sRGB"
       id="filter10"
       x="-0.012623299"
       y="-0.01367913"
       width="1.0252466"
       height="1.0273583">
      <feGaussianBlur
         inkscape:collect="always"
         stdDeviation="0.70311758"
         id="feGaussianBlur10" />
    </filter>
  </defs>
  <g
     inkscape:label="Rune Base"
     inkscape:groupmode="layer"
     id="layer1"
     style="fill:#ffffff;fill-opacity:1"
     transform="matrix(1.2308231,0,0,1.2308231,-23.370358,-22.794256)"
     sodipodi:insensitive="true">
    <circle
       style="display:inline;mix-blend-mode:normal;fill:url(#linearGradient2);fill-rule:evenodd;stroke-width:0.910445;filter:url(#filter24)"
       id="Rune_Base"
       cx="100"
       cy="100"
       r="75"
       inkscape:label="Base"
       transform="matrix(0.82817713,0,0,0.83466102,19.254642,18.191783)" />
  </g>
  <g
     inkscape:groupmode="layer"
     id="layer2"
     inkscape:label="Rune"
     sodipodi:insensitive="true">
    <path
       style="fill:#000000;fill-rule:evenodd;stroke:#ffffff;stroke-width:0"
       id="path1"
       d="m 96.556636,32.843866 c 0.595217,2.448809 1.356928,4.85249 2.210895,7.222117 1.260729,3.138012 2.547349,6.266392 4.046029,9.299049 1.45401,2.823662 2.972,5.647134 4.92136,8.167788 0.44241,0.572058 0.9264,1.110705 1.3896,1.666054 1.78384,2.027989 3.89026,3.725725 6.21628,5.092298 4.66988,2.743634 3.05611,2.010566 6.31273,3.288234 3.53239,1.275757 7.17784,2.202235 10.8151,3.122808 2.49058,0.654143 5.01382,1.172268 7.52017,1.76049 -0.60435,-0.672965 0.76755,0.336571 0.59443,0.216215 -1.1052,-0.768355 -2.16737,-1.602177 -3.31317,-2.308545 -0.12035,-0.07419 -0.28292,-0.0028 -0.4241,0.0046 -0.2816,0.01476 -1.56396,0.124415 -1.75616,0.140454 -2.72314,0.338831 -5.3505,1.148435 -7.73509,2.521768 -0.62537,0.360166 -1.21775,0.774805 -1.82663,1.162208 -3.89831,2.649151 -7.26498,5.965473 -10.53471,9.335371 -2.13116,2.232022 -4.09119,4.632176 -5.84464,7.172483 -1.04988,1.521011 -1.30156,2.005325 -2.24345,3.589838 -2.08288,3.450749 -3.46079,7.237154 -4.7758,11.026884 -1.31211,3.88654 -2.434725,7.83421 -3.429325,11.81292 -0.137666,0.6456 -0.294259,1.28745 -0.412999,1.9368 -0.128452,0.70246 -0.519361,3.43092 -0.624358,4.15711 -0.253659,1.75438 -0.484106,3.50722 -0.682273,5.26866 -0.208646,1.43041 -0.23131,2.90154 -0.588698,4.30862 0.431607,-1.47776 -0.107117,0.0656 3.388812,1.53513 0.14578,0.0613 -0.101486,-0.29963 -0.146431,-0.45125 -0.141655,-0.47786 -0.24648,-0.96627 -0.392798,-1.44273 -0.116194,-0.37836 -0.250912,-0.75079 -0.376367,-1.12618 -1.139671,-2.97777 -2.733831,-5.76344 -4.554524,-8.37485 -0.42087,-0.60365 -0.86981,-1.18724 -1.304716,-1.78086 -2.075691,-2.67412 -4.447201,-5.11667 -6.977806,-7.36259 -1.84118,-1.63404 -2.868419,-2.40049 -4.806376,-3.93236 -5.225335,-4.03543 -10.831753,-7.53928 -16.532135,-10.855831 -3.96159,-2.300822 -7.975491,-4.541872 -12.217656,-6.289796 -1.910461,-0.787178 -2.288789,-0.883169 -4.251182,-1.555372 -3.885925,-1.343583 -7.91518,-2.168451 -11.957643,-2.870552 -0.463973,-0.07549 -0.927944,-0.150974 -1.391917,-0.226462 0,0 2.93239,2.198103 2.93239,2.198103 v 0 c 0.440836,0.06055 0.881671,0.121097 1.322507,0.181644 4.004156,0.63989 7.967951,1.516875 11.810005,2.832018 2.142659,0.751655 4.246898,1.542002 6.316072,2.48136 6.209065,2.818771 -2.184164,-0.933952 4.529654,2.236965 0.04648,0.02196 -0.05098,-0.08928 -0.07647,-0.133924 0.953641,0.549873 1.915097,1.086411 2.860921,1.649624 4.708104,2.803533 9.29023,5.831913 13.652423,9.149353 0.816526,0.64362 1.644854,1.27255 2.449579,1.93086 3.353792,2.74361 6.48585,5.77857 9.159917,9.19484 0.438841,0.58903 0.893696,1.16646 1.316516,1.76709 1.781205,2.53026 3.307567,5.25719 4.357376,8.17302 0.235079,0.81995 0.466722,1.6374 0.630452,2.47527 0.0303,0.15506 -0.05122,0.37258 0.07466,0.46804 3.365566,2.55218 2.671363,3.31122 3.664334,1.98007 0.164966,-1.49243 0.194656,-2.99409 0.304246,-4.49077 0.33682,-3.81172 0.79118,-7.62318 1.6062,-11.36545 0.97403,-3.97485 2.11762,-7.90377 3.4098,-11.78732 1.30366,-3.76667 2.72437,-7.512815 4.73103,-10.971189 0.84629,-1.429067 1.2738,-2.198952 2.20458,-3.57787 1.71758,-2.544532 3.66876,-4.923054 5.77408,-7.155442 3.25247,-3.355054 6.64344,-6.626659 10.54417,-9.228754 1.49539,-0.894186 2.027,-1.285846 3.6018,-1.954389 1.93735,-0.822458 4.00166,-1.254141 6.09286,-1.425475 0.3425,-0.01543 0.68501,-0.03086 1.02751,-0.04629 0.27561,-0.0043 0.55136,-0.0033 0.82683,-0.01304 0.18547,-0.0066 0.68962,0.09248 0.55561,-0.0359 -2.64677,-2.535719 -1.91441,-2.154023 -3.62173,-2.466962 -2.43912,-0.458729 -4.86883,-0.973449 -7.27306,-1.590953 -3.62184,-0.930738 -7.2623,-1.841126 -10.77005,-3.150145 -0.60516,-0.258585 -1.28141,-1.160277 -1.81547,-0.77575 -0.49743,0.358151 2.02096,1.369457 1.57519,0.948751 -0.45691,-0.431223 -1.08528,-0.634542 -1.60938,-0.981017 -1.73507,-1.147043 -3.32299,-2.485747 -4.71403,-4.035285 -0.46292,-0.545356 -0.94828,-1.072433 -1.38877,-1.636064 -1.93652,-2.477889 -3.40989,-5.280575 -4.83943,-8.067836 -1.48345,-3.031575 -2.85493,-6.116603 -4.07081,-9.266126 -0.81967,-2.286061 -1.55132,-4.615358 -1.94082,-7.018131 z" />
    <path
       style="fill:#000000;fill-rule:evenodd;stroke:#ffffff;stroke-width:0"
       id="path2"
       d="m 100.07363,27.733871 c 0.52649,0.727387 0.23676,0.327858 0.86965,1.198239 0,0 3.47951,1.511864 3.47951,1.511864 v 0 c -0.56216,-0.826871 -0.31484,-0.443079 -0.75098,-1.145511 z" />
    <path
       style="fill:#000000;fill-rule:evenodd;stroke:#ffffff;stroke-width:0"
       id="path3"
       d="m 67.202263,51.987367 c 1.080956,0.957226 2.214335,1.853711 3.333097,2.765838 0,0 3.3103,1.334019 3.3103,1.334019 v 0 c -1.024729,-0.853806 -2.063679,-1.694093 -3.037795,-2.606368 z" />
    <path
       style="fill:#000000;fill-rule:evenodd;stroke:#ffffff;stroke-width:0"
       id="path4"
       d="m 54.894535,106.12144 c 0.168579,-0.48531 0.07719,-0.22483 0.27495,-0.78115 0,0 -3.39475,-1.8913 -3.39475,-1.8913 v 0 c -0.224645,0.53104 -0.114514,0.28597 -0.326242,0.73706 z" />
    <path
       style="fill:#000000;fill-rule:evenodd;stroke:#ffffff;stroke-width:0"
       id="path5"
       d="m 53.587967,58.959789 c 2.134179,2.867364 4.135638,5.828702 6.087036,8.822338 2.274482,3.558662 4.344461,7.272687 5.884809,11.213954 1.032386,2.641547 1.266516,3.690578 2.051381,6.414725 0.931214,3.754221 1.609907,7.59183 1.853321,11.45712 0.152572,2.422739 0.08711,2.991191 0.03005,5.408874 -0.150051,4.56622 -0.937332,9.06736 -1.982029,13.50385 -0.774461,2.98833 -1.638554,5.954 -2.735564,8.84048 -0.8661,2.03168 -1.691809,4.07011 -2.318094,6.18928 -0.269369,1.09332 -0.584676,2.17256 -0.934743,3.2424 0,0 3.425523,1.87666 3.425523,1.87666 v 0 c 0.318008,-1.09428 0.600366,-2.1969 0.821732,-3.31556 0.565034,-2.13102 1.408301,-4.16356 2.196291,-6.21962 0.331991,-0.89112 0.699389,-1.8439 0.986207,-2.75045 0.644443,-2.03689 1.155444,-4.11795 1.670093,-6.18999 0.967216,-4.49461 1.709438,-9.04859 1.843283,-13.65335 0.03999,-1.62505 0.129217,-3.803934 0.02627,-5.428841 -0.05385,-0.850014 -0.180226,-1.694077 -0.29283,-2.538317 -0.406519,-3.047842 -0.925354,-6.088523 -1.722628,-9.060844 -0.71092,-2.512579 -1.069949,-3.995566 -2.001038,-6.43604 -1.498775,-3.928436 -3.567729,-7.612253 -5.731304,-11.204554 -1.824598,-2.883339 -3.703503,-5.730198 -5.555184,-8.595868 z" />
    <path
       style="fill:#000000;fill-rule:evenodd;stroke:#ffffff;stroke-width:0"
       id="path6"
       d="m 85.864146,64.026774 c 2.340676,2.243563 4.891484,4.253074 7.45073,6.237891 2.518921,1.903137 5.166132,3.636991 7.908914,5.20021 3.13403,1.786213 5.45875,3.192857 8.63883,4.508495 1.09368,0.452472 2.21868,0.825188 3.32802,1.237782 5.96727,1.926532 12.12253,3.255044 18.32205,4.176125 1.26518,0.18797 2.53605,0.335449 3.80408,0.503176 2.44923,0.246666 4.95935,0.545357 7.42409,0.616271 1.233,0.03547 2.46749,0.01357 3.70044,-0.02336 1.16432,-0.03488 2.33057,-0.07241 3.48925,-0.192032 2.69462,-0.278199 3.51101,-0.574151 6.07077,-1.214509 2.2524,-0.992328 2.62152,-1.045355 4.62394,-2.323986 0.57612,-0.367882 1.16079,-0.734573 1.66834,-1.192448 1.52536,-1.376056 2.4718,-3.237847 3.44327,-5.00624 0.96658,-1.977829 1.87853,-3.981725 2.81433,-5.974352 0,0 -3.2975,-1.853975 -3.2975,-1.853975 v 0 c -0.8157,2.041985 -1.65861,4.075358 -2.57307,6.075071 -0.69119,1.297745 -1.11727,2.223942 -2.02303,3.402333 -0.40388,0.525444 -0.84079,1.030147 -1.32678,1.480733 -0.84302,0.781597 -2.60256,1.929164 -3.57168,2.432108 -0.7986,0.414446 -1.6449,0.72966 -2.46734,1.094491 -2.55978,0.67623 -3.21153,0.945166 -5.9231,1.24219 -4.82572,0.528608 -9.70314,0.141774 -14.50634,-0.395722 -1.2656,-0.170053 -2.53419,-0.319159 -3.79679,-0.510161 -6.20702,-0.938991 -12.37531,-2.284336 -18.33625,-4.26374 -7.27118,-2.797638 0.38467,0.238242 -6.38102,-2.705682 -0.041,-0.01783 -0.0878,0.0649 -0.12688,0.04324 -2.71882,-1.50609 -5.314821,-3.239204 -7.79356,-5.111088 -2.391473,-1.879018 -4.802333,-3.766069 -6.909083,-5.969029 z" />
    <path
       style="fill:#000000;fill-rule:evenodd;stroke:#ffffff;stroke-width:0"
       id="path7"
       d="m 149.45221,60.104461 c 4.53504,2.61102 2.64051,1.718223 5.52959,2.983418 0,0 -2.81091,-2.235512 -2.81091,-2.235512 v 0 c -2.44387,-1.198465 -2.08692,-1.07075 0.91172,0.679913 z" />
    <path
       style="fill:#000000;fill-rule:evenodd;stroke:#ffffff;stroke-width:0"
       id="path8"
       d="m 133.81043,120.32671 c 1.6029,1.22578 3.22757,2.42012 4.86718,3.59619 0,0 3.22042,1.27458 3.22042,1.27458 v 0 c -1.4978,-1.09696 -2.99574,-2.19426 -4.41256,-3.39595 z" />
    <path
       style="fill:#000000;fill-rule:evenodd;stroke:#ffffff;stroke-width:0"
       id="path9"
       d="m 84.54137,151.09568 c -0.407422,-0.82122 -0.949034,-1.57081 -1.454698,-2.3326 0,0 -3.40155,-1.4917 -3.40155,-1.4917 v 0 c 0.45569,0.70634 0.950863,1.40402 1.275443,2.1846 z" />
    <path
       style="fill:#000000;fill-rule:evenodd;stroke:#ffffff;stroke-width:0"
       id="path10"
       d="m 87.184996,98.772672 c -0.03045,-0.675212 0.05065,-1.347248 0.11543,-2.017654 0,0 -3.337592,-1.756188 -3.337592,-1.756188 v 0 c -0.110696,0.657992 -0.220964,1.315426 -0.302829,1.977768 z" />
  </g>
  <g
     inkscape:groupmode="layer"
     id="layer2-9"
     inkscape:label="Rune"
     transform="translate(24.660162,-0.48178768)"
     style="filter:url(#filter10)">
    <path
       style="fill:#000000;fill-rule:evenodd;stroke:#ffffff;stroke-width:0"
       id="path1-0"
       d="m 72.214954,33.373033 c 0.595217,2.448809 1.356928,4.85249 2.210895,7.222117 1.260729,3.138012 2.547343,6.266392 4.046014,9.299049 1.454001,2.823662 2.971985,5.647134 4.921333,8.167788 0.442407,0.572058 0.926394,1.110705 1.389591,1.666054 1.783831,2.027989 3.890239,3.725725 6.216247,5.092298 4.669853,2.743634 3.056092,2.010566 6.312694,3.288234 3.532372,1.275757 7.177822,2.202235 10.815082,3.122808 2.49058,0.654143 5.01382,1.172268 7.52017,1.76049 -0.60435,-0.672965 0.76755,0.336571 0.59443,0.216215 -1.1052,-0.768355 -2.16737,-1.602177 -3.31317,-2.308545 -0.12035,-0.07419 -0.28292,-0.0028 -0.4241,0.0046 -0.2816,0.01476 -1.56396,0.124415 -1.75616,0.140454 -2.72314,0.338831 -5.3505,1.148435 -7.73509,2.521768 -0.62537,0.360166 -1.21775,0.774805 -1.82663,1.162208 -3.898292,2.649151 -7.264944,5.965473 -10.534656,9.335371 -2.131148,2.232022 -4.091166,4.632176 -5.844607,7.172483 -1.049874,1.521011 -1.301551,2.005325 -2.243438,3.589838 -2.082868,3.450749 -3.460769,7.237157 -4.775773,11.026887 -1.312101,3.88654 -2.434713,7.83421 -3.429313,11.81292 -0.137666,0.6456 -0.294259,1.28745 -0.412999,1.9368 -0.128452,0.70246 -0.519361,3.43092 -0.624358,4.15711 -0.253659,1.75438 -0.484106,3.50722 -0.682273,5.26866 -0.208646,1.43041 -0.23131,2.90154 -0.588698,4.30862 0.431607,-1.47776 -0.107117,0.0656 3.388812,1.53513 0.14578,0.0613 -0.101486,-0.29963 -0.146431,-0.45125 -0.141655,-0.47786 -0.24648,-0.96627 -0.392798,-1.44273 -0.116194,-0.37836 -0.250912,-0.75079 -0.376367,-1.12618 -1.139671,-2.97777 -2.733831,-5.76344 -4.554524,-8.37485 -0.42087,-0.60365 -0.86981,-1.18724 -1.304716,-1.78086 -2.075691,-2.67412 -4.447201,-5.11667 -6.977806,-7.36259 -1.84118,-1.63404 -2.868419,-2.40049 -4.806376,-3.93236 -5.225335,-4.03543 -10.831753,-7.53928 -16.532135,-10.855837 -3.96159,-2.300819 -7.975491,-4.541869 -12.217656,-6.289793 -1.910461,-0.787178 -2.288789,-0.883169 -4.251182,-1.555372 -3.885925,-1.343583 -7.91518,-2.168451 -11.957643,-2.870552 -0.463973,-0.07549 -0.927944,-0.150974 -1.391917,-0.226462 0,0 2.93239,2.198103 2.93239,2.198103 v 0 c 0.440836,0.06055 0.881671,0.121097 1.322507,0.181644 4.004156,0.63989 7.967951,1.516875 11.810005,2.832018 2.142659,0.751655 4.246898,1.542002 6.316072,2.48136 6.209065,2.818771 -2.184164,-0.933952 4.529654,2.236965 0.04648,0.02196 -0.05098,-0.08928 -0.07647,-0.133924 0.953641,0.549873 1.915097,1.086413 2.860921,1.64962 4.708104,2.80354 9.29023,5.83192 13.652423,9.14936 0.816526,0.64362 1.644854,1.27255 2.449579,1.93086 3.353792,2.74361 6.48585,5.77857 9.159917,9.19484 0.438841,0.58903 0.893696,1.16646 1.316516,1.76709 1.781205,2.53026 3.307567,5.25719 4.357376,8.17302 0.235079,0.81995 0.466722,1.6374 0.630452,2.47527 0.0303,0.15506 -0.05122,0.37258 0.07466,0.46804 3.365566,2.55218 2.671363,3.31122 3.664334,1.98007 0.164966,-1.49243 0.194656,-2.99409 0.304246,-4.49077 0.33682,-3.81172 0.791177,-7.62318 1.606191,-11.36545 0.974024,-3.97485 2.117608,-7.90377 3.409782,-11.78732 1.303651,-3.76667 2.724355,-7.51282 4.731003,-10.971192 0.846284,-1.429067 1.273791,-2.198952 2.204568,-3.57787 1.717568,-2.544532 3.668739,-4.923054 5.774047,-7.155442 3.252452,-3.355054 6.643401,-6.626659 10.544131,-9.228754 1.49539,-0.894186 2.027,-1.285846 3.6018,-1.954389 1.93735,-0.822458 4.00166,-1.254141 6.09286,-1.425475 0.3425,-0.01543 0.68501,-0.03086 1.02751,-0.04629 0.27561,-0.0043 0.55136,-0.0033 0.82683,-0.01304 0.18547,-0.0066 0.68962,0.09248 0.55561,-0.0359 -2.64677,-2.535719 -1.91441,-2.154023 -3.62173,-2.466962 -2.43912,-0.458729 -4.86883,-0.973449 -7.27306,-1.590953 -3.62184,-0.930738 -7.262288,-1.841126 -10.770017,-3.150145 -0.605157,-0.258585 -1.281404,-1.160277 -1.815461,-0.77575 -0.497427,0.358151 2.020948,1.369457 1.575181,0.948751 C 93.846326,65.669716 93.217959,65.466397 92.693862,65.119922 90.958804,63.972879 89.370893,62.634175 87.979859,61.084637 87.516942,60.539281 87.031585,60.012204 86.591098,59.448573 84.654587,56.970684 83.181226,54.167998 81.751695,51.380737 80.268254,48.349162 78.89678,45.264134 77.680909,42.114611 76.861242,39.82855 76.129598,37.499253 75.740098,35.09648 Z" />
    <path
       style="fill:#000000;fill-rule:evenodd;stroke:#ffffff;stroke-width:0"
       id="path2-5"
       d="m 75.731948,28.263038 c 0.526487,0.727387 0.23676,0.327858 0.869647,1.198239 0,0 3.479489,1.511864 3.479489,1.511864 v 0 C 79.518927,30.14627 79.766247,30.530062 79.33011,29.82763 Z" />
    <path
       style="fill:#000000;fill-rule:evenodd;stroke:#ffffff;stroke-width:0"
       id="path3-2"
       d="m 42.860581,52.516534 c 1.080956,0.957226 2.214335,1.853711 3.333097,2.765838 0,0 3.3103,1.334019 3.3103,1.334019 v 0 c -1.024729,-0.853806 -2.063679,-1.694093 -3.037795,-2.606368 z" />
    <path
       style="fill:#000000;fill-rule:evenodd;stroke:#ffffff;stroke-width:0"
       id="path4-2"
       d="m 30.552853,106.65061 c 0.168579,-0.48531 0.07719,-0.22483 0.27495,-0.78115 0,0 -3.39475,-1.8913 -3.39475,-1.8913 v 0 c -0.224645,0.53104 -0.114514,0.28597 -0.326242,0.73706 z" />
    <path
       style="fill:#000000;fill-rule:evenodd;stroke:#ffffff;stroke-width:0"
       id="path5-7"
       d="m 29.246285,59.488956 c 2.134179,2.867364 4.135638,5.828702 6.087036,8.822338 2.274482,3.558662 4.344461,7.272687 5.884809,11.213954 1.032386,2.641547 1.266516,3.690578 2.051381,6.414725 0.931214,3.754221 1.609907,7.59183 1.853321,11.45712 0.152572,2.42274 0.08711,2.991187 0.03005,5.408877 -0.150051,4.56622 -0.937332,9.06736 -1.982029,13.50385 -0.774461,2.98833 -1.638554,5.954 -2.735564,8.84048 -0.8661,2.03168 -1.691809,4.07011 -2.318094,6.18928 -0.269369,1.09332 -0.584676,2.17256 -0.934743,3.2424 0,0 3.425523,1.87666 3.425523,1.87666 v 0 c 0.318008,-1.09428 0.600366,-2.1969 0.821732,-3.31556 0.565034,-2.13102 1.408301,-4.16356 2.196291,-6.21962 0.331991,-0.89112 0.699389,-1.8439 0.986207,-2.75045 0.644443,-2.03689 1.155444,-4.11795 1.670093,-6.18999 0.967216,-4.49461 1.709438,-9.04859 1.843283,-13.65335 0.03999,-1.62505 0.129217,-3.80394 0.02627,-5.428844 -0.05385,-0.850014 -0.180226,-1.694077 -0.29283,-2.538317 -0.406519,-3.047842 -0.925354,-6.088523 -1.722628,-9.060844 -0.71092,-2.512579 -1.069949,-3.995566 -2.001038,-6.43604 -1.498775,-3.928436 -3.567729,-7.612253 -5.731304,-11.204554 -1.824598,-2.883339 -3.703503,-5.730198 -5.555184,-8.595868 z" />
    <path
       style="fill:#000000;fill-rule:evenodd;stroke:#ffffff;stroke-width:0"
       id="path6-3"
       d="m 61.522464,64.555941 c 2.340676,2.243563 4.891484,4.253074 7.45073,6.237891 2.518921,1.903137 5.166132,3.636991 7.908908,5.20021 3.134012,1.786213 5.45872,3.192857 8.638782,4.508495 1.093674,0.452472 2.218668,0.825188 3.328002,1.237782 5.967234,1.926532 12.122464,3.255044 18.321984,4.176125 1.26518,0.18797 2.53605,0.335449 3.80408,0.503176 2.44923,0.246666 4.95935,0.545357 7.42409,0.616271 1.233,0.03547 2.46749,0.01357 3.70044,-0.02336 1.16432,-0.03488 2.33057,-0.07241 3.48925,-0.192032 2.69462,-0.278199 3.51101,-0.574151 6.07077,-1.214509 2.2524,-0.992328 2.62152,-1.045355 4.62394,-2.323986 0.57612,-0.367882 1.16079,-0.734573 1.66834,-1.192448 1.52536,-1.376056 2.4718,-3.237847 3.44327,-5.00624 0.96658,-1.977829 1.87853,-3.981725 2.81433,-5.974352 0,0 -3.2975,-1.853975 -3.2975,-1.853975 v 0 c -0.8157,2.041985 -1.65861,4.075358 -2.57307,6.075071 -0.69119,1.297745 -1.11727,2.223942 -2.02303,3.402333 -0.40388,0.525444 -0.84079,1.030147 -1.32678,1.480733 -0.84302,0.781597 -2.60256,1.929164 -3.57168,2.432108 -0.7986,0.414446 -1.6449,0.72966 -2.46734,1.094491 -2.55978,0.67623 -3.21153,0.945166 -5.9231,1.24219 -4.82572,0.528608 -9.70314,0.141774 -14.50634,-0.395722 -1.2656,-0.170053 -2.53419,-0.319159 -3.79679,-0.510161 -6.207011,-0.938991 -12.375265,-2.284336 -18.336172,-4.26374 -7.271138,-2.797638 0.384667,0.238242 -6.380984,-2.705682 -0.041,-0.01783 -0.0878,0.0649 -0.126877,0.04324 -2.718805,-1.50609 -5.3148,-3.239204 -7.793539,-5.111088 -2.391473,-1.879018 -4.802333,-3.766069 -6.909083,-5.969029 z" />
    <path
       style="fill:#000000;fill-rule:evenodd;stroke:#ffffff;stroke-width:0"
       id="path7-7"
       d="m 125.11039,60.633628 c 4.53504,2.61102 2.64051,1.718223 5.52959,2.983418 0,0 -2.81091,-2.235512 -2.81091,-2.235512 v 0 c -2.44387,-1.198465 -2.08692,-1.07075 0.91172,0.679913 z" />
    <path
       style="fill:#000000;fill-rule:evenodd;stroke:#ffffff;stroke-width:0"
       id="path8-9"
       d="m 109.46861,120.85588 c 1.6029,1.22578 3.22757,2.42012 4.86718,3.59619 0,0 3.22042,1.27458 3.22042,1.27458 v 0 c -1.4978,-1.09696 -2.99574,-2.19426 -4.41256,-3.39595 z" />
    <path
       style="fill:#000000;fill-rule:evenodd;stroke:#ffffff;stroke-width:0"
       id="path9-0"
       d="m 60.199688,151.62485 c -0.407422,-0.82122 -0.949034,-1.57081 -1.454698,-2.3326 0,0 -3.40155,-1.4917 -3.40155,-1.4917 v 0 c 0.45569,0.70634 0.950863,1.40402 1.275443,2.1846 z" />
    <path
       style="fill:#000000;fill-rule:evenodd;stroke:#ffffff;stroke-width:0"
       id="path10-2"
       d="m 62.843314,99.301839 c -0.03045,-0.675212 0.05065,-1.347248 0.11543,-2.017654 0,0 -3.337592,-1.756188 -3.337592,-1.756188 v 0 c -0.110696,0.657992 -0.220964,1.315426 -0.302829,1.977768 z" />
  </g>
</svg>
