<?xml version="1.0" encoding="UTF-8" standalone="no"?>
<!-- Created with Inkscape (http://www.inkscape.org/) -->

<svg
   width="200mm"
   height="200mm"
   viewBox="0 0 200 200"
   version="1.1"
   id="svg1"
   inkscape:version="1.4 (e7c3feb1, 2024-10-09)"
   sodipodi:docname="placeholder_lightning_wind.svg"
   xmlns:inkscape="http://www.inkscape.org/namespaces/inkscape"
   xmlns:sodipodi="http://sodipodi.sourceforge.net/DTD/sodipodi-0.dtd"
   xmlns:xlink="http://www.w3.org/1999/xlink"
   xmlns="http://www.w3.org/2000/svg"
   xmlns:svg="http://www.w3.org/2000/svg">
  <sodipodi:namedview
     id="namedview1"
     pagecolor="#ffffff"
     bordercolor="#000000"
     borderopacity="0.25"
     inkscape:showpageshadow="2"
     inkscape:pageopacity="0.0"
     inkscape:pagecheckerboard="0"
     inkscape:deskcolor="#d1d1d1"
     inkscape:document-units="mm"
     inkscape:zoom="1.2112919"
     inkscape:cx="343.84775"
     inkscape:cy="305.87177"
     inkscape:window-width="1920"
     inkscape:window-height="948"
     inkscape:window-x="1080"
     inkscape:window-y="350"
     inkscape:window-maximized="1"
     inkscape:current-layer="layer2-9" />
  <defs
     id="defs1">
    <linearGradient
       id="linearGradient6"
       inkscape:collect="always">
      <stop
         style="stop-color:#f6d400;stop-opacity:1;"
         offset="0.35019454"
         id="stop6" />
      <stop
         style="stop-color:#e5e5e5;stop-opacity:1;"
         offset="0.56614786"
         id="stop8" />
    </linearGradient>
    <filter
       inkscape:collect="always"
       style="color-interpolation-filters:sRGB"
       id="filter24"
       x="-0.35231003"
       y="-0.35231003"
       width="1.7046201"
       height="1.7046201">
      <feGaussianBlur
         inkscape:collect="always"
         stdDeviation="22.019376"
         id="feGaussianBlur24" />
    </filter>
    <linearGradient
       inkscape:collect="always"
       xlink:href="#linearGradient6"
       id="linearGradient2"
       x1="4.4553719"
       y1="4.67171"
       x2="195.54463"
       y2="196.5717"
       gradientUnits="userSpaceOnUse" />
    <filter
       inkscape:collect="always"
       style="color-interpolation-filters:sRGB"
       id="filter9"
       x="-0.0068932233"
       y="-0.0055363309"
       width="1.0137864"
       height="1.0110727">
      <feGaussianBlur
         inkscape:collect="always"
         stdDeviation="0.25019593"
         id="feGaussianBlur9" />
    </filter>
  </defs>
  <g
     inkscape:label="Rune Base"
     inkscape:groupmode="layer"
     id="layer1"
     style="fill:#ffffff;fill-opacity:1"
     transform="matrix(1.2308231,0,0,1.2308231,-23.370358,-22.794256)"
     sodipodi:insensitive="true">
    <circle
       style="display:inline;mix-blend-mode:normal;fill:url(#linearGradient2);fill-rule:evenodd;stroke-width:0.910445;filter:url(#filter24)"
       id="Rune_Base"
       cx="100"
       cy="100"
       r="75"
       inkscape:label="Base"
       transform="matrix(0.82817713,0,0,0.83466102,19.254642,18.191783)" />
  </g>
  <g
     inkscape:groupmode="layer"
     id="layer2-9"
     inkscape:label="Rune"
     transform="translate(40.87499,3.0732017)">
    <path
       style="fill:#000000;fill-rule:evenodd;stroke:#ffffff;stroke-width:0"
       id="path1-0"
       d="m 62.998811,37.143468 c -0.746207,1.69378 -1.565002,3.35354 -2.382313,5.013751 -1.875198,3.867287 -3.783108,7.718425 -5.593144,11.61692 -1.949378,4.631086 -3.757091,9.321006 -5.3638,14.081728 -1.06323,3.31638 -2.167482,6.626201 -3.025891,10.003816 -0.08102,0.318786 -1.105988,4.756645 -1.18405,5.094041 -0.777507,3.494477 -1.650061,6.966715 -2.486134,10.447393 -0.0029,0.01482 -0.427643,1.750714 -0.418912,1.755582 3.639204,2.028542 2.555753,2.579296 4.100529,1.524736 2.854444,-1.59172 5.78473,-3.040886 8.657936,-4.599726 3.182146,-1.702263 6.399424,-3.356353 9.757947,-4.687787 2.449415,-0.971034 3.3983,-1.240321 5.91163,-2.065753 2.576648,-0.804468 5.185082,-1.501788 7.798877,-2.173605 1.325393,-0.340664 2.641531,-0.68663 3.990993,-0.912788 0.17392,0.04933 0.680717,0.234092 0.521757,0.148 -1.036594,-0.561417 -2.02882,-1.26278 -3.164417,-1.579248 -0.217305,-0.06056 -0.03804,0.452631 -0.10155,0.669092 -0.107693,0.367038 -0.256556,0.721365 -0.409324,1.072046 -0.488722,1.121876 -1.04739,2.211983 -1.565193,3.320738 -0.358735,0.778624 -0.720323,1.55594 -1.076206,2.335871 -0.447603,0.980932 -1.911641,4.217583 -2.316702,5.181672 -1.283173,3.05409 -2.395746,6.176981 -3.52916,9.288403 -1.397569,3.99488 -2.692504,8.02486 -4.132345,12.00497 -0.549788,1.51976 -1.118637,3.03256 -1.676307,4.54945 -1.193671,3.33723 -2.149568,6.75067 -3.092493,10.16492 -0.684146,2.48858 -1.021249,5.04948 -1.467358,7.58642 -0.252661,1.32373 -0.450392,2.65768 -0.618852,3.99455 -0.09025,0.62851 -0.135197,1.25801 -0.148937,1.89175 -0.0013,0.31062 -0.02297,0.62132 -0.02209,0.9319 0,0 3.540836,1.8011 3.540836,1.8011 v 0 c -0.0034,-0.31559 -0.02857,-0.63102 -0.0241,-0.9469 0.0021,-0.63157 0.02164,-1.26381 0.06621,-1.89388 0.115909,-1.35343 0.326618,-2.6953 0.485645,-4.04398 0.343504,-2.5554 0.672087,-5.11695 1.334424,-7.6151 0.856099,-3.44405 1.788229,-6.8733 2.879037,-10.25095 1.827278,-5.57215 3.627834,-11.15323 5.545778,-16.69514 0.376393,-1.04581 0.737803,-2.09714 1.129186,-3.13743 1.734222,-4.609547 3.781441,-9.105278 6.069959,-13.464929 0.350899,-0.618315 0.702379,-1.2363 1.052705,-1.854943 0.39069,-0.689933 0.967607,-1.664155 1.297864,-2.417848 0.11743,-0.26797 0.499667,-0.61836 0.294417,-0.826849 -2.471522,-2.510531 -2.183801,-2.42063 -3.947691,-2.34697 -1.239911,0.347689 -2.456738,0.764204 -3.685701,1.149 -2.526221,0.79098 -5.067684,1.531549 -7.591568,2.330141 -2.106276,0.687255 -3.920344,1.248222 -5.987656,2.045348 -3.404896,1.312881 -6.661684,2.973824 -9.915138,4.616037 -3.001793,1.50172 -6.013754,2.98151 -9.087197,4.332647 -1.650074,0.745051 -0.583935,0.100262 2.727172,2.235888 0.03444,0.02223 -0.111691,0.0208 -0.121484,-0.019 -0.02714,-0.110328 0.02088,-0.226287 0.03335,-0.339217 0.01998,-0.180705 0.04071,-0.361341 0.06397,-0.541652 0.03322,-0.257575 0.07032,-0.514636 0.105474,-0.771954 0.556363,-3.575555 1.346832,-7.106417 2.092695,-10.646018 0.39424,-1.7262 0.755883,-3.358351 1.19258,-5.074793 0.857941,-3.372152 1.890136,-6.697099 2.996515,-9.995141 1.661342,-4.724561 3.39004,-9.430411 5.428152,-14.007927 1.785077,-3.902147 3.738062,-7.720203 5.765072,-11.501967 0.874633,-1.626388 1.785099,-3.234441 2.727756,-4.82187 z" />
    <path
       style="fill:#000000;fill-rule:evenodd;stroke:#ffffff;stroke-width:0"
       id="path2-5"
       d="m 28.999078,63.259552 c 0.285687,-0.07968 0.304914,-0.07951 0.635834,-0.206915 1.120317,-0.431334 0.976992,-0.422529 2.268124,-0.863968 1.508938,-0.515906 1.93244,-0.60415 3.533344,-1.045011 6.205725,-1.60274 12.626514,-1.900108 18.998374,-2.166676 8.280707,-0.04823 16.629645,0.05278 24.821671,1.40839 1.519272,0.25141 3.021457,0.596993 4.532168,0.895488 5.10454,1.229667 10.069953,3.085351 14.601409,5.758722 0.0474,0.02797 -0.0358,0.12972 0.006,0.165021 0.721824,0.603244 1.494651,1.142706 2.241968,1.714058 0.65357,0.60973 1.35549,1.171429 1.96069,1.829189 2.35852,2.563344 4.07733,5.825339 4.81815,9.231923 0.18335,0.843106 0.25058,1.707335 0.37587,2.561003 0.18364,2.545919 0.0633,5.114025 -0.44118,7.62004 -0.16341,0.81177 -0.34869,1.622835 -0.61574,2.406647 -0.74888,2.19796 -1.29231,2.891814 -2.46652,4.904076 -2.88364,4.342631 -6.626115,7.994711 -10.707371,11.205431 -0.833637,0.65582 -1.698271,1.27125 -2.547408,1.90687 -4.655993,3.37519 -9.675012,6.26359 -15.015852,8.41336 -1.068935,0.43026 -2.163426,0.79409 -3.245141,1.19113 -4.264525,1.38818 -8.662979,2.3624 -13.119981,2.87011 -2.521746,0.28726 -3.810552,0.31293 -6.326176,0.43908 -3.731006,0.14442 -7.468039,-0.08 -11.114985,-0.90939 -2.062019,-0.46896 -2.474248,-0.66903 -4.42287,-1.34389 -0.375698,-0.15852 -3.239717,-1.28356 -3.502332,-1.72174 -0.292325,-0.48775 1.030513,0.97185 1.543495,0.72649 0.425169,-0.20336 -0.720807,-0.61413 -1.023964,-0.97499 -0.731311,-0.8705 -0.613429,-0.96131 -0.797563,-2.00661 0.108575,-0.36423 0.155289,-0.75298 0.325723,-1.0927 0.454131,-0.90518 1.253424,-1.64975 2.034919,-2.25618 2.066956,-1.60395 4.339812,-2.569 6.707108,-3.6256 6.129435,-2.45092 12.685982,-3.37358 19.164847,-4.38478 3.666866,-0.5246 1.858727,-0.27614 5.424175,-0.74708 0,0 -2.65498,-1.87363 -2.65498,-1.87363 v 0 c -3.518881,0.51139 -1.732592,0.24476 -5.358672,0.80121 -6.482413,1.05599 -12.996624,2.20298 -19.186461,4.46447 -2.435924,1.00628 -4.916305,1.9599 -7.072982,3.51396 -0.875369,0.63078 -1.731367,1.38283 -2.258959,2.3475 -0.208283,0.38083 -0.287248,0.81924 -0.430874,1.22886 0.04803,0.39145 0.01421,0.80197 0.144089,1.17436 0.258808,0.7421 1.110602,1.72461 1.723033,2.14722 0.554932,0.38292 4.524084,2.90451 6.102755,3.64223 0.580022,0.27105 1.18963,0.47366 1.784445,0.71049 1.913744,0.62135 2.343049,0.81432 4.364921,1.24021 3.630247,0.76468 7.341314,0.93101 11.040512,0.76016 2.281764,-0.14031 4.024717,-0.21654 6.306367,-0.48571 4.458835,-0.52603 8.832393,-1.59418 13.104643,-2.95901 1.086411,-0.40147 2.186004,-0.76891 3.259228,-1.2044 3.253383,-1.32014 6.358928,-2.96982 9.3884,-4.73619 1.031334,-0.60134 2.062318,-1.2048 3.065615,-1.85184 0.907574,-0.58532 1.776148,-1.229 2.664235,-1.84349 1.968208,-1.50365 3.193102,-2.39228 5.0745,-4.02302 1.306231,-1.1322 3.533311,-3.22905 4.700741,-4.5025 1.53896,-1.67872 2.28627,-2.80764 3.62615,-4.640805 1.11084,-1.846614 1.8763,-2.901289 2.59549,-4.937895 0.27969,-0.792028 0.45486,-1.618872 0.61958,-2.442522 0.50673,-2.533716 0.65295,-5.13466 0.47022,-7.70949 -0.111,-0.864624 -0.15622,-1.740268 -0.33301,-2.593875 -0.69132,-3.338004 -2.52218,-6.882148 -4.79764,-9.412811 -0.60928,-0.677614 -1.32617,-1.250127 -1.98925,-1.875192 -0.76692,-0.588928 -1.49181,-1.237059 -2.30076,-1.766781 -2.219124,-1.453156 -5.664953,-3.517752 -8.276188,-4.763273 -3.635389,-1.734021 -7.452808,-3.032921 -11.383013,-3.913931 -4.170696,-0.781039 -4.993312,-1.019172 -9.285988,-1.471073 -6.678356,-0.703045 -13.408705,-0.697791 -20.114226,-0.796263 -1.557782,7.94e-4 -3.116331,-0.04652 -4.673346,0.0024 -1.120251,0.03518 -2.235856,0.160764 -3.35313,0.249658 -3.887682,0.309322 -7.793646,0.643845 -11.594568,1.562825 -0.669163,0.163632 -1.341417,0.315098 -2.007487,0.490895 -1.639421,0.432697 -3.245495,0.987081 -4.900578,1.36172 z" />
    <path
       style="fill:#000000;fill-rule:evenodd;stroke:#ffffff;stroke-width:0"
       id="path3-2"
       d="m 68.195204,67.931387 c -0.443095,0.616087 -0.197414,0.266702 -0.73061,1.052655 0,0 3.249012,1.929884 3.249012,1.929884 v 0 c 0.606454,-0.720563 0.318625,-0.406752 0.849437,-0.954127 z" />
    <path
       style="fill:#000000;fill-rule:evenodd;stroke:#ffffff;stroke-width:0"
       id="path4-2"
       d="m 74.507951,52.083107 c 2.493682,0.461695 4.996844,0.89893 7.472873,1.449872 1.073855,0.238945 2.139209,0.514601 3.20881,0.771901 0,0 -2.419705,-1.849179 -2.419705,-1.849179 v 0 C 81.665591,52.176 80.564533,51.882995 79.456905,51.616599 76.769014,50.970132 74.055174,50.429065 71.380986,49.724162 Z" />
    <path
       style="fill:#000000;fill-rule:evenodd;stroke:#ffffff;stroke-width:0"
       id="path5-7"
       d="m 26.865311,96.785593 c 1.141132,0.08431 2.243199,0.423474 3.342754,0.71301 0,0 -2.781636,-2.136743 -2.781636,-2.136743 v 0 c -1.230037,-0.348274 -2.46431,-0.75701 -3.743097,-0.888111 z" />
    <path
       style="fill:#000000;fill-rule:evenodd;stroke:#ffffff;stroke-width:0"
       id="path6-3"
       d="m 84.1597,129.97702 c 1.447064,-0.66627 2.956055,-1.21227 4.378356,-1.93217 0.758787,-0.38405 1.490221,-0.8199 2.235328,-1.22986 0,0 -2.729025,-1.79298 -2.729025,-1.79298 v 0 c -2.290728,1.07456 -4.587573,2.1855 -7.059792,2.78662 z" />
    <path
       style="fill:#000000;fill-rule:evenodd;stroke:#ffffff;stroke-width:0"
       id="path7-7"
       d="m 96.939168,85.621934 c 0.18233,-1.341605 0.692847,-2.604635 1.172394,-3.860229 0,0 -3.130682,-1.751743 -3.130682,-1.751743 v 0 c -0.540487,1.233395 -1.103934,2.462753 -1.504841,3.750935 z" />
    <path
       style="fill:#000000;fill-rule:evenodd;stroke:#ffffff;stroke-width:0"
       id="path8-9"
       d="m 98.750129,50.477441 c 2.621721,1.812216 5.214331,3.664712 7.776841,5.559531 0,0 3.02143,1.200377 3.02143,1.200377 v 0 c -2.37298,-1.779746 -4.78563,-3.506261 -7.13742,-5.313889 z" />
    <path
       style="fill:#000000;fill-rule:evenodd;stroke:#ffffff;stroke-width:0"
       id="path9-0"
       d="m 27.603674,73.495257 c -0.557536,0.718658 -0.253138,0.322045 -0.910463,1.191932 0,0 3.215957,1.930312 3.215957,1.930312 v 0 c 0.720011,-0.787413 0.36412,-0.456596 1.041442,-1.019945 z" />
  </g>
  <g
     inkscape:groupmode="layer"
     id="layer2"
     inkscape:label="Rune"
     style="filter:url(#filter9)">
    <path
       style="fill:#000000;fill-rule:evenodd;stroke:#ffffff;stroke-width:0"
       id="path1"
       d="m 103.21552,39.789303 c -0.74621,1.69378 -1.56501,3.35354 -2.38233,5.013751 -1.875194,3.867287 -3.783112,7.718425 -5.593143,11.61692 -1.949378,4.631086 -3.757096,9.321006 -5.363797,14.081728 -1.063234,3.31638 -2.167488,6.626201 -3.025895,10.003816 -0.081,0.318786 -1.105984,4.756645 -1.184051,5.094041 -0.777507,3.494477 -1.650061,6.966715 -2.486138,10.447393 -0.003,0.01482 -0.427637,1.750714 -0.418907,1.755582 3.639199,2.028542 2.555755,2.579296 4.100526,1.524736 2.854445,-1.59172 5.784737,-3.040886 8.657942,-4.599726 3.182142,-1.702263 6.399433,-3.356353 9.757973,-4.687787 2.44943,-0.971034 3.39832,-1.240321 5.91166,-2.065753 2.57667,-0.804468 5.18511,-1.501788 7.79892,-2.173605 1.3254,-0.340664 2.64155,-0.68663 3.99102,-0.912788 0.17392,0.04933 0.68072,0.234092 0.52176,0.148 -1.0366,-0.561417 -2.02883,-1.26278 -3.16444,-1.579248 -0.2173,-0.06056 -0.038,0.452631 -0.10155,0.669092 -0.10769,0.367038 -0.25655,0.721365 -0.40932,1.072046 -0.48873,1.121876 -1.0474,2.211983 -1.5652,3.320738 -0.35874,0.778624 -0.72033,1.55594 -1.07622,2.335871 -0.4476,0.980932 -1.91165,4.217583 -2.31671,5.181672 -1.28318,3.05409 -2.39576,6.176988 -3.52918,9.288418 -1.39758,3.99488 -2.69252,8.02486 -4.13237,12.00497 -0.54979,1.51976 -1.11864,3.03256 -1.67632,4.54945 -1.19367,3.33723 -2.14958,6.75067 -3.09251,10.16492 -0.68415,2.48858 -1.02125,5.04948 -1.46736,7.58642 -0.25267,1.32373 -0.4504,2.65768 -0.61886,3.99455 -0.0903,0.62851 -0.1352,1.25801 -0.14894,1.89175 -10e-4,0.31062 -0.023,0.62132 -0.0221,0.9319 0,0 3.54086,1.8011 3.54086,1.8011 v 0 c -0.003,-0.31559 -0.0286,-0.63102 -0.0241,-0.9469 0.002,-0.63157 0.0216,-1.26381 0.0662,-1.89388 0.11591,-1.35343 0.32662,-2.6953 0.48565,-4.04398 0.3435,-2.5554 0.67209,-5.11695 1.33443,-7.6151 0.8561,-3.44405 1.78824,-6.8733 2.87905,-10.25095 1.82729,-5.57215 3.62786,-11.15323 5.54581,-16.69514 0.3764,-1.04581 0.73781,-2.09714 1.12919,-3.13743 1.73423,-4.609562 3.78147,-9.105293 6.07,-13.464944 0.3509,-0.618315 0.70238,-1.2363 1.05271,-1.854943 0.39069,-0.689933 0.96761,-1.664155 1.29787,-2.417848 0.11743,-0.26797 0.49967,-0.61836 0.29442,-0.826849 -2.47154,-2.510531 -2.18382,-2.42063 -3.94772,-2.34697 -1.23991,0.347689 -2.45675,0.764204 -3.68572,1.149 -2.52623,0.79098 -5.06771,1.531549 -7.59161,2.330141 -2.10629,0.687255 -3.92037,1.248222 -5.98769,2.045348 -3.404904,1.312881 -6.661696,2.973824 -9.915148,4.616037 -3.001792,1.50172 -6.013754,2.98151 -9.087199,4.332647 -1.650073,0.745051 -0.583934,0.100262 2.727175,2.235888 0.0344,0.02223 -0.11169,0.0208 -0.12149,-0.019 -0.0271,-0.110328 0.0209,-0.226287 0.0334,-0.339217 0.02,-0.180705 0.0407,-0.361341 0.064,-0.541652 0.0332,-0.257575 0.0703,-0.514636 0.10548,-0.771954 0.556357,-3.575555 1.346834,-7.106417 2.092688,-10.646018 0.394247,-1.7262 0.755887,-3.358351 1.192584,-5.074793 0.857944,-3.372152 1.890138,-6.697099 2.996512,-9.995141 1.661341,-4.724561 3.390042,-9.430411 5.42816,-14.007927 1.785071,-3.902147 3.738068,-7.720203 5.765088,-11.501967 0.87464,-1.626388 1.78511,-3.234441 2.72777,-4.82187 z" />
    <path
       style="fill:#000000;fill-rule:evenodd;stroke:#ffffff;stroke-width:0"
       id="path2"
       d="m 69.21577,65.905387 c 0.285687,-0.07968 0.304914,-0.07951 0.635834,-0.206915 1.120317,-0.431334 0.976992,-0.422529 2.268124,-0.863968 1.508938,-0.515906 1.93244,-0.60415 3.533344,-1.045011 6.205725,-1.60274 12.626517,-1.900108 18.998371,-2.166676 8.280727,-0.04823 16.629707,0.05278 24.821777,1.40839 1.51929,0.25141 3.02148,0.596993 4.5322,0.895488 5.10457,1.229667 10.07001,3.085351 14.60149,5.758722 0.0474,0.02797 -0.0358,0.12972 0.006,0.165021 0.72183,0.603244 1.49466,1.142706 2.24198,1.714058 0.65357,0.60973 1.35549,1.171429 1.96069,1.829189 2.35852,2.563344 4.07733,5.825339 4.81815,9.231923 0.18335,0.843106 0.25058,1.707335 0.37587,2.561003 0.18364,2.545919 0.0633,5.114025 -0.44118,7.62004 -0.16341,0.81177 -0.34869,1.622835 -0.61574,2.406647 -0.74888,2.19796 -1.29231,2.891814 -2.46652,4.904072 -2.88364,4.34265 -6.62613,7.99473 -10.70741,11.20545 -0.83364,0.65582 -1.69828,1.27125 -2.54742,1.90687 -4.65602,3.37519 -9.67507,6.26359 -15.01594,8.41336 -1.06894,0.43026 -2.16344,0.79409 -3.24516,1.19113 -4.26455,1.38818 -8.66303,2.3624 -13.120047,2.87011 -2.521755,0.28726 -3.810559,0.31293 -6.326184,0.43908 -3.730999,0.14442 -7.468038,-0.08 -11.114977,-0.90939 -2.062023,-0.46896 -2.474252,-0.66903 -4.422874,-1.34389 -0.375698,-0.15852 -3.239717,-1.28356 -3.502332,-1.72174 -0.292325,-0.48775 1.030513,0.97185 1.543495,0.72649 0.425169,-0.20336 -0.720807,-0.61413 -1.023964,-0.97499 -0.731311,-0.8705 -0.613429,-0.96131 -0.797563,-2.00661 0.108575,-0.36423 0.155289,-0.75298 0.325723,-1.0927 0.454131,-0.90518 1.253424,-1.64975 2.034919,-2.25618 2.066956,-1.60395 4.339812,-2.569 6.70711,-3.6256 6.129437,-2.45092 12.685978,-3.37358 19.164854,-4.38478 3.66689,-0.5246 1.85874,-0.27614 5.42421,-0.74708 0,0 -2.655,-1.87363 -2.655,-1.87363 v 0 c -3.5189,0.51139 -1.7326,0.24476 -5.358697,0.80121 -6.482414,1.05599 -12.996628,2.20298 -19.18646,4.46447 -2.435924,1.00628 -4.916305,1.9599 -7.072982,3.51396 -0.875369,0.63078 -1.731367,1.38283 -2.258959,2.3475 -0.208283,0.38083 -0.287248,0.81924 -0.430874,1.22886 0.04803,0.39145 0.01421,0.80197 0.144089,1.17436 0.258808,0.7421 1.110602,1.72461 1.723033,2.14722 0.554932,0.38292 4.524084,2.90451 6.102755,3.64223 0.580022,0.27105 1.18963,0.47366 1.784445,0.71049 1.913739,0.62135 2.343049,0.81432 4.364917,1.24021 3.630249,0.76468 7.341318,0.93101 11.040517,0.76016 2.281758,-0.14031 4.024716,-0.21654 6.306376,-0.48571 4.45886,-0.52603 8.83245,-1.59418 13.10472,-2.95901 1.08642,-0.40147 2.18602,-0.76891 3.25925,-1.2044 3.2534,-1.32014 6.35896,-2.96982 9.38845,-4.73619 1.03134,-0.60134 2.06233,-1.2048 3.06563,-1.85184 0.90758,-0.58532 1.77616,-1.229 2.66425,-1.84349 1.96822,-1.50365 3.19312,-2.39228 5.07453,-4.02302 1.30624,-1.1322 3.53332,-3.22905 4.70075,-4.5025 1.53896,-1.67872 2.28627,-2.80764 3.62615,-4.64081 1.11084,-1.846624 1.8763,-2.901299 2.59549,-4.937905 0.27969,-0.792028 0.45486,-1.618872 0.61958,-2.442522 0.50673,-2.533716 0.65295,-5.13466 0.47022,-7.70949 -0.111,-0.864624 -0.15622,-1.740268 -0.33301,-2.593875 -0.69132,-3.338004 -2.52218,-6.882148 -4.79764,-9.412811 -0.60928,-0.677614 -1.32617,-1.250127 -1.98925,-1.875192 -0.76692,-0.588928 -1.49181,-1.237059 -2.30076,-1.766781 -2.21913,-1.453156 -5.66498,-3.517752 -8.27623,-4.763273 -3.63541,-1.734021 -7.45285,-3.032921 -11.38308,-3.913931 -4.17072,-0.781039 -4.99334,-1.019172 -9.28604,-1.471073 -6.67839,-0.703045 -13.408774,-0.697791 -20.114295,-0.796263 -1.557781,7.94e-4 -3.116332,-0.04652 -4.673343,0.0024 -1.120254,0.03518 -2.235858,0.160764 -3.353132,0.249658 -3.887681,0.309322 -7.793645,0.643845 -11.594567,1.562825 -0.669163,0.163632 -1.341417,0.315098 -2.007487,0.490895 -1.639421,0.432697 -3.245495,0.987081 -4.900578,1.36172 z" />
    <path
       style="fill:#000000;fill-rule:evenodd;stroke:#ffffff;stroke-width:0"
       id="path3"
       d="m 108.41194,70.577222 c -0.44309,0.616087 -0.19741,0.266702 -0.73061,1.052655 0,0 3.24903,1.929884 3.24903,1.929884 v 0 c 0.60645,-0.720563 0.31863,-0.406752 0.84944,-0.954127 z" />
    <path
       style="fill:#000000;fill-rule:evenodd;stroke:#ffffff;stroke-width:0"
       id="path4"
       d="m 114.72472,54.728942 c 2.4937,0.461695 4.99688,0.89893 7.47292,1.449872 1.07386,0.238945 2.13922,0.514601 3.20883,0.771901 0,0 -2.41972,-1.849179 -2.41972,-1.849179 v 0 c -1.10434,-0.279701 -2.20541,-0.572706 -3.31304,-0.839102 -2.68791,-0.646467 -5.40177,-1.187534 -8.07597,-1.892437 z" />
    <path
       style="fill:#000000;fill-rule:evenodd;stroke:#ffffff;stroke-width:0"
       id="path5"
       d="m 67.082003,99.431428 c 1.141132,0.08431 2.243199,0.423474 3.342754,0.713012 0,0 -2.781636,-2.136745 -2.781636,-2.136745 v 0 c -1.230037,-0.348274 -2.46431,-0.75701 -3.743097,-0.888111 z" />
    <path
       style="fill:#000000;fill-rule:evenodd;stroke:#ffffff;stroke-width:0"
       id="path6"
       d="m 124.37653,132.62287 c 1.44707,-0.66627 2.95607,-1.21227 4.37838,-1.93217 0.75879,-0.38405 1.49023,-0.8199 2.23534,-1.22986 0,0 -2.72904,-1.79298 -2.72904,-1.79298 v 0 c -2.29074,1.07456 -4.5876,2.1855 -7.05983,2.78662 z" />
    <path
       style="fill:#000000;fill-rule:evenodd;stroke:#ffffff;stroke-width:0"
       id="path7"
       d="m 137.15607,88.267769 c 0.18233,-1.341605 0.69285,-2.604635 1.1724,-3.860229 0,0 -3.1307,-1.751743 -3.1307,-1.751743 v 0 c -0.54049,1.233395 -1.10394,2.462753 -1.50485,3.750935 z" />
    <path
       style="fill:#000000;fill-rule:evenodd;stroke:#ffffff;stroke-width:0"
       id="path8"
       d="m 138.96704,53.123276 c 2.62173,1.812216 5.21434,3.664712 7.77685,5.559531 0,0 3.02143,1.200377 3.02143,1.200377 v 0 c -2.37298,-1.779746 -4.78563,-3.506261 -7.13742,-5.313889 z" />
    <path
       style="fill:#000000;fill-rule:evenodd;stroke:#ffffff;stroke-width:0"
       id="path9"
       d="m 67.820366,76.141092 c -0.557536,0.718658 -0.253138,0.322045 -0.910463,1.191932 0,0 3.215957,1.930312 3.215957,1.930312 v 0 c 0.720011,-0.787413 0.36412,-0.456596 1.041442,-1.019945 z" />
  </g>
</svg>
