<?xml version="1.0" encoding="UTF-8" standalone="no"?>
<!-- Created with Inkscape (http://www.inkscape.org/) -->

<svg
   width="200mm"
   height="200mm"
   viewBox="0 0 200 200"
   version="1.1"
   id="svg1"
   inkscape:version="1.4 (e7c3feb1, 2024-10-09)"
   sodipodi:docname="placeholder_fire_void.svg"
   xmlns:inkscape="http://www.inkscape.org/namespaces/inkscape"
   xmlns:sodipodi="http://sodipodi.sourceforge.net/DTD/sodipodi-0.dtd"
   xmlns:xlink="http://www.w3.org/1999/xlink"
   xmlns="http://www.w3.org/2000/svg"
   xmlns:svg="http://www.w3.org/2000/svg">
  <sodipodi:namedview
     id="namedview1"
     pagecolor="#ffffff"
     bordercolor="#000000"
     borderopacity="0.25"
     inkscape:showpageshadow="2"
     inkscape:pageopacity="0.0"
     inkscape:pagecheckerboard="0"
     inkscape:deskcolor="#d1d1d1"
     inkscape:document-units="mm"
     inkscape:zoom="1.2358424"
     inkscape:cx="477.81173"
     inkscape:cy="400.94109"
     inkscape:window-width="1920"
     inkscape:window-height="948"
     inkscape:window-x="1080"
     inkscape:window-y="350"
     inkscape:window-maximized="1"
     inkscape:current-layer="g25" />
  <defs
     id="defs1">
    <linearGradient
       id="linearGradient6"
       inkscape:collect="always">
      <stop
         style="stop-color:#f60000;stop-opacity:1;"
         offset="0.35019454"
         id="stop6" />
      <stop
         style="stop-color:#620187;stop-opacity:1;"
         offset="0.56614786"
         id="stop8" />
    </linearGradient>
    <filter
       inkscape:collect="always"
       style="color-interpolation-filters:sRGB"
       id="filter24"
       x="-0.35231003"
       y="-0.35231003"
       width="1.7046201"
       height="1.7046201">
      <feGaussianBlur
         inkscape:collect="always"
         stdDeviation="22.019376"
         id="feGaussianBlur24" />
    </filter>
    <linearGradient
       inkscape:collect="always"
       xlink:href="#linearGradient6"
       id="linearGradient2"
       x1="4.4553719"
       y1="4.67171"
       x2="195.54463"
       y2="196.5717"
       gradientUnits="userSpaceOnUse" />
    <filter
       inkscape:collect="always"
       style="color-interpolation-filters:sRGB"
       id="filter25"
       x="-0.020579352"
       y="-0.02221075"
       width="1.0411587"
       height="1.0444215">
      <feGaussianBlur
         inkscape:collect="always"
         stdDeviation="0.98480158"
         id="feGaussianBlur25" />
    </filter>
  </defs>
  <g
     inkscape:label="Rune Base"
     inkscape:groupmode="layer"
     id="layer1"
     style="fill:#ffffff;fill-opacity:1"
     transform="matrix(1.2308231,0,0,1.2308231,-23.370358,-22.794256)">
    <circle
       style="display:inline;mix-blend-mode:normal;fill:url(#linearGradient2);fill-rule:evenodd;stroke-width:0.910445;filter:url(#filter24)"
       id="Rune_Base"
       cx="100"
       cy="100"
       r="75"
       inkscape:label="Base"
       transform="matrix(0.82817713,0,0,0.83466102,19.254642,18.191783)" />
  </g>
  <g
     inkscape:groupmode="layer"
     id="g25"
     inkscape:label="Rune"
     style="filter:url(#filter25)">
    <path
       style="fill:#000000;fill-rule:evenodd;stroke:#ffffff;stroke-width:0"
       id="path14"
       d="m 48.187813,125.64609 c 5.715998,3.40485 3.043513,1.80436 1.874375,0.93733 -0.772872,-0.57316 -1.516579,-1.18219 -2.258934,-1.79384 -1.328393,-1.10402 -2.4966,-2.41654 -3.246503,-3.98614 -0.145865,-0.30531 -0.257564,-0.62579 -0.386345,-0.93868 -0.745135,-2.13164 -0.741833,-4.39693 -0.580943,-6.62075 0.310894,-2.09467 0.879883,-4.22298 2.076109,-6.00235 0.244954,-0.36437 0.540409,-0.69213 0.810612,-1.03819 0.328692,-0.29385 0.628631,-0.62344 0.98607,-0.88155 2.350154,-1.6971 5.439601,-1.68623 8.203973,-1.70602 5.119465,0.10318 10.13551,1.24876 15.073606,2.51057 6.497515,1.82125 12.973055,3.71874 19.484146,5.49174 6.824702,1.88597 13.762421,3.29991 20.717951,4.6012 3.88197,0.58907 7.76052,1.31182 11.68359,1.57929 2.1527,0.14676 2.65738,0.1013 4.77245,0.0788 2.74924,-0.2365 5.5446,-0.5754 8.18722,-1.41502 1.34928,-0.42869 2.06692,-0.80471 3.34406,-1.39096 1.44538,-0.73717 2.89122,-1.53754 4.1417,-2.5846 0.64273,-0.53818 1.75261,-1.67335 2.29626,-2.30782 0.34467,-0.40223 0.65335,-0.83395 0.98002,-1.25093 0.2741,-0.41893 0.57547,-0.82123 0.82229,-1.25678 0.80114,-1.41371 1.50853,-3.51006 1.75745,-5.12402 0.0631,-0.40933 0.0732,-0.8251 0.10974,-1.23765 -0.0816,-0.46173 -0.11376,-0.93499 -0.2448,-1.385186 -0.83788,-2.878436 -3.14663,-4.955045 -5.3043,-6.871652 -3.29184,-2.670979 -7.0419,-4.740833 -10.80065,-6.669413 -1.46157,-0.749916 -4.16136,-1.798058 -5.67083,-2.406941 -5.18448,-2.034617 -10.54886,-3.567959 -15.93912,-4.948319 -1.40545,-0.351888 -2.81368,-0.692428 -4.22254,-1.030359 0,0 2.94216,2.235964 2.94216,2.235964 v 0 c 1.32144,0.258604 2.64107,0.526796 3.95186,0.835883 5.32355,1.262155 10.58739,2.791626 15.67973,4.805746 0.9664,0.395602 1.94145,0.770705 2.8992,1.186812 0.95061,0.413004 1.86201,0.915644 2.82458,1.299948 0.11744,0.04689 -0.37121,-0.336579 -0.26015,-0.276106 1.9168,1.043782 3.71178,2.326754 5.42188,3.675767 2.10308,1.833173 4.38111,3.824591 5.24417,6.589183 0.12977,0.415703 0.16795,0.854633 0.25194,1.281948 -0.0283,0.399505 -0.0315,0.801595 -0.085,1.198525 -0.0546,0.40496 -0.1456,0.80451 -0.23841,1.20245 -0.42339,1.81515 -1.0725,3.56566 -2.17375,5.0861 -0.31684,0.41019 -0.61348,0.83681 -0.95052,1.23057 -1.74241,2.03563 -3.93114,3.6259 -6.32849,4.80192 -1.45531,0.66863 -1.7548,0.85813 -3.29641,1.35359 -2.59642,0.83447 -5.31705,1.24457 -8.03147,1.42136 -2.14804,0.04 -2.47935,0.0883 -4.67478,-0.0497 -3.85919,-0.24255 -7.68556,-0.86716 -11.49898,-1.47743 -6.88279,-1.25238 -13.73386,-2.6944 -20.502888,-4.46768 -1.330254,-0.36148 -2.664452,-0.70874 -3.990758,-1.08444 -5.301226,-1.50168 -10.517272,-3.29111 -15.851706,-4.67501 -3.518429,-0.87668 -7.049254,-1.65279 -10.642893,-2.1589 -0.862222,-0.12143 -1.725433,-0.24178 -2.592965,-0.31635 -0.678873,-0.0584 -1.361651,-0.0547 -2.042477,-0.0821 -2.87532,0.0308 -6.075699,0.0209 -8.503875,1.81089 -0.371385,0.27378 -0.681294,0.62239 -1.02194,0.93358 -0.278365,0.35999 -0.580176,0.70302 -0.835099,1.07998 -1.235239,1.82655 -1.825794,3.9783 -2.18494,6.12842 -0.179403,2.25198 -0.262715,4.57048 0.456272,6.7436 0.122639,0.3259 0.225512,0.65995 0.367921,0.97772 0.720207,1.60703 1.857812,2.98102 3.189915,4.11646 2.190332,1.84394 4.220397,3.47505 6.894901,4.70615 z" />
    <path
       style="fill:#000000;fill-rule:evenodd;stroke:#ffffff;stroke-width:0"
       id="path15"
       d="m 51.380387,68.931599 c 2.003811,2.057516 4.307004,3.805115 6.563664,5.572746 3.224096,2.573692 6.780781,4.647306 10.384459,6.637499 1.240232,0.68494 2.92907,1.438225 4.213045,2.032095 2.159341,1.007322 4.405506,1.795145 6.651871,2.578809 2.591289,0.903994 5.184881,1.773143 7.804753,2.590927 3.390239,1.019527 6.82181,1.904371 10.318901,2.472553 2.002171,0.325297 3.42267,0.465603 5.43645,0.697902 5.0804,0.575013 10.19831,0.563729 15.30281,0.498895 3.02476,-0.04683 6.05194,-0.283416 9.04475,-0.730543 1.00398,-0.149998 2.07843,-0.368874 3.07947,-0.563716 1.24395,-0.310714 2.49552,-0.573342 3.75697,-0.800722 0,0 -3.06317,-2.140656 -3.06317,-2.140656 v 0 c -1.23184,0.235812 -2.44734,0.51004 -3.64347,0.893249 -1.17943,0.284477 -1.6774,0.421447 -2.92243,0.642511 -2.93501,0.521132 -5.9155,0.733261 -8.89326,0.786591 -5.07634,0.07692 -10.16401,0.05155 -15.21828,-0.488662 -2.476102,-0.289729 -2.981506,-0.316426 -5.451791,-0.736981 -3.46787,-0.590391 -6.879685,-1.455401 -10.247363,-2.466229 -4.915945,-1.559467 -9.821111,-3.203966 -14.542209,-5.290589 -0.705924,-0.330497 -1.417629,-0.648912 -2.11777,-0.991489 -0.699751,-0.342387 -1.369909,-0.745567 -2.081281,-1.063099 -0.289978,-0.129437 1.078447,0.670891 0.812805,0.496896 -1.862889,-1.220208 -3.771048,-2.378269 -5.493064,-3.801195 -2.096292,-1.657191 -4.245851,-3.306577 -6.062388,-5.274434 z" />
    <path
       style="fill:#000000;fill-rule:evenodd;stroke:#ffffff;stroke-width:0"
       id="path16"
       d="m 115.29972,60.639639 c -1.04881,2.232041 -2.11873,4.453387 -3.25294,6.643518 -0.66054,1.39768 -1.05218,2.13836 -1.57432,3.619347 -0.26521,0.752252 -0.48814,1.518946 -0.71205,2.284505 -0.74721,2.554676 -1.34614,5.133596 -1.90236,7.734982 -0.17412,0.983229 -0.35668,1.965 -0.52238,2.949686 -0.42888,2.54871 -0.57745,3.469143 -0.8215,6.059258 -0.29635,3.145242 -0.39676,6.290976 -0.46677,9.447331 -0.006,1.015294 -0.0213,2.030574 -0.0185,3.045874 0.003,0.96082 -0.007,1.92233 0.035,2.88225 0.16655,3.82972 0.74749,7.62417 1.39726,11.39571 0.10981,0.53078 0.77902,3.88878 0.99977,4.50186 0.40372,1.12122 0.92964,2.19521 1.43513,3.27438 1.03466,2.20892 2.5322,5.10323 3.75119,7.21247 0.65697,1.13677 1.37306,2.23833 2.0596,3.3575 2.27454,3.39136 4.70275,6.73703 7.76099,9.47478 1.37725,1.23292 1.91734,1.54008 3.40301,2.56569 0.51185,0.31133 1.01404,0.63912 1.53554,0.93399 1.50427,0.85055 2.99797,1.72306 4.54069,2.50167 0.56162,0.28345 1.16851,0.46728 1.76097,0.67878 1.16881,0.41725 2.56874,0.84969 3.77419,1.14191 0.68219,0.16538 1.37359,0.29018 2.06039,0.43528 4.09965,0.70091 8.24924,1.06836 12.39749,1.33022 1.54012,0.0835 0.82426,0.0481 2.14747,0.10894 0,0 -3.02251,-2.20433 -3.02251,-2.20433 v 0 c -1.21302,0.0153 -0.55371,0.0125 -1.97795,0.002 -4.10013,-0.12218 -8.19254,-0.52177 -12.22704,-1.27597 -0.69322,-0.1582 -1.39084,-0.29828 -2.07967,-0.47461 -1.21423,-0.31081 -2.5982,-0.74409 -3.77201,-1.1857 -0.5987,-0.22524 -1.20058,-1.01043 -1.77506,-0.72913 -0.49992,0.24479 1.94966,0.98473 1.39755,0.91398 -0.6155,-0.0789 -1.07093,-0.62716 -1.6064,-0.94074 -1.53869,-1.01978 -2.11823,-1.33991 -3.55552,-2.56814 -3.20754,-2.74099 -5.80579,-6.10134 -8.1777,-9.56759 -0.69999,-1.11935 -1.43542,-2.21731 -2.09998,-3.35805 -1.21022,-2.07734 -2.65428,-4.87513 -3.58923,-7.10221 -1.03336,-2.4615 -1.70947,-5.02288 -2.26649,-7.62617 -0.51947,-2.78326 -1.01399,-5.56652 -1.27403,-8.38918 -0.18056,-1.95995 -0.24668,-3.91834 -0.27711,-5.88524 -0.0157,-1.0178 -0.008,-2.03583 -0.0119,-3.05375 0.0493,-2.036044 0.0825,-4.226088 0.21023,-6.25999 0.25527,-4.063161 0.79792,-8.109016 1.68753,-12.082925 1.02441,-4.603518 2.13072,-9.245447 4.39713,-13.42422 1.11602,-2.18512 2.27869,-4.358924 3.64399,-6.400261 z" />
    <path
       style="fill:#000000;fill-rule:evenodd;stroke:#ffffff;stroke-width:0"
       id="path17"
       d="m 102.24416,58.673843 c -0.3388,0.562092 -0.65574,1.13619 -0.97277,1.710706 0,0 3.22872,1.871554 3.22872,1.871554 v 0 c 0.35811,-0.548627 0.71189,-1.096007 1.14778,-1.587775 z" />
    <path
       style="fill:#000000;fill-rule:evenodd;stroke:#ffffff;stroke-width:0"
       id="path18"
       d="m 84.464034,58.770323 c -0.563946,0.527852 -1.147373,1.095714 -1.548817,1.763337 -0.168839,0.280787 -0.291831,0.586703 -0.437743,0.880057 0,0 3.22702,1.846676 3.22702,1.846676 v 0 c 0.148833,-0.265565 0.276193,-0.544365 0.446503,-0.796693 0.419404,-0.621389 1.009062,-1.161769 1.635394,-1.566105 z" />
    <path
       style="fill:#000000;fill-rule:evenodd;stroke:#ffffff;stroke-width:0"
       id="path19"
       d="m 68.840021,53.851312 c 2.359083,1.98487 5.238464,3.165988 8.078703,4.251978 0,0 -2.692614,-2.115372 -2.692614,-2.115372 v 0 c -0.607725,-0.247177 -1.223566,-0.475266 -1.823173,-0.741532 -0.535043,-0.237593 -2.023197,-1.150369 -1.578869,-0.769197 0.46727,0.400852 3.301423,1.969119 1.61785,0.890934 z" />
    <path
       style="fill:#000000;fill-rule:evenodd;stroke:#ffffff;stroke-width:0"
       id="path20"
       d="m 79.58025,140.04054 c 0.516374,-0.91569 1.125778,-1.77278 1.726395,-2.63368 0,0 -3.115466,-1.8406 -3.115466,-1.8406 v 0 c -0.638447,0.86019 -1.284404,1.71232 -1.982488,2.52569 z" />
    <circle
       id="circle20"
       style="fill:#000000;stroke:#ffffff;stroke-width:0.264583"
       cx="73.005196"
       cy="89.06205"
       r="0" />
    <path
       style="fill:#000000;fill-rule:evenodd;stroke:#ffffff;stroke-width:0"
       id="path21"
       d="m 46.375351,92.861198 c 0.800005,0.187042 0.364146,0.08994 1.308727,0.286078 0,0 -2.99294,-2.278682 -2.99294,-2.278682 v 0 c -1.015262,-0.250933 -0.535093,-0.128558 -1.441035,-0.365048 z" />
    <path
       style="fill:#000000;fill-rule:evenodd;stroke:#ffffff;stroke-width:0"
       id="path22"
       d="m 125.22494,95.881908 c 0.64702,1.121339 1.31546,2.227387 2.01222,3.319111 0,0 3.31944,1.461471 3.31944,1.461471 v 0 c -0.64138,-1.018786 -1.30359,-2.038424 -1.71538,-3.177794 z" />
    <path
       style="fill:#000000;fill-rule:evenodd;stroke:#ffffff;stroke-width:0"
       id="path23"
       d="m 144.30648,71.169884 c 0.44477,1.271413 0.14933,0.536657 0.97328,2.167265 0,0 3.24641,1.478783 3.24641,1.478783 v 0 c -0.62681,-1.465514 -0.42203,-0.81143 -0.70944,-1.929905 z" />
    <path
       style="fill:#000000;fill-rule:evenodd;stroke:#ffffff;stroke-width:0"
       id="path24"
       d="m 101.29042,160.26482 c -0.12981,-1.19509 -0.093,-2.39616 -0.0678,-3.59485 0,0 -3.166927,-1.63018 -3.166927,-1.63018 v 0 c -0.07159,1.15194 -0.141258,2.30408 -0.240988,3.45404 z" />
    <path
       style="fill:#000000;fill-rule:evenodd;stroke:#ffffff;stroke-width:0"
       id="path25"
       d="m 138.77116,130.79867 c 0.34905,0.054 0.69811,0.10791 1.04717,0.16186 0,0 -2.92752,-2.20956 -2.92752,-2.20956 v 0 c -0.38319,-0.081 -0.76638,-0.1619 -1.14957,-0.24285 z" />
  </g>
  <g
     inkscape:groupmode="layer"
     id="layer2"
     inkscape:label="Rune">
    <path
       style="fill:#000000;fill-rule:evenodd;stroke:#ffffff;stroke-width:0"
       id="path1"
       d="m 48.187813,125.64609 c 5.715998,3.40485 3.043513,1.80436 1.874375,0.93733 -0.772872,-0.57316 -1.516579,-1.18219 -2.258934,-1.79384 -1.328393,-1.10402 -2.4966,-2.41654 -3.246503,-3.98614 -0.145865,-0.30531 -0.257564,-0.62579 -0.386345,-0.93868 -0.745135,-2.13164 -0.741833,-4.39693 -0.580943,-6.62075 0.310894,-2.09467 0.879883,-4.22298 2.076109,-6.00235 0.244954,-0.36437 0.540409,-0.69213 0.810612,-1.03819 0.328692,-0.29385 0.628631,-0.62344 0.98607,-0.88155 2.350154,-1.6971 5.439601,-1.68623 8.203973,-1.70602 5.119465,0.10318 10.13551,1.24876 15.073606,2.51057 6.497515,1.82125 12.973055,3.71874 19.484146,5.49174 6.824702,1.88597 13.762421,3.29991 20.717951,4.6012 3.88197,0.58907 7.76052,1.31182 11.68359,1.57929 2.1527,0.14676 2.65738,0.1013 4.77245,0.0788 2.74924,-0.2365 5.5446,-0.5754 8.18722,-1.41502 1.34928,-0.42869 2.06692,-0.80471 3.34406,-1.39096 1.44538,-0.73717 2.89122,-1.53754 4.1417,-2.5846 0.64273,-0.53818 1.75261,-1.67335 2.29626,-2.30782 0.34467,-0.40223 0.65335,-0.83395 0.98002,-1.25093 0.2741,-0.41893 0.57547,-0.82123 0.82229,-1.25678 0.80114,-1.41371 1.50853,-3.51006 1.75745,-5.12402 0.0631,-0.40933 0.0732,-0.8251 0.10974,-1.23765 -0.0816,-0.46173 -0.11376,-0.93499 -0.2448,-1.385186 -0.83788,-2.878436 -3.14663,-4.955045 -5.3043,-6.871652 -3.29184,-2.670979 -7.0419,-4.740833 -10.80065,-6.669413 -1.46157,-0.749916 -4.16136,-1.798058 -5.67083,-2.406941 -5.18448,-2.034617 -10.54886,-3.567959 -15.93912,-4.948319 -1.40545,-0.351888 -2.81368,-0.692428 -4.22254,-1.030359 0,0 2.94216,2.235964 2.94216,2.235964 v 0 c 1.32144,0.258604 2.64107,0.526796 3.95186,0.835883 5.32355,1.262155 10.58739,2.791626 15.67973,4.805746 0.9664,0.395602 1.94145,0.770705 2.8992,1.186812 0.95061,0.413004 1.86201,0.915644 2.82458,1.299948 0.11744,0.04689 -0.37121,-0.336579 -0.26015,-0.276106 1.9168,1.043782 3.71178,2.326754 5.42188,3.675767 2.10308,1.833173 4.38111,3.824591 5.24417,6.589183 0.12977,0.415703 0.16795,0.854633 0.25194,1.281948 -0.0283,0.399505 -0.0315,0.801595 -0.085,1.198525 -0.0546,0.40496 -0.1456,0.80451 -0.23841,1.20245 -0.42339,1.81515 -1.0725,3.56566 -2.17375,5.0861 -0.31684,0.41019 -0.61348,0.83681 -0.95052,1.23057 -1.74241,2.03563 -3.93114,3.6259 -6.32849,4.80192 -1.45531,0.66863 -1.7548,0.85813 -3.29641,1.35359 -2.59642,0.83447 -5.31705,1.24457 -8.03147,1.42136 -2.14804,0.04 -2.47935,0.0883 -4.67478,-0.0497 -3.85919,-0.24255 -7.68556,-0.86716 -11.49898,-1.47743 -6.88279,-1.25238 -13.73386,-2.6944 -20.502888,-4.46768 -1.330254,-0.36148 -2.664452,-0.70874 -3.990758,-1.08444 -5.301226,-1.50168 -10.517272,-3.29111 -15.851706,-4.67501 -3.518429,-0.87668 -7.049254,-1.65279 -10.642893,-2.1589 -0.862222,-0.12143 -1.725433,-0.24178 -2.592965,-0.31635 -0.678873,-0.0584 -1.361651,-0.0547 -2.042477,-0.0821 -2.87532,0.0308 -6.075699,0.0209 -8.503875,1.81089 -0.371385,0.27378 -0.681294,0.62239 -1.02194,0.93358 -0.278365,0.35999 -0.580176,0.70302 -0.835099,1.07998 -1.235239,1.82655 -1.825794,3.9783 -2.18494,6.12842 -0.179403,2.25198 -0.262715,4.57048 0.456272,6.7436 0.122639,0.3259 0.225512,0.65995 0.367921,0.97772 0.720207,1.60703 1.857812,2.98102 3.189915,4.11646 2.190332,1.84394 4.220397,3.47505 6.894901,4.70615 z" />
    <path
       style="fill:#000000;fill-rule:evenodd;stroke:#ffffff;stroke-width:0"
       id="path2"
       d="m 51.380387,68.931599 c 2.003811,2.057516 4.307004,3.805115 6.563664,5.572746 3.224096,2.573692 6.780781,4.647306 10.384459,6.637499 1.240232,0.68494 2.92907,1.438225 4.213045,2.032095 2.159341,1.007322 4.405506,1.795145 6.651871,2.578809 2.591289,0.903994 5.184881,1.773143 7.804753,2.590927 3.390239,1.019527 6.82181,1.904371 10.318901,2.472553 2.002171,0.325297 3.42267,0.465603 5.43645,0.697902 5.0804,0.575013 10.19831,0.563729 15.30281,0.498895 3.02476,-0.04683 6.05194,-0.283416 9.04475,-0.730543 1.00398,-0.149998 2.07843,-0.368874 3.07947,-0.563716 1.24395,-0.310714 2.49552,-0.573342 3.75697,-0.800722 0,0 -3.06317,-2.140656 -3.06317,-2.140656 v 0 c -1.23184,0.235812 -2.44734,0.51004 -3.64347,0.893249 -1.17943,0.284477 -1.6774,0.421447 -2.92243,0.642511 -2.93501,0.521132 -5.9155,0.733261 -8.89326,0.786591 -5.07634,0.07692 -10.16401,0.05155 -15.21828,-0.488662 -2.476102,-0.289729 -2.981506,-0.316426 -5.451791,-0.736981 -3.46787,-0.590391 -6.879685,-1.455401 -10.247363,-2.466229 -4.915945,-1.559467 -9.821111,-3.203966 -14.542209,-5.290589 -0.705924,-0.330497 -1.417629,-0.648912 -2.11777,-0.991489 -0.699751,-0.342387 -1.369909,-0.745567 -2.081281,-1.063099 -0.289978,-0.129437 1.078447,0.670891 0.812805,0.496896 -1.862889,-1.220208 -3.771048,-2.378269 -5.493064,-3.801195 -2.096292,-1.657191 -4.245851,-3.306577 -6.062388,-5.274434 z" />
    <path
       style="fill:#000000;fill-rule:evenodd;stroke:#ffffff;stroke-width:0"
       id="path3"
       d="m 115.29972,60.639639 c -1.04881,2.232041 -2.11873,4.453387 -3.25294,6.643518 -0.66054,1.39768 -1.05218,2.13836 -1.57432,3.619347 -0.26521,0.752252 -0.48814,1.518946 -0.71205,2.284505 -0.74721,2.554676 -1.34614,5.133596 -1.90236,7.734982 -0.17412,0.983229 -0.35668,1.965 -0.52238,2.949686 -0.42888,2.54871 -0.57745,3.469143 -0.8215,6.059258 -0.29635,3.145242 -0.39676,6.290976 -0.46677,9.447331 -0.006,1.015294 -0.0213,2.030574 -0.0185,3.045874 0.003,0.96082 -0.007,1.92233 0.035,2.88225 0.16655,3.82972 0.74749,7.62417 1.39726,11.39571 0.10981,0.53078 0.77902,3.88878 0.99977,4.50186 0.40372,1.12122 0.92964,2.19521 1.43513,3.27438 1.03466,2.20892 2.5322,5.10323 3.75119,7.21247 0.65697,1.13677 1.37306,2.23833 2.0596,3.3575 2.27454,3.39136 4.70275,6.73703 7.76099,9.47478 1.37725,1.23292 1.91734,1.54008 3.40301,2.56569 0.51185,0.31133 1.01404,0.63912 1.53554,0.93399 1.50427,0.85055 2.99797,1.72306 4.54069,2.50167 0.56162,0.28345 1.16851,0.46728 1.76097,0.67878 1.16881,0.41725 2.56874,0.84969 3.77419,1.14191 0.68219,0.16538 1.37359,0.29018 2.06039,0.43528 4.09965,0.70091 8.24924,1.06836 12.39749,1.33022 1.54012,0.0835 0.82426,0.0481 2.14747,0.10894 0,0 -3.02251,-2.20433 -3.02251,-2.20433 v 0 c -1.21302,0.0153 -0.55371,0.0125 -1.97795,0.002 -4.10013,-0.12218 -8.19254,-0.52177 -12.22704,-1.27597 -0.69322,-0.1582 -1.39084,-0.29828 -2.07967,-0.47461 -1.21423,-0.31081 -2.5982,-0.74409 -3.77201,-1.1857 -0.5987,-0.22524 -1.20058,-1.01043 -1.77506,-0.72913 -0.49992,0.24479 1.94966,0.98473 1.39755,0.91398 -0.6155,-0.0789 -1.07093,-0.62716 -1.6064,-0.94074 -1.53869,-1.01978 -2.11823,-1.33991 -3.55552,-2.56814 -3.20754,-2.74099 -5.80579,-6.10134 -8.1777,-9.56759 -0.69999,-1.11935 -1.43542,-2.21731 -2.09998,-3.35805 -1.21022,-2.07734 -2.65428,-4.87513 -3.58923,-7.10221 -1.03336,-2.4615 -1.70947,-5.02288 -2.26649,-7.62617 -0.51947,-2.78326 -1.01399,-5.56652 -1.27403,-8.38918 -0.18056,-1.95995 -0.24668,-3.91834 -0.27711,-5.88524 -0.0157,-1.0178 -0.008,-2.03583 -0.0119,-3.05375 0.0493,-2.036044 0.0825,-4.226088 0.21023,-6.25999 0.25527,-4.063161 0.79792,-8.109016 1.68753,-12.082925 1.02441,-4.603518 2.13072,-9.245447 4.39713,-13.42422 1.11602,-2.18512 2.27869,-4.358924 3.64399,-6.400261 z" />
    <path
       style="fill:#000000;fill-rule:evenodd;stroke:#ffffff;stroke-width:0"
       id="path4"
       d="m 102.24416,58.673843 c -0.3388,0.562092 -0.65574,1.13619 -0.97277,1.710706 0,0 3.22872,1.871554 3.22872,1.871554 v 0 c 0.35811,-0.548627 0.71189,-1.096007 1.14778,-1.587775 z" />
    <path
       style="fill:#000000;fill-rule:evenodd;stroke:#ffffff;stroke-width:0"
       id="path5"
       d="m 84.464034,58.770323 c -0.563946,0.527852 -1.147373,1.095714 -1.548817,1.763337 -0.168839,0.280787 -0.291831,0.586703 -0.437743,0.880057 0,0 3.22702,1.846676 3.22702,1.846676 v 0 c 0.148833,-0.265565 0.276193,-0.544365 0.446503,-0.796693 0.419404,-0.621389 1.009062,-1.161769 1.635394,-1.566105 z" />
    <path
       style="fill:#000000;fill-rule:evenodd;stroke:#ffffff;stroke-width:0"
       id="path6"
       d="m 68.840021,53.851312 c 2.359083,1.98487 5.238464,3.165988 8.078703,4.251978 0,0 -2.692614,-2.115372 -2.692614,-2.115372 v 0 c -0.607725,-0.247177 -1.223566,-0.475266 -1.823173,-0.741532 -0.535043,-0.237593 -2.023197,-1.150369 -1.578869,-0.769197 0.46727,0.400852 3.301423,1.969119 1.61785,0.890934 z" />
    <path
       style="fill:#000000;fill-rule:evenodd;stroke:#ffffff;stroke-width:0"
       id="path7"
       d="m 79.58025,140.04054 c 0.516374,-0.91569 1.125778,-1.77278 1.726395,-2.63368 0,0 -3.115466,-1.8406 -3.115466,-1.8406 v 0 c -0.638447,0.86019 -1.284404,1.71232 -1.982488,2.52569 z" />
    <circle
       id="path8"
       style="fill:#000000;stroke:#ffffff;stroke-width:0.264583"
       cx="73.005196"
       cy="89.06205"
       r="0" />
    <path
       style="fill:#000000;fill-rule:evenodd;stroke:#ffffff;stroke-width:0"
       id="path9"
       d="m 46.375351,92.861198 c 0.800005,0.187042 0.364146,0.08994 1.308727,0.286078 0,0 -2.99294,-2.278682 -2.99294,-2.278682 v 0 c -1.015262,-0.250933 -0.535093,-0.128558 -1.441035,-0.365048 z" />
    <path
       style="fill:#000000;fill-rule:evenodd;stroke:#ffffff;stroke-width:0"
       id="path10"
       d="m 125.22494,95.881908 c 0.64702,1.121339 1.31546,2.227387 2.01222,3.319111 0,0 3.31944,1.461471 3.31944,1.461471 v 0 c -0.64138,-1.018786 -1.30359,-2.038424 -1.71538,-3.177794 z" />
    <path
       style="fill:#000000;fill-rule:evenodd;stroke:#ffffff;stroke-width:0"
       id="path11"
       d="m 144.30648,71.169884 c 0.44477,1.271413 0.14933,0.536657 0.97328,2.167265 0,0 3.24641,1.478783 3.24641,1.478783 v 0 c -0.62681,-1.465514 -0.42203,-0.81143 -0.70944,-1.929905 z" />
    <path
       style="fill:#000000;fill-rule:evenodd;stroke:#ffffff;stroke-width:0"
       id="path12"
       d="m 101.29042,160.26482 c -0.12981,-1.19509 -0.093,-2.39616 -0.0678,-3.59485 0,0 -3.166927,-1.63018 -3.166927,-1.63018 v 0 c -0.07159,1.15194 -0.141258,2.30408 -0.240988,3.45404 z" />
    <path
       style="fill:#000000;fill-rule:evenodd;stroke:#ffffff;stroke-width:0"
       id="path13"
       d="m 138.77116,130.79867 c 0.34905,0.054 0.69811,0.10791 1.04717,0.16186 0,0 -2.92752,-2.20956 -2.92752,-2.20956 v 0 c -0.38319,-0.081 -0.76638,-0.1619 -1.14957,-0.24285 z" />
  </g>
</svg>
