<?xml version="1.0" encoding="UTF-8" standalone="no"?>
<!-- Created with Inkscape (http://www.inkscape.org/) -->

<svg
   width="200mm"
   height="200mm"
   viewBox="0 0 200 200"
   version="1.1"
   id="svg1"
   inkscape:version="1.4 (e7c3feb1, 2024-10-09)"
   sodipodi:docname="void_rune_uncommon.svg"
   xmlns:inkscape="http://www.inkscape.org/namespaces/inkscape"
   xmlns:sodipodi="http://sodipodi.sourceforge.net/DTD/sodipodi-0.dtd"
   xmlns:xlink="http://www.w3.org/1999/xlink"
   xmlns="http://www.w3.org/2000/svg"
   xmlns:svg="http://www.w3.org/2000/svg">
  <sodipodi:namedview
     id="namedview1"
     pagecolor="#ffffff"
     bordercolor="#000000"
     borderopacity="0.25"
     inkscape:showpageshadow="2"
     inkscape:pageopacity="0.0"
     inkscape:pagecheckerboard="0"
     inkscape:deskcolor="#d1d1d1"
     inkscape:document-units="mm"
     inkscape:zoom="0.91852959"
     inkscape:cx="423.50296"
     inkscape:cy="367.43509"
     inkscape:window-width="1920"
     inkscape:window-height="940"
     inkscape:window-x="1080"
     inkscape:window-y="351"
     inkscape:window-maximized="0"
     inkscape:current-layer="layer3-5" />
  <defs
     id="defs1">
    <linearGradient
       id="linearGradient6"
       inkscape:collect="always">
      <stop
         style="stop-color:#a63ffd;stop-opacity:1;"
         offset="0.16363636"
         id="stop6" />
      <stop
         style="stop-color:#4600cf;stop-opacity:0.30769235;"
         offset="0.95772117"
         id="stop8" />
      <stop
         style="stop-color:#b0b0b0;stop-opacity:0;"
         offset="1"
         id="stop7" />
    </linearGradient>
    <radialGradient
       inkscape:collect="always"
       xlink:href="#linearGradient6"
       id="radialGradient7"
       cx="100"
       cy="100"
       fx="100"
       fy="100"
       r="75"
       gradientUnits="userSpaceOnUse" />
    <filter
       inkscape:collect="always"
       style="color-interpolation-filters:sRGB"
       id="filter24"
       x="-0.11652198"
       y="-0.11652198"
       width="1.233044"
       height="1.233044">
      <feGaussianBlur
         inkscape:collect="always"
         stdDeviation="7.2826236"
         id="feGaussianBlur24" />
    </filter>
    <filter
       inkscape:collect="always"
       style="color-interpolation-filters:sRGB"
       id="filter10"
       x="-0.032826056"
       y="-0.035192771"
       width="1.0656521"
       height="1.0703855">
      <feGaussianBlur
         inkscape:collect="always"
         stdDeviation="2.1257842"
         id="feGaussianBlur10" />
    </filter>
  </defs>
  <g
     inkscape:label="Rune Base"
     inkscape:groupmode="layer"
     id="layer1"
     style="fill:#ffffff;fill-opacity:1"
     sodipodi:insensitive="true">
    <circle
       style="display:inline;fill:url(#radialGradient7);fill-opacity:1;fill-rule:evenodd;stroke-width:0.910445;filter:url(#filter24)"
       id="Rune_Base"
       cx="100"
       cy="100"
       r="75"
       inkscape:label="Base"
       transform="matrix(1.2325986,0,0,1.2325986,-23.403888,-23.115838)" />
  </g>
  <g
     inkscape:groupmode="layer"
     id="layer3-5"
     inkscape:label="Rune"
     transform="translate(-0.826441,-0.752679)"
     style="filter:url(#filter10)">
    <path
       style="fill:#24ff03;fill-rule:evenodd;stroke-width:0.264583;fill-opacity:1"
       id="path1-8"
       d="m 45.437255,129.32726 c -1.596501,0.14132 -3.152045,-0.19086 -4.691128,-0.574 -2.049217,-0.67972 -4.530016,-1.43314 -6.304524,-2.6788 -0.316143,-0.22192 1.299118,0.77503 1.057577,0.47361 -0.476099,-0.59414 -1.201571,-0.93535 -1.802358,-1.40303 -0.56674,-0.58967 -1.175837,-1.14137 -1.70022,-1.769 -2.285392,-2.73537 -3.606258,-6.08923 -4.075742,-9.60933 -0.125865,-0.94371 -0.122931,-1.90016 -0.184396,-2.85024 0.0099,-2.60499 0.379711,-5.15131 1.467572,-7.53722 0.31437,-0.68947 0.661535,-1.37213 1.104469,-1.98695 1.280993,-1.778121 1.817158,-1.873686 3.655962,-3.065689 0.910156,-0.324083 1.795018,-0.730708 2.730473,-0.972249 1.104369,-0.285154 2.236753,-0.459229 3.36831,-0.602493 4.046392,-0.512297 8.192331,-0.409879 12.242583,-0.01942 1.574483,0.151788 3.138186,0.399896 4.707279,0.599844 8.204255,1.20454 16.155342,3.587467 23.947572,6.361957 7.198101,2.65405 14.040839,6.14869 20.908516,9.54184 6.9519,3.53573 13.87696,7.12386 20.83099,10.65571 5.66648,2.74893 11.48438,5.29281 17.54496,7.05178 1.20593,0.34999 2.43118,0.62959 3.64676,0.94439 5.20362,1.16304 10.5706,1.60035 15.89718,1.33073 2.95746,-0.1497 4.53159,-0.44237 7.41653,-0.85984 3.42088,-0.89832 7.2647,-1.65177 9.87643,-4.26547 1.27246,-1.27342 1.47686,-2.03586 2.24242,-3.62116 0.51759,-1.65192 0.79659,-2.1865 0.89862,-3.93196 0.15848,-2.71101 -0.45938,-5.41268 -1.15035,-8.00871 -1.03181,-3.2956 -2.80288,-6.33452 -4.84333,-9.10798 -0.51311,-0.69744 -1.07074,-1.361 -1.60611,-2.0415 -4.17815,-4.841513 -9.069,-9.023278 -14.42414,-12.512201 -1.39743,-0.910437 -2.84482,-1.741766 -4.26724,-2.61265 -9.30963,-5.663639 -19.36635,-9.88723 -29.42213,-14.008756 -9.15183,-3.715953 -18.66223,-6.441548 -28.217169,-8.895497 -5.358336,-1.32343 -2.76583,-0.679509 -7.777829,-1.930498 0,0 2.423131,1.849726 2.423131,1.849726 v 0 c 4.879544,1.135843 2.344481,0.536352 7.604133,1.802913 9.511314,2.431661 18.993474,5.073933 28.079824,8.837022 8.41143,3.441973 16.7972,6.992837 24.77731,11.365399 1.39773,0.855372 2.82127,1.669918 4.19319,2.566115 5.19915,3.396323 9.95135,7.476743 13.96275,12.223207 0.51277,0.66265 1.04489,1.31078 1.53831,1.98797 2.00358,2.74985 3.75906,5.71788 4.81034,8.96711 0.72084,2.57253 1.38845,5.19322 1.23802,7.89347 -0.0962,1.72739 -0.33958,2.20465 -0.82322,3.85138 -0.74118,1.54671 -0.92234,2.24816 -2.14187,3.50139 -2.49514,2.56408 -6.1738,3.43848 -9.49608,4.31377 -2.9975,0.47837 -4.18028,0.74447 -7.28138,0.90517 -5.34119,0.27678 -10.70079,-0.24906 -15.90948,-1.43982 -1.21001,-0.31781 -2.42962,-0.6011 -3.63003,-0.95344 -6.06848,-1.78122 -11.89065,-4.33841 -17.55648,-7.1216 -6.90532,-3.49679 -13.78419,-7.04509 -20.690676,-10.53943 -6.932896,-3.42287 -13.818828,-7.00626 -21.10019,-9.64736 -1.082334,-0.37745 -2.15887,-0.77197 -3.247001,-1.13236 -6.671979,-2.209821 -13.520005,-3.902437 -20.467375,-4.973917 -1.586961,-0.206431 -3.169002,-0.455031 -4.760879,-0.619295 -4.157559,-0.429014 -8.348442,-0.566145 -12.509309,-0.08559 -1.177726,0.136022 -2.35889,0.288639 -3.510931,0.568534 -0.979471,0.237969 -1.907233,0.653018 -2.860849,0.979527 -1.891607,1.213721 -2.500659,1.33641 -3.800346,3.175037 -0.447304,0.632794 -0.781764,1.342094 -1.09336,2.051604 -1.076161,2.45047 -1.43347,5.04535 -1.435903,7.70575 0.04853,0.96078 0.02928,1.9274 0.145592,2.88235 0.11305,0.92819 0.315539,1.845 0.540718,2.75253 0.223195,0.89953 0.462809,1.7998 0.802761,2.66201 0.923625,2.34255 2.460526,4.35327 4.217243,6.12599 0.594447,0.47594 1.148228,1.00768 1.783347,1.4278 0.964031,0.6377 4.835853,3.04965 6.685664,3.94577 1.491339,0.72246 3.08402,1.24163 4.662291,1.73186 1.636099,0.40034 3.272891,0.71194 4.965933,0.66384 z" />
    <path
       style="fill:#24ff03;fill-rule:evenodd;stroke-width:0.264583;fill-opacity:1"
       id="path2-2"
       d="m 120.51285,29.752679 c -2.09004,2.534546 -3.90855,5.264065 -5.7082,8.007945 -0.50506,0.829016 -1.01255,1.656553 -1.51518,2.487043 -0.97777,1.615565 -1.95729,3.194953 -2.80987,4.882153 -1.44521,2.859992 -2.55314,5.866148 -3.68843,8.856771 -2.24016,5.940501 -3.72465,12.126698 -5.17566,18.296249 -1.20562,4.756629 -1.655682,9.651643 -2.010263,14.531597 -0.292275,4.677164 -0.242618,9.365144 -0.332245,14.048403 -0.1797,5.7256 -0.07315,11.4526 0.12066,17.17593 0.255897,4.87238 0.548555,9.74208 1.027808,14.59791 0.44281,4.17415 1.40919,8.25692 2.47431,12.30794 0.18294,0.66444 0.35757,1.33122 0.54881,1.99332 2.12074,7.34218 -0.8019,-2.99436 1.30178,4.41051 0.63054,2.21949 1.2039,4.4537 1.80712,6.68065 0.9006,3.32225 2.01174,6.58551 3.21176,9.81059 0.58614,1.62676 1.43606,3.13357 2.204,4.67662 0.2899,0.50932 0.13727,0.28021 0.44714,0.69439 0,0 3.60237,1.51158 3.60237,1.51158 v 0 c -0.38753,-0.34974 -0.1976,-0.14509 -0.55179,-0.6302 -0.83617,-1.54333 -1.69026,-3.07774 -2.35955,-4.7038 -1.32921,-3.23275 -2.54175,-6.52016 -3.4735,-9.89137 -1.19201,-4.35881 -2.36027,-8.72378 -3.62182,-13.06332 -1.047,-4.04845 -2.03715,-8.11606 -2.52922,-12.2773 -0.54442,-4.8628 -0.83513,-9.74793 -1.13976,-14.63068 -0.29865,-5.70271 -0.42163,-11.41798 -0.0601,-17.12196 0.0865,-4.672725 0.0724,-9.349227 0.35764,-14.016213 0.31836,-4.88837 0.72406,-9.783619 1.83098,-14.56891 1.32721,-6.194967 2.86687,-12.35202 5.06994,-18.302176 1.0239,-2.68595 1.26472,-3.453966 2.46511,-6.061411 1.6058,-3.488045 3.52611,-6.824917 5.6626,-10.013275 1.87312,-2.689413 3.82827,-5.346415 6.17881,-7.64516 z" />
    <path
       style="fill:#24ff03;fill-rule:evenodd;stroke-width:0.264583;fill-opacity:1"
       id="path3-9"
       d="m 45.774752,84.215159 c 1.449353,0.948352 0.609309,0.417841 2.537743,1.563304 0,0 3.302686,1.273895 3.302686,1.273895 v 0 C 49.906152,86.018895 50.638037,86.501863 49.39508,85.641187 Z" />
    <path
       style="fill:#24ff03;fill-rule:evenodd;stroke-width:0.264583;fill-opacity:1"
       id="path4-8"
       d="m 120.63208,52.735583 c -0.13996,0.374147 -0.30752,0.737626 -0.46812,1.103336 0,0 3.41953,1.919015 3.41953,1.919015 v 0 c 0.14833,-0.361741 0.31203,-0.714772 0.48992,-1.062913 z" />
    <path
       style="fill:#24ff03;fill-rule:evenodd;stroke-width:0.264583;fill-opacity:1"
       id="path5-2"
       d="m 68.936321,46.536715 c 1.288685,0.450633 0.510043,0.183825 2.341079,0.78522 0,0 -2.794151,-2.17955 -2.794151,-2.17955 v 0 c -2.04642,-0.776333 -1.170183,-0.428241 -2.636528,-1.024364 z" />
    <path
       style="fill:#24ff03;fill-rule:evenodd;stroke-width:0.264583;fill-opacity:1"
       id="path6-0"
       d="m 122.31177,100.07166 c 1.43198,1.59334 3.05289,3.00202 4.63742,4.43776 0,0 3.03047,1.24095 3.03047,1.24095 v 0 c -1.41097,-1.32614 -2.87879,-2.61786 -4.08522,-4.14225 z" />
    <path
       style="fill:#24ff03;fill-rule:evenodd;stroke-width:0.264583;fill-opacity:1"
       id="path7-7"
       d="m 77.802197,127.55522 c 2.207522,1.56833 4.547642,2.94245 6.85714,4.3531 0,0 3.097614,1.19894 3.097614,1.19894 v 0 c -2.121215,-1.31372 -4.283196,-2.59129 -6.279369,-4.09039 z" />
    <path
       style="fill:#24ff03;fill-rule:evenodd;stroke-width:0.264583;fill-opacity:1"
       id="path8-4"
       d="m 127.5998,150.26034 c 0.68958,0.93183 1.81445,1.46436 2.7912,2.03815 0,0 3.42985,1.3179 3.42985,1.3179 v 0 c -0.9029,-0.51996 -1.83709,-1.01716 -2.61307,-1.72368 z" />
    <path
       style="fill:#24ff03;fill-rule:evenodd;stroke-width:0.264583;fill-opacity:1"
       id="path9-8"
       d="m 72.1909,85.093007 c 0.842103,0.923751 0.35261,0.407056 1.487583,1.531747 0,0 3.391733,1.4082 3.391733,1.4082 v 0 c -0.993505,-1.039259 -0.566832,-0.566372 -1.296643,-1.403485 z" />
    <path
       style="fill:#24ff03;fill-rule:evenodd;stroke-width:0.264583;fill-opacity:1"
       id="path10-5"
       d="m 40.717692,109.45627 c 0.606216,0.42302 0.281143,0.19618 0.975214,0.68054 0,0 3.565345,1.40189 3.565345,1.40189 v 0 c -0.646525,-0.44215 -0.357701,-0.22201 -0.87549,-0.64839 z" />
  </g>
  <g
     inkscape:groupmode="layer"
     id="layer3"
     inkscape:label="Rune">
    <path
       style="fill:#24ff03;fill-rule:evenodd;stroke-width:0.264583;fill-opacity:1"
       id="path1"
       d="m 45.437255,129.32726 c -1.596501,0.14132 -3.152045,-0.19086 -4.691128,-0.574 -2.049217,-0.67972 -4.530016,-1.43314 -6.304524,-2.6788 -0.316143,-0.22192 1.299118,0.77503 1.057577,0.47361 -0.476099,-0.59414 -1.201571,-0.93535 -1.802358,-1.40303 -0.56674,-0.58967 -1.175837,-1.14137 -1.70022,-1.769 -2.285392,-2.73537 -3.606258,-6.08923 -4.075742,-9.60933 -0.125865,-0.94371 -0.122931,-1.90016 -0.184396,-2.85024 0.0099,-2.60499 0.379711,-5.15131 1.467572,-7.53722 0.31437,-0.68947 0.661535,-1.37213 1.104469,-1.98695 1.280993,-1.778121 1.817158,-1.873686 3.655962,-3.065689 0.910156,-0.324083 1.795018,-0.730708 2.730473,-0.972249 1.104369,-0.285154 2.236753,-0.459229 3.36831,-0.602493 4.046392,-0.512297 8.192331,-0.409879 12.242583,-0.01942 1.574483,0.151788 3.138186,0.399896 4.707279,0.599844 8.204255,1.20454 16.155342,3.587467 23.947572,6.361957 7.198101,2.65405 14.040839,6.14869 20.908516,9.54184 6.9519,3.53573 13.87696,7.12386 20.83099,10.65571 5.66648,2.74893 11.48438,5.29281 17.54496,7.05178 1.20593,0.34999 2.43118,0.62959 3.64676,0.94439 5.20362,1.16304 10.5706,1.60035 15.89718,1.33073 2.95746,-0.1497 4.53159,-0.44237 7.41653,-0.85984 3.42088,-0.89832 7.2647,-1.65177 9.87643,-4.26547 1.27246,-1.27342 1.47686,-2.03586 2.24242,-3.62116 0.51759,-1.65192 0.79659,-2.1865 0.89862,-3.93196 0.15848,-2.71101 -0.45938,-5.41268 -1.15035,-8.00871 -1.03181,-3.2956 -2.80288,-6.33452 -4.84333,-9.10798 -0.51311,-0.69744 -1.07074,-1.361 -1.60611,-2.0415 -4.17815,-4.841513 -9.069,-9.023278 -14.42414,-12.512201 -1.39743,-0.910437 -2.84482,-1.741766 -4.26724,-2.61265 -9.30963,-5.663639 -19.36635,-9.88723 -29.42213,-14.008756 -9.15183,-3.715953 -18.66223,-6.441548 -28.217169,-8.895497 -5.358336,-1.32343 -2.76583,-0.679509 -7.777829,-1.930498 0,0 2.423131,1.849726 2.423131,1.849726 v 0 c 4.879544,1.135843 2.344481,0.536352 7.604133,1.802913 9.511314,2.431661 18.993474,5.073933 28.079824,8.837022 8.41143,3.441973 16.7972,6.992837 24.77731,11.365399 1.39773,0.855372 2.82127,1.669918 4.19319,2.566115 5.19915,3.396323 9.95135,7.476743 13.96275,12.223207 0.51277,0.66265 1.04489,1.31078 1.53831,1.98797 2.00358,2.74985 3.75906,5.71788 4.81034,8.96711 0.72084,2.57253 1.38845,5.19322 1.23802,7.89347 -0.0962,1.72739 -0.33958,2.20465 -0.82322,3.85138 -0.74118,1.54671 -0.92234,2.24816 -2.14187,3.50139 -2.49514,2.56408 -6.1738,3.43848 -9.49608,4.31377 -2.9975,0.47837 -4.18028,0.74447 -7.28138,0.90517 -5.34119,0.27678 -10.70079,-0.24906 -15.90948,-1.43982 -1.21001,-0.31781 -2.42962,-0.6011 -3.63003,-0.95344 -6.06848,-1.78122 -11.89065,-4.33841 -17.55648,-7.1216 -6.90532,-3.49679 -13.78419,-7.04509 -20.690676,-10.53943 -6.932896,-3.42287 -13.818828,-7.00626 -21.10019,-9.64736 -1.082334,-0.37745 -2.15887,-0.77197 -3.247001,-1.13236 -6.671979,-2.209821 -13.520005,-3.902437 -20.467375,-4.973917 -1.586961,-0.206431 -3.169002,-0.455031 -4.760879,-0.619295 -4.157559,-0.429014 -8.348442,-0.566145 -12.509309,-0.08559 -1.177726,0.136022 -2.35889,0.288639 -3.510931,0.568534 -0.979471,0.237969 -1.907233,0.653018 -2.860849,0.979527 -1.891607,1.213721 -2.500659,1.33641 -3.800346,3.175037 -0.447304,0.632794 -0.781764,1.342094 -1.09336,2.051604 -1.076161,2.45047 -1.43347,5.04535 -1.435903,7.70575 0.04853,0.96078 0.02928,1.9274 0.145592,2.88235 0.11305,0.92819 0.315539,1.845 0.540718,2.75253 0.223195,0.89953 0.462809,1.7998 0.802761,2.66201 0.923625,2.34255 2.460526,4.35327 4.217243,6.12599 0.594447,0.47594 1.148228,1.00768 1.783347,1.4278 0.964031,0.6377 4.835853,3.04965 6.685664,3.94577 1.491339,0.72246 3.08402,1.24163 4.662291,1.73186 1.636099,0.40034 3.272891,0.71194 4.965933,0.66384 z" />
    <path
       style="fill:#24ff03;fill-rule:evenodd;stroke-width:0.264583;fill-opacity:1"
       id="path2"
       d="m 120.51285,29.752679 c -2.09004,2.534546 -3.90855,5.264065 -5.7082,8.007945 -0.50506,0.829016 -1.01255,1.656553 -1.51518,2.487043 -0.97777,1.615565 -1.95729,3.194953 -2.80987,4.882153 -1.44521,2.859992 -2.55314,5.866148 -3.68843,8.856771 -2.24016,5.940501 -3.72465,12.126698 -5.17566,18.296249 -1.20562,4.756629 -1.655682,9.651643 -2.010263,14.531597 -0.292275,4.677164 -0.242618,9.365144 -0.332245,14.048403 -0.1797,5.7256 -0.07315,11.4526 0.12066,17.17593 0.255897,4.87238 0.548555,9.74208 1.027808,14.59791 0.44281,4.17415 1.40919,8.25692 2.47431,12.30794 0.18294,0.66444 0.35757,1.33122 0.54881,1.99332 2.12074,7.34218 -0.8019,-2.99436 1.30178,4.41051 0.63054,2.21949 1.2039,4.4537 1.80712,6.68065 0.9006,3.32225 2.01174,6.58551 3.21176,9.81059 0.58614,1.62676 1.43606,3.13357 2.204,4.67662 0.2899,0.50932 0.13727,0.28021 0.44714,0.69439 0,0 3.60237,1.51158 3.60237,1.51158 v 0 c -0.38753,-0.34974 -0.1976,-0.14509 -0.55179,-0.6302 -0.83617,-1.54333 -1.69026,-3.07774 -2.35955,-4.7038 -1.32921,-3.23275 -2.54175,-6.52016 -3.4735,-9.89137 -1.19201,-4.35881 -2.36027,-8.72378 -3.62182,-13.06332 -1.047,-4.04845 -2.03715,-8.11606 -2.52922,-12.2773 -0.54442,-4.8628 -0.83513,-9.74793 -1.13976,-14.63068 -0.29865,-5.70271 -0.42163,-11.41798 -0.0601,-17.12196 0.0865,-4.672725 0.0724,-9.349227 0.35764,-14.016213 0.31836,-4.88837 0.72406,-9.783619 1.83098,-14.56891 1.32721,-6.194967 2.86687,-12.35202 5.06994,-18.302176 1.0239,-2.68595 1.26472,-3.453966 2.46511,-6.061411 1.6058,-3.488045 3.52611,-6.824917 5.6626,-10.013275 1.87312,-2.689413 3.82827,-5.346415 6.17881,-7.64516 z" />
    <path
       style="fill:#24ff03;fill-rule:evenodd;stroke-width:0.264583;fill-opacity:1"
       id="path3"
       d="m 45.774752,84.215159 c 1.449353,0.948352 0.609309,0.417841 2.537743,1.563304 0,0 3.302686,1.273895 3.302686,1.273895 v 0 C 49.906152,86.018895 50.638037,86.501863 49.39508,85.641187 Z" />
    <path
       style="fill:#24ff03;fill-rule:evenodd;stroke-width:0.264583;fill-opacity:1"
       id="path4"
       d="m 120.63208,52.735583 c -0.13996,0.374147 -0.30752,0.737626 -0.46812,1.103336 0,0 3.41953,1.919015 3.41953,1.919015 v 0 c 0.14833,-0.361741 0.31203,-0.714772 0.48992,-1.062913 z" />
    <path
       style="fill:#24ff03;fill-rule:evenodd;stroke-width:0.264583;fill-opacity:1"
       id="path5"
       d="m 68.936321,46.536715 c 1.288685,0.450633 0.510043,0.183825 2.341079,0.78522 0,0 -2.794151,-2.17955 -2.794151,-2.17955 v 0 c -2.04642,-0.776333 -1.170183,-0.428241 -2.636528,-1.024364 z" />
    <path
       style="fill:#24ff03;fill-rule:evenodd;stroke-width:0.264583;fill-opacity:1"
       id="path6"
       d="m 122.31177,100.07166 c 1.43198,1.59334 3.05289,3.00202 4.63742,4.43776 0,0 3.03047,1.24095 3.03047,1.24095 v 0 c -1.41097,-1.32614 -2.87879,-2.61786 -4.08522,-4.14225 z" />
    <path
       style="fill:#24ff03;fill-rule:evenodd;stroke-width:0.264583;fill-opacity:1"
       id="path7"
       d="m 77.802197,127.55522 c 2.207522,1.56833 4.547642,2.94245 6.85714,4.3531 0,0 3.097614,1.19894 3.097614,1.19894 v 0 c -2.121215,-1.31372 -4.283196,-2.59129 -6.279369,-4.09039 z" />
    <path
       style="fill:#24ff03;fill-rule:evenodd;stroke-width:0.264583;fill-opacity:1"
       id="path8"
       d="m 127.5998,150.26034 c 0.68958,0.93183 1.81445,1.46436 2.7912,2.03815 0,0 3.42985,1.3179 3.42985,1.3179 v 0 c -0.9029,-0.51996 -1.83709,-1.01716 -2.61307,-1.72368 z" />
    <path
       style="fill:#24ff03;fill-rule:evenodd;stroke-width:0.264583;fill-opacity:1"
       id="path9"
       d="m 72.1909,85.093007 c 0.842103,0.923751 0.35261,0.407056 1.487583,1.531747 0,0 3.391733,1.4082 3.391733,1.4082 v 0 c -0.993505,-1.039259 -0.566832,-0.566372 -1.296643,-1.403485 z" />
    <path
       style="fill:#24ff03;fill-rule:evenodd;stroke-width:0.264583;fill-opacity:1"
       id="path10"
       d="m 40.717692,109.45627 c 0.606216,0.42302 0.281143,0.19618 0.975214,0.68054 0,0 3.565345,1.40189 3.565345,1.40189 v 0 c -0.646525,-0.44215 -0.357701,-0.22201 -0.87549,-0.64839 z" />
  </g>
</svg>
