<?xml version="1.0" encoding="UTF-8" standalone="no"?>
<!-- Created with Inkscape (http://www.inkscape.org/) -->

<svg
   width="200mm"
   height="200mm"
   viewBox="0 0 200 200"
   version="1.1"
   id="svg1"
   inkscape:version="1.4 (e7c3feb1, 2024-10-09)"
   sodipodi:docname="wind_rune_epic.svg"
   xmlns:inkscape="http://www.inkscape.org/namespaces/inkscape"
   xmlns:sodipodi="http://sodipodi.sourceforge.net/DTD/sodipodi-0.dtd"
   xmlns:xlink="http://www.w3.org/1999/xlink"
   xmlns="http://www.w3.org/2000/svg"
   xmlns:svg="http://www.w3.org/2000/svg">
  <sodipodi:namedview
     id="namedview1"
     pagecolor="#ffffff"
     bordercolor="#000000"
     borderopacity="0.25"
     inkscape:showpageshadow="2"
     inkscape:pageopacity="0.0"
     inkscape:pagecheckerboard="0"
     inkscape:deskcolor="#d1d1d1"
     inkscape:document-units="mm"
     inkscape:zoom="0.91852959"
     inkscape:cx="424.59166"
     inkscape:cy="367.97944"
     inkscape:window-width="1920"
     inkscape:window-height="947"
     inkscape:window-x="1080"
     inkscape:window-y="351"
     inkscape:window-maximized="1"
     inkscape:current-layer="layer1" />
  <defs
     id="defs1">
    <linearGradient
       id="linearGradient6"
       inkscape:collect="always">
      <stop
         style="stop-color:#6d6d6d;stop-opacity:1;"
         offset="0"
         id="stop6" />
      <stop
         style="stop-color:#ffffff;stop-opacity:1;"
         offset="0.59256965"
         id="stop8" />
      <stop
         style="stop-color:#6700ba;stop-opacity:1;"
         offset="0.76923078"
         id="stop7" />
    </linearGradient>
    <radialGradient
       inkscape:collect="always"
       xlink:href="#linearGradient6"
       id="radialGradient7"
       cx="100"
       cy="100"
       fx="100"
       fy="100"
       r="75"
       gradientUnits="userSpaceOnUse" />
    <filter
       inkscape:collect="always"
       style="color-interpolation-filters:sRGB"
       id="filter24"
       x="-0.096225937"
       y="-0.096225937"
       width="1.1924519"
       height="1.1924519">
      <feGaussianBlur
         inkscape:collect="always"
         stdDeviation="6.0141211"
         id="feGaussianBlur24" />
    </filter>
    <filter
       inkscape:collect="always"
       style="color-interpolation-filters:sRGB"
       id="filter6"
       x="-0.040580843"
       y="-0.043638815"
       width="1.0811617"
       height="1.0872776">
      <feGaussianBlur
         inkscape:collect="always"
         stdDeviation="2.3379128"
         id="feGaussianBlur6" />
    </filter>
  </defs>
  <g
     inkscape:label="Rune Base"
     inkscape:groupmode="layer"
     id="layer1"
     style="fill:#ffffff;fill-opacity:1"
     sodipodi:insensitive="true">
    <circle
       style="display:inline;fill:url(#radialGradient7);fill-opacity:1;fill-rule:evenodd;stroke-width:0.910445;filter:url(#filter24)"
       id="Rune_Base"
       cx="100"
       cy="100"
       r="75"
       inkscape:label="Base"
       transform="matrix(1.2290475,0,0,1.2290475,-23.048776,-22.760725)" />
  </g>
  <g
     inkscape:groupmode="layer"
     id="layer4"
     inkscape:label="Rune"
     style="filter:url(#filter6)">
    <path
       style="fill:#8c00ff;fill-rule:evenodd;stroke-width:0.264583;fill-opacity:1"
       id="path1"
       d="m 51.254781,77.533073 c 1.7413,-1.805995 3.961061,-3.088844 6.184522,-4.208399 1.07915,-0.543375 2.164458,-1.078156 3.27824,-1.546466 1.317543,-0.553982 2.6734,-1.012023 4.010102,-1.518036 1.415523,-0.444373 2.811409,-0.956966 4.246567,-1.333122 3.987025,-1.044998 7.691062,-1.654772 11.795522,-2.157378 4.466164,-0.546899 9.274138,-0.887118 13.76784,-1.029787 2.335403,-0.07415 4.672896,-0.04955 7.009346,-0.07433 7.34895,0.0771 14.68673,0.618858 21.9837,1.478188 4.79073,0.564179 8.57223,1.12014 13.29257,2.120259 2.0937,0.443601 4.16172,1.000789 6.24258,1.501183 4.86692,1.422077 9.86209,2.847726 14.1568,5.654566 0.27988,0.182914 0.35833,0.569534 0.58753,0.812959 4.03783,4.288369 0.78021,0.269028 4.07312,4.55051 1.26935,1.932575 2.22905,3.990901 2.28251,6.345373 0.0327,1.440209 -0.30185,3.053961 -0.74805,4.412096 -0.24197,0.736497 -0.58128,1.437367 -0.87192,2.156052 -0.42705,0.743686 -0.80027,1.520992 -1.28115,2.231057 -3.67661,5.428822 -9.15767,8.207732 -14.76313,11.227542 -6.85899,3.48672 -13.98325,6.46765 -21.35698,8.68449 -4.97559,1.49586 -7.20582,1.90428 -12.265,3.0431 -7.59518,1.52017 -15.295876,2.60609 -23.053068,2.6816 -4.439594,0.0432 -5.347187,-0.12431 -9.675847,-0.47306 -5.391938,-0.68334 -10.776095,-1.71252 -15.911581,-3.53027 -2.767311,-0.97951 -3.423277,-1.36763 -6.00211,-2.59121 0.153374,0.0622 0.581433,0.29914 0.460121,0.18656 -1.734849,-1.60992 -1.760976,-1.06086 -3.134825,-2.84975 -0.763368,-0.99399 -1.166027,-1.90011 -1.333598,-3.14693 -0.07903,-0.58799 -0.01297,-1.18648 -0.01945,-1.77973 0.166269,-1.78117 0.825601,-3.35106 1.837989,-4.81163 0.30499,-0.44001 0.620525,-0.87914 0.999792,-1.25701 1.250997,-1.24639 1.974413,-1.49085 3.56105,-2.378363 0.811358,-0.339625 1.605124,-0.724797 2.434077,-1.018879 3.798903,-1.347708 7.89332,-2.02587 11.899384,-2.335276 1.097568,-0.08477 2.198949,-0.109437 3.298425,-0.164155 5.60223,-0.111737 11.23143,0.254428 16.779298,1.051118 1.136293,0.163174 2.266538,0.365993 3.399804,0.548989 4.668339,0.801275 9.266829,1.963224 13.749069,3.493636 0.96819,0.33058 1.93678,0.663 2.88561,1.04562 0.9055,0.36514 1.78244,0.79743 2.67366,1.19615 0.86375,0.45492 1.72913,0.90674 2.59124,1.36474 0.0938,0.0498 -0.37464,-0.19887 -0.28614,-0.14015 0.78643,0.52187 1.60244,0.99876 2.38196,1.53089 1.38984,0.94878 3.43777,2.48296 4.72279,3.57286 0.75917,0.64389 1.47492,1.3373 2.21237,2.00595 2.48258,2.45245 4.80753,5.117 6.16532,8.37316 0.75615,1.81333 0.81634,2.49819 1.2213,4.38054 0.13866,1.76855 0.27848,2.39361 0.0589,4.15958 -0.28666,2.30586 -1.10061,4.5715 -2.1338,6.64168 -0.38195,0.76531 -0.83932,1.49058 -1.25898,2.23588 -3.25023,5.04317 -7.44061,9.43619 -12.1306,13.1651 -1.19869,0.95304 -2.45655,1.8292 -3.68483,2.7438 -4.76885,3.30188 -9.79747,6.21526 -14.99187,8.7923 -1.88245,0.93392 -4.971697,2.35533 -6.88623,3.24522 -3.254804,1.49186 -6.505154,2.99032 -9.77697,4.44452 0,0 2.569114,1.70611 2.569114,1.70611 v 0 c 3.255346,-1.46893 6.511743,-2.93626 9.732492,-4.48023 1.916124,-0.90426 4.968844,-2.3266 6.846644,-3.28745 5.14857,-2.63447 10.09024,-5.67332 14.87292,-8.91911 1.26524,-0.89942 2.56399,-1.75347 3.79571,-2.69827 2.35803,-1.80875 3.97557,-3.33222 6.06629,-5.41822 1.70588,-1.70201 3.38392,-3.45304 4.87087,-5.35441 0.57145,-0.7307 1.06814,-1.51691 1.60221,-2.27537 0.43317,-0.75059 0.9038,-1.48077 1.2995,-2.25177 1.06454,-2.07416 1.96493,-4.37952 2.28162,-6.70285 0.23873,-1.75136 0.085,-2.50367 -0.0514,-4.25827 -0.43113,-1.97572 -0.47531,-2.57513 -1.25581,-4.48564 -0.32056,-0.78466 -0.67266,-1.56005 -1.09448,-2.29524 -1.34768,-2.3489 -3.24976,-4.32328 -5.13147,-6.23971 -0.73226,-0.67447 -1.4415,-1.37483 -2.19679,-2.02342 -4.50564,-3.8691 -9.67849,-6.8677 -14.95538,-9.5467 -0.88814,-0.38624 -1.7624,-0.80612 -2.66443,-1.15872 -0.93137,-0.36407 -1.88219,-0.677023 -2.832,-0.989835 -4.49178,-1.47932 -9.08893,-2.61185 -13.745574,-3.434572 -1.155478,-0.193757 -2.306397,-0.416997 -3.466433,-0.581271 -1.047565,-0.148347 -2.101694,-0.246404 -3.153992,-0.356256 -4.525778,-0.472464 -9.081699,-0.766564 -13.633974,-0.634865 -2.492669,0.131894 -4.144095,0.17104 -6.623614,0.495829 -2.826443,0.370231 -6.07397,1.075044 -8.772474,1.999363 -0.851707,0.291735 -1.668682,0.676432 -2.503022,1.014648 -1.56129,0.810321 -2.574049,1.168144 -3.816527,2.389579 -0.390575,0.38396 -0.686078,0.85555 -0.992016,1.30984 -1.027387,1.52559 -1.740593,3.13753 -1.915287,4.98716 -0.0236,1.4695 -0.182036,2.21268 0.371414,3.61642 1.414852,3.58856 6.42633,5.8875 9.312529,7.57459 2.537228,1.16145 3.175477,1.52595 5.897536,2.45599 5.094679,1.74068 10.4266,2.70275 15.761063,3.33256 4.358005,0.28819 5.058074,0.42808 9.527481,0.3262 7.71203,-0.1758 15.34612,-1.28574 22.89072,-2.85101 5.43884,-1.23731 6.91399,-1.48517 12.27988,-3.05884 2.02561,-0.59405 4.04413,-1.21636 6.03819,-1.90898 5.34857,-1.85776 10.5216,-4.19377 15.63138,-6.61856 3.88914,-1.97467 7.89291,-3.83565 11.28034,-6.63892 2.23559,-1.85007 4.07274,-4.106031 5.45086,-6.653214 0.30264,-0.729655 0.65498,-1.440624 0.90792,-2.188961 0.45465,-1.3451 0.83383,-3.088063 0.82384,-4.518753 -0.0172,-2.462956 -1.01035,-4.583858 -2.3708,-6.581613 -1.38308,-1.776884 -2.42249,-3.330631 -4.26273,-4.723924 -2.36738,-1.792393 -6.46494,-4.406768 -9.42157,-5.716797 -3.51297,-1.55653 -6.26123,-2.203233 -9.98349,-3.281375 -5.17243,-1.203227 -7.49378,-1.843868 -12.80852,-2.658512 -2.17729,-0.333735 -4.36993,-0.560179 -6.55952,-0.800309 -7.32592,-0.803421 -14.68118,-1.37319 -22.052551,-1.499016 -2.338173,0.02717 -4.67731,0.009 -7.014517,0.0815 -4.63341,0.143666 -9.281649,0.464799 -13.890241,0.966645 -3.322794,0.361831 -8.904933,1.10069 -12.249544,1.894051 -1.45311,0.344686 -2.852976,0.88424 -4.279464,1.326359 -1.387459,0.48024 -2.78874,0.922277 -4.16238,1.440723 -3.609877,1.362456 -7.209689,3.003859 -10.234609,5.435089 z" />
    <path
       style="fill:#8c00ff;fill-rule:evenodd;stroke-width:0.264583;fill-opacity:1"
       id="path2"
       d="m 78.014625,43.394539 c -0.118401,2.278748 -0.527566,4.525873 -0.964919,6.76075 -0.759759,3.685389 -1.848999,7.304275 -3.331798,10.764988 -0.315319,0.735928 -0.666707,1.455875 -1.000061,2.18381 -1.79293,3.714692 -3.818281,7.314023 -6.002613,10.811362 -1.794076,2.686643 -3.945546,5.108937 -6.22282,7.391328 -2.371629,2.517 -5.301414,4.336254 -8.260164,6.074156 -3.316544,1.902225 -6.76011,3.566295 -10.107404,5.410912 -3.230327,1.833605 -6.681321,3.168576 -10.226682,4.242596 -2.03185,0.583348 -1.055574,0.315077 -2.927345,0.81021 0,0 3.008836,2.060178 3.008836,2.060178 v 0 c 1.800027,-0.557998 0.857189,-0.26239 2.827933,-0.888688 1.016405,-0.329289 2.675062,-0.856633 3.659883,-1.218485 2.289808,-0.841338 4.478616,-1.927553 6.633279,-3.064674 3.33584,-1.835817 6.711749,-3.598879 10.024943,-5.47556 1.763454,-1.029573 3.519236,-2.057233 5.198978,-3.221104 0.472758,-0.327567 0.955466,-0.643596 1.400075,-1.008456 0.11644,-0.09556 1.798134,-1.775119 1.85521,-1.831938 2.267284,-2.324764 4.40245,-4.779817 6.16244,-7.519213 2.183394,-3.515061 4.176043,-7.159241 5.915879,-10.914152 1.849737,-4.178533 3.551838,-8.449802 4.522653,-12.929708 0.486965,-2.190184 0.944054,-4.388633 1.315767,-6.601413 z" />
    <path
       style="fill:#8c00ff;fill-rule:evenodd;stroke-width:0.264583;fill-opacity:1"
       id="path3"
       d="m 104.8953,55.139698 c 2.01268,1.123542 3.45097,2.161159 5.47934,2.85306 1.3978,0.476808 2.64511,0.755004 4.08669,1.11765 0,0 -2.69314,-2.064779 -2.69314,-2.064779 v 0 c -1.76504,-0.485968 -2.57228,-0.657167 -4.2389,-1.29944 -0.46511,-0.179239 -1.75591,-0.918763 -1.36611,-0.60811 0.71205,0.567467 1.56671,0.928184 2.35007,1.392277 z" />
    <path
       style="fill:#8c00ff;fill-rule:evenodd;stroke-width:0.264583;fill-opacity:1"
       id="path4"
       d="m 121.3616,79.374525 c 3.3775,1.270172 6.99344,1.768288 10.53034,2.386225 0,0 -2.4259,-1.831245 -2.4259,-1.831245 v 0 c -3.78594,-0.738219 -7.63895,-1.413216 -11.19405,-2.973673 z" />
    <path
       style="fill:#8c00ff;fill-rule:evenodd;stroke-width:0.264583;fill-opacity:1"
       id="path5"
       d="m 96.863928,146.79993 c 3.431462,-0.69934 6.873242,-1.34479 10.317172,-1.97956 0,0 -2.64918,-1.85414 -2.64918,-1.85414 v 0 c -3.59351,0.62092 -7.19669,1.22187 -10.82464,1.60359 z" />
    <path
       style="fill:#8c00ff;fill-rule:evenodd;stroke-width:0.264583;fill-opacity:1"
       id="path6"
       d="m 140.26253,153.00242 c 2.82603,-3.91602 6.00765,-7.55272 9.02258,-11.32021 0.96509,-1.206 1.91097,-2.42726 2.86645,-3.64089 0,0 -2.40341,-1.43618 -2.40341,-1.43618 v 0 c -0.97248,1.2008 -1.92654,2.41675 -2.91743,3.60241 -3.1277,3.7425 -6.48276,7.28976 -9.87521,10.78991 z" />
  </g>
  <g
     inkscape:groupmode="layer"
     id="layer4-0"
     inkscape:label="Rune"
     transform="translate(-0.970819,-0.394539)">
    <path
       style="fill:#8c00ff;fill-rule:evenodd;stroke-width:0.264583;fill-opacity:1"
       id="path1-5"
       d="m 51.254781,77.533073 c 1.7413,-1.805995 3.961061,-3.088844 6.184522,-4.208399 1.07915,-0.543375 2.164458,-1.078156 3.27824,-1.546466 1.317543,-0.553982 2.6734,-1.012023 4.010102,-1.518036 1.415523,-0.444373 2.811409,-0.956966 4.246567,-1.333122 3.987025,-1.044998 7.691062,-1.654772 11.795522,-2.157378 4.466164,-0.546899 9.274138,-0.887118 13.76784,-1.029787 2.335403,-0.07415 4.672896,-0.04955 7.009346,-0.07433 7.34895,0.0771 14.68673,0.618858 21.9837,1.478188 4.79073,0.564179 8.57223,1.12014 13.29257,2.120259 2.0937,0.443601 4.16172,1.000789 6.24258,1.501183 4.86692,1.422077 9.86209,2.847726 14.1568,5.654566 0.27988,0.182914 0.35833,0.569534 0.58753,0.812959 4.03783,4.288369 0.78021,0.269028 4.07312,4.55051 1.26935,1.932575 2.22905,3.990901 2.28251,6.345373 0.0327,1.440209 -0.30185,3.053961 -0.74805,4.412096 -0.24197,0.736497 -0.58128,1.437367 -0.87192,2.156052 -0.42705,0.743686 -0.80027,1.520992 -1.28115,2.231057 -3.67661,5.428822 -9.15767,8.207732 -14.76313,11.227542 -6.85899,3.48672 -13.98325,6.46765 -21.35698,8.68449 -4.97559,1.49586 -7.20582,1.90428 -12.265,3.0431 -7.59518,1.52017 -15.295876,2.60609 -23.053068,2.6816 -4.439594,0.0432 -5.347187,-0.12431 -9.675847,-0.47306 -5.391938,-0.68334 -10.776095,-1.71252 -15.911581,-3.53027 -2.767311,-0.97951 -3.423277,-1.36763 -6.00211,-2.59121 0.153374,0.0622 0.581433,0.29914 0.460121,0.18656 -1.734849,-1.60992 -1.760976,-1.06086 -3.134825,-2.84975 -0.763368,-0.99399 -1.166027,-1.90011 -1.333598,-3.14693 -0.07903,-0.58799 -0.01297,-1.18648 -0.01945,-1.77973 0.166269,-1.78117 0.825601,-3.35106 1.837989,-4.81163 0.30499,-0.44001 0.620525,-0.87914 0.999792,-1.25701 1.250997,-1.24639 1.974413,-1.49085 3.56105,-2.378363 0.811358,-0.339625 1.605124,-0.724797 2.434077,-1.018879 3.798903,-1.347708 7.89332,-2.02587 11.899384,-2.335276 1.097568,-0.08477 2.198949,-0.109437 3.298425,-0.164155 5.60223,-0.111737 11.23143,0.254428 16.779298,1.051118 1.136293,0.163174 2.266538,0.365993 3.399804,0.548989 4.668339,0.801275 9.266829,1.963224 13.749069,3.493636 0.96819,0.33058 1.93678,0.663 2.88561,1.04562 0.9055,0.36514 1.78244,0.79743 2.67366,1.19615 0.86375,0.45492 1.72913,0.90674 2.59124,1.36474 0.0938,0.0498 -0.37464,-0.19887 -0.28614,-0.14015 0.78643,0.52187 1.60244,0.99876 2.38196,1.53089 1.38984,0.94878 3.43777,2.48296 4.72279,3.57286 0.75917,0.64389 1.47492,1.3373 2.21237,2.00595 2.48258,2.45245 4.80753,5.117 6.16532,8.37316 0.75615,1.81333 0.81634,2.49819 1.2213,4.38054 0.13866,1.76855 0.27848,2.39361 0.0589,4.15958 -0.28666,2.30586 -1.10061,4.5715 -2.1338,6.64168 -0.38195,0.76531 -0.83932,1.49058 -1.25898,2.23588 -3.25023,5.04317 -7.44061,9.43619 -12.1306,13.1651 -1.19869,0.95304 -2.45655,1.8292 -3.68483,2.7438 -4.76885,3.30188 -9.79747,6.21526 -14.99187,8.7923 -1.88245,0.93392 -4.971697,2.35533 -6.88623,3.24522 -3.254804,1.49186 -6.505154,2.99032 -9.77697,4.44452 0,0 2.569114,1.70611 2.569114,1.70611 v 0 c 3.255346,-1.46893 6.511743,-2.93626 9.732492,-4.48023 1.916124,-0.90426 4.968844,-2.3266 6.846644,-3.28745 5.14857,-2.63447 10.09024,-5.67332 14.87292,-8.91911 1.26524,-0.89942 2.56399,-1.75347 3.79571,-2.69827 2.35803,-1.80875 3.97557,-3.33222 6.06629,-5.41822 1.70588,-1.70201 3.38392,-3.45304 4.87087,-5.35441 0.57145,-0.7307 1.06814,-1.51691 1.60221,-2.27537 0.43317,-0.75059 0.9038,-1.48077 1.2995,-2.25177 1.06454,-2.07416 1.96493,-4.37952 2.28162,-6.70285 0.23873,-1.75136 0.085,-2.50367 -0.0514,-4.25827 -0.43113,-1.97572 -0.47531,-2.57513 -1.25581,-4.48564 -0.32056,-0.78466 -0.67266,-1.56005 -1.09448,-2.29524 -1.34768,-2.3489 -3.24976,-4.32328 -5.13147,-6.23971 -0.73226,-0.67447 -1.4415,-1.37483 -2.19679,-2.02342 -4.50564,-3.8691 -9.67849,-6.8677 -14.95538,-9.5467 -0.88814,-0.38624 -1.7624,-0.80612 -2.66443,-1.15872 -0.93137,-0.36407 -1.88219,-0.677023 -2.832,-0.989835 -4.49178,-1.47932 -9.08893,-2.61185 -13.745574,-3.434572 -1.155478,-0.193757 -2.306397,-0.416997 -3.466433,-0.581271 -1.047565,-0.148347 -2.101694,-0.246404 -3.153992,-0.356256 -4.525778,-0.472464 -9.081699,-0.766564 -13.633974,-0.634865 -2.492669,0.131894 -4.144095,0.17104 -6.623614,0.495829 -2.826443,0.370231 -6.07397,1.075044 -8.772474,1.999363 -0.851707,0.291735 -1.668682,0.676432 -2.503022,1.014648 -1.56129,0.810321 -2.574049,1.168144 -3.816527,2.389579 -0.390575,0.38396 -0.686078,0.85555 -0.992016,1.30984 -1.027387,1.52559 -1.740593,3.13753 -1.915287,4.98716 -0.0236,1.4695 -0.182036,2.21268 0.371414,3.61642 1.414852,3.58856 6.42633,5.8875 9.312529,7.57459 2.537228,1.16145 3.175477,1.52595 5.897536,2.45599 5.094679,1.74068 10.4266,2.70275 15.761063,3.33256 4.358005,0.28819 5.058074,0.42808 9.527481,0.3262 7.71203,-0.1758 15.34612,-1.28574 22.89072,-2.85101 5.43884,-1.23731 6.91399,-1.48517 12.27988,-3.05884 2.02561,-0.59405 4.04413,-1.21636 6.03819,-1.90898 5.34857,-1.85776 10.5216,-4.19377 15.63138,-6.61856 3.88914,-1.97467 7.89291,-3.83565 11.28034,-6.63892 2.23559,-1.85007 4.07274,-4.106031 5.45086,-6.653214 0.30264,-0.729655 0.65498,-1.440624 0.90792,-2.188961 0.45465,-1.3451 0.83383,-3.088063 0.82384,-4.518753 -0.0172,-2.462956 -1.01035,-4.583858 -2.3708,-6.581613 -1.38308,-1.776884 -2.42249,-3.330631 -4.26273,-4.723924 -2.36738,-1.792393 -6.46494,-4.406768 -9.42157,-5.716797 -3.51297,-1.55653 -6.26123,-2.203233 -9.98349,-3.281375 -5.17243,-1.203227 -7.49378,-1.843868 -12.80852,-2.658512 -2.17729,-0.333735 -4.36993,-0.560179 -6.55952,-0.800309 -7.32592,-0.803421 -14.68118,-1.37319 -22.052551,-1.499016 -2.338173,0.02717 -4.67731,0.009 -7.014517,0.0815 -4.63341,0.143666 -9.281649,0.464799 -13.890241,0.966645 -3.322794,0.361831 -8.904933,1.10069 -12.249544,1.894051 -1.45311,0.344686 -2.852976,0.88424 -4.279464,1.326359 -1.387459,0.48024 -2.78874,0.922277 -4.16238,1.440723 -3.609877,1.362456 -7.209689,3.003859 -10.234609,5.435089 z" />
    <path
       style="fill:#8c00ff;fill-rule:evenodd;stroke-width:0.264583;fill-opacity:1"
       id="path2-6"
       d="m 78.014625,43.394539 c -0.118401,2.278748 -0.527566,4.525873 -0.964919,6.76075 -0.759759,3.685389 -1.848999,7.304275 -3.331798,10.764988 -0.315319,0.735928 -0.666707,1.455875 -1.000061,2.18381 -1.79293,3.714692 -3.818281,7.314023 -6.002613,10.811362 -1.794076,2.686643 -3.945546,5.108937 -6.22282,7.391328 -2.371629,2.517 -5.301414,4.336254 -8.260164,6.074156 -3.316544,1.902225 -6.76011,3.566295 -10.107404,5.410912 -3.230327,1.833605 -6.681321,3.168576 -10.226682,4.242596 -2.03185,0.583348 -1.055574,0.315077 -2.927345,0.81021 0,0 3.008836,2.060178 3.008836,2.060178 v 0 c 1.800027,-0.557998 0.857189,-0.26239 2.827933,-0.888688 1.016405,-0.329289 2.675062,-0.856633 3.659883,-1.218485 2.289808,-0.841338 4.478616,-1.927553 6.633279,-3.064674 3.33584,-1.835817 6.711749,-3.598879 10.024943,-5.47556 1.763454,-1.029573 3.519236,-2.057233 5.198978,-3.221104 0.472758,-0.327567 0.955466,-0.643596 1.400075,-1.008456 0.11644,-0.09556 1.798134,-1.775119 1.85521,-1.831938 2.267284,-2.324764 4.40245,-4.779817 6.16244,-7.519213 2.183394,-3.515061 4.176043,-7.159241 5.915879,-10.914152 1.849737,-4.178533 3.551838,-8.449802 4.522653,-12.929708 0.486965,-2.190184 0.944054,-4.388633 1.315767,-6.601413 z" />
    <path
       style="fill:#8c00ff;fill-rule:evenodd;stroke-width:0.264583;fill-opacity:1"
       id="path3-3"
       d="m 104.8953,55.139698 c 2.01268,1.123542 3.45097,2.161159 5.47934,2.85306 1.3978,0.476808 2.64511,0.755004 4.08669,1.11765 0,0 -2.69314,-2.064779 -2.69314,-2.064779 v 0 c -1.76504,-0.485968 -2.57228,-0.657167 -4.2389,-1.29944 -0.46511,-0.179239 -1.75591,-0.918763 -1.36611,-0.60811 0.71205,0.567467 1.56671,0.928184 2.35007,1.392277 z" />
    <path
       style="fill:#8c00ff;fill-rule:evenodd;stroke-width:0.264583;fill-opacity:1"
       id="path4-6"
       d="m 121.3616,79.374525 c 3.3775,1.270172 6.99344,1.768288 10.53034,2.386225 0,0 -2.4259,-1.831245 -2.4259,-1.831245 v 0 c -3.78594,-0.738219 -7.63895,-1.413216 -11.19405,-2.973673 z" />
    <path
       style="fill:#8c00ff;fill-rule:evenodd;stroke-width:0.264583;fill-opacity:1"
       id="path5-3"
       d="m 96.863928,146.79993 c 3.431462,-0.69934 6.873242,-1.34479 10.317172,-1.97956 0,0 -2.64918,-1.85414 -2.64918,-1.85414 v 0 c -3.59351,0.62092 -7.19669,1.22187 -10.82464,1.60359 z" />
    <path
       style="fill:#8c00ff;fill-rule:evenodd;stroke-width:0.264583;fill-opacity:1"
       id="path6-0"
       d="m 140.26253,153.00242 c 2.82603,-3.91602 6.00765,-7.55272 9.02258,-11.32021 0.96509,-1.206 1.91097,-2.42726 2.86645,-3.64089 0,0 -2.40341,-1.43618 -2.40341,-1.43618 v 0 c -0.97248,1.2008 -1.92654,2.41675 -2.91743,3.60241 -3.1277,3.7425 -6.48276,7.28976 -9.87521,10.78991 z" />
  </g>
</svg>
