<?xml version="1.0" encoding="UTF-8" standalone="no"?>
<!-- Uploaded to: SVG Repo, www.svgrepo.com, Generator: SVG Repo Mixer Tools -->

<svg
   fill="#000000"
   version="1.1"
   id="Capa_1"
   width="800px"
   height="800px"
   viewBox="0 0 596.143 596.143"
   xml:space="preserve"
   sodipodi:docname="deck.svg"
   inkscape:version="1.4 (e7c3feb1, 2024-10-09)"
   xmlns:inkscape="http://www.inkscape.org/namespaces/inkscape"
   xmlns:sodipodi="http://sodipodi.sourceforge.net/DTD/sodipodi-0.dtd"
   xmlns="http://www.w3.org/2000/svg"
   xmlns:svg="http://www.w3.org/2000/svg"><defs
   id="defs6" /><sodipodi:namedview
   id="namedview6"
   pagecolor="#ffffff"
   bordercolor="#000000"
   borderopacity="0.25"
   inkscape:showpageshadow="2"
   inkscape:pageopacity="0.0"
   inkscape:pagecheckerboard="0"
   inkscape:deskcolor="#d1d1d1"
   inkscape:zoom="0.98875"
   inkscape:cx="399.49431"
   inkscape:cy="400"
   inkscape:window-width="1200"
   inkscape:window-height="968"
   inkscape:window-x="0"
   inkscape:window-y="31"
   inkscape:window-maximized="0"
   inkscape:current-layer="Capa_1" />
<g
   id="g6"
   style="fill:#a7a7a7;fill-opacity:1">
	<g
   id="g5"
   style="fill:#a7a7a7;fill-opacity:1">
		<g
   id="g2"
   style="fill:#a7a7a7;fill-opacity:1">
			<path
   d="M65.824,58.64v478.863c0,32.059,26.082,58.14,58.14,58.14h348.214c32.059,0,58.141-26.081,58.141-58.14V58.64     c0-32.059-26.082-58.14-58.141-58.14H123.964C91.906,0.5,65.824,26.582,65.824,58.64z M487.479,58.64v478.863     c0,8.45-6.85,15.3-15.3,15.3H123.964c-8.45,0-15.3-6.85-15.3-15.3V58.64c0-8.45,6.85-15.3,15.3-15.3h348.214     C480.629,43.34,487.479,50.19,487.479,58.64z"
   id="path1"
   style="fill:#a7a7a7;fill-opacity:1" />
			<path
   d="M472.178,596.143H123.964c-32.334,0-58.64-26.306-58.64-58.64V58.64C65.324,26.306,91.63,0,123.964,0h348.214     c32.335,0,58.641,26.306,58.641,58.64v478.863C530.818,569.837,504.513,596.143,472.178,596.143z M123.964,1     c-31.783,0-57.64,25.857-57.64,57.64v478.863c0,31.782,25.857,57.64,57.64,57.64h348.214c31.783,0,57.641-25.857,57.641-57.64     V58.64c0-31.783-25.857-57.64-57.641-57.64H123.964z M472.179,553.303H123.964c-8.712,0-15.8-7.088-15.8-15.8V58.64     c0-8.712,7.088-15.8,15.8-15.8h348.214c8.713,0,15.801,7.088,15.801,15.8v478.863     C487.979,546.215,480.891,553.303,472.179,553.303z M123.964,43.84c-8.161,0-14.8,6.639-14.8,14.8v478.863     c0,8.161,6.639,14.8,14.8,14.8h348.215c8.161,0,14.8-6.639,14.8-14.8V58.64c0-8.161-6.64-14.8-14.801-14.8H123.964z"
   id="path2"
   style="fill:#a7a7a7;fill-opacity:1" />
		</g>
		<g
   id="g4"
   style="fill:#a7a7a7;fill-opacity:1">
			<path
   d="M193.951,375.156c7.981,8.447,17.375,15.105,27.918,19.788c3.639,1.616,7.354,2.971,11.137,4.061     c0.821,3.23,1.972,6.385,3.444,9.409c3.872,7.954,9.821,14.716,17.204,19.553c7.979,5.228,17.26,7.991,26.839,7.991h17.197     h17.962c9.579,0,18.859-2.764,26.838-7.991c7.383-4.837,13.332-11.599,17.204-19.553c1.462-3.004,2.608-6.136,3.428-9.344     c3.78-1.071,7.491-2.403,11.12-3.994c10.648-4.665,20.108-11.335,28.117-19.823c8.218-8.711,14.475-18.868,18.597-30.189     c4.189-11.507,5.948-23.618,5.228-35.997c-1.276-21.909-9.527-41.03-23.86-55.296c-5.201-5.176-11.058-9.604-17.528-13.26     c-1.898-20.158-11.023-39.118-25.986-53.806c-16.062-15.769-36.93-24.723-58.757-25.213c-0.652-0.015-1.32-0.022-1.978-0.022     c-11.739,0-23.15,2.309-33.915,6.861c-10.377,4.389-19.687,10.663-27.672,18.647s-14.259,17.295-18.647,27.671     c-3.54,8.37-5.723,17.129-6.52,26.13c-6.382,3.626-12.167,7.994-17.312,13.079c-14.495,14.327-22.813,33.504-24.058,55.459     c-0.699,12.336,1.125,24.441,5.421,35.979C179.529,356.463,185.78,366.51,193.951,375.156z M212.721,311.741     c1.437-25.357,18.425-34.917,31.634-38.501c7.053-1.914,11.554-9.339,10.213-16.522c-0.493-2.643-0.752-5.368-0.752-8.155     c0-24.442,19.812-44.255,44.255-44.255c0.337,0,0.677,0.004,1.017,0.012c22.527,0.505,42.292,19.902,43.201,42.416     c0.136,3.364-0.105,6.647-0.684,9.813c-1.358,7.433,3.13,14.643,10.43,16.592c13.149,3.513,29.898,12.996,31.378,38.415     c1.519,26.077-18.045,47.955-44.145,47.955c-0.041,0-0.083,0-0.125,0c-5.393-0.015-10.558-0.995-15.332-2.776     c-1.146-0.428-2.284-0.624-3.383-0.624c-6.484,0-11.578,6.834-8.44,13.33c2.289,4.741,5.086,9.387,8.496,13.738     c3.162,4.034,0.292,9.937-4.834,9.937h-17.961h-17.197c-5.125,0-7.996-5.902-4.834-9.937c3.411-4.353,6.208-8.999,8.498-13.741     c3.138-6.499-1.958-13.325-8.444-13.325c-1.101,0-2.241,0.196-3.388,0.624c-4.741,1.769-9.868,2.746-15.221,2.772     c-0.075,0-0.147,0.001-0.222,0.001C231.223,359.513,211.267,337.392,212.721,311.741z"
   id="path3"
   style="fill:#a7a7a7;fill-opacity:1" />
			<path
   d="M315.651,436.458h-35.159c-9.676,0-19.052-2.792-27.113-8.073c-7.458-4.886-13.467-11.717-17.379-19.752     c-1.435-2.948-2.581-6.051-3.407-9.228c-3.697-1.078-7.371-2.425-10.927-4.004c-10.604-4.71-20.051-11.405-28.078-19.901     c-8.217-8.695-14.504-18.799-18.686-30.029c-4.32-11.603-6.154-23.775-5.451-36.182c1.251-22.081,9.621-41.372,24.205-55.786     c5.09-5.032,10.872-9.414,17.189-13.029c0.819-8.952,3.017-17.705,6.534-26.02c4.414-10.437,10.724-19.8,18.754-27.83     c8.031-8.031,17.395-14.341,27.831-18.754c10.827-4.579,22.303-6.901,34.109-6.901c0.662,0,1.333,0.007,1.99,0.022     c21.954,0.493,42.941,9.498,59.096,25.356c14.884,14.611,24.149,33.728,26.108,53.856c6.403,3.644,12.26,8.088,17.408,13.212     c14.422,14.354,22.724,33.587,24.007,55.621c0.725,12.447-1.044,24.626-5.257,36.197c-4.146,11.386-10.438,21.601-18.703,30.361     c-8.056,8.538-17.57,15.247-28.28,19.938c-3.54,1.552-7.209,2.877-10.908,3.938c-0.823,3.148-1.964,6.229-3.391,9.16     c-3.911,8.036-9.921,14.866-17.379,19.752C334.702,433.666,325.327,436.458,315.651,436.458z M298.073,161.969     c-11.672,0-23.017,2.295-33.72,6.822c-10.317,4.363-19.574,10.601-27.513,18.541c-7.938,7.939-14.177,17.195-18.541,27.513     c-3.51,8.299-5.691,17.04-6.482,25.979l-0.023,0.261l-0.228,0.129c-6.33,3.596-12.119,7.97-17.208,13     c-14.405,14.238-22.673,33.302-23.91,55.132c-0.695,12.268,1.119,24.304,5.391,35.775c4.135,11.104,10.351,21.095,18.475,29.691     c7.937,8.399,17.275,15.02,27.758,19.675c3.602,1.6,7.327,2.958,11.072,4.037l0.275,0.079l0.07,0.278     c0.815,3.207,1.962,6.341,3.409,9.313c3.833,7.873,9.721,14.565,17.028,19.354c7.898,5.174,17.084,7.909,26.565,7.909h35.159     c9.48,0,18.666-2.735,26.563-7.909c7.308-4.788,13.196-11.48,17.029-19.354c1.438-2.957,2.58-6.069,3.393-9.249l0.071-0.278     l0.276-0.079c3.749-1.062,7.469-2.398,11.056-3.971c10.587-4.638,19.991-11.269,27.955-19.708     c8.17-8.661,14.392-18.761,18.49-30.018c4.166-11.442,5.915-23.486,5.198-35.797c-1.27-21.785-9.47-40.793-23.714-54.971     c-5.146-5.122-11.008-9.556-17.422-13.179l-0.228-0.129l-0.024-0.26c-1.882-19.989-11.059-38.988-25.839-53.496     c-15.971-15.68-36.718-24.583-58.417-25.07C299.391,161.977,298.727,161.969,298.073,161.969z M315.65,393.616h-35.158     c-2.563,0-4.852-1.431-5.973-3.734c-1.123-2.306-0.836-4.992,0.746-7.011c3.197-4.079,6.037-8.671,8.441-13.65     c1.334-2.763,1.179-5.812-0.425-8.368c-1.641-2.615-4.542-4.239-7.569-4.239c-1.078,0-2.159,0.199-3.213,0.593     c-4.917,1.834-10.097,2.777-15.393,2.804l-0.225,0.001c-12.244,0.001-23.664-4.947-32.155-13.933     c-8.665-9.169-13.223-21.694-12.504-34.365c1.44-25.41,18.198-35.209,32.002-38.956c6.733-1.828,11.153-8.981,9.852-15.948     c-0.504-2.704-0.76-5.479-0.76-8.247c0-25.019,20.61-45.293,45.784-44.743c22.764,0.511,42.771,20.155,43.689,42.896     c0.134,3.335-0.099,6.674-0.691,9.923c-1.324,7.246,3.003,14.133,10.066,16.02c13.664,3.65,30.264,13.356,31.748,38.869     c0.764,13.105-3.624,25.418-12.353,34.67c-8.405,8.908-19.873,13.814-32.291,13.814h-0.125     c-5.335-0.015-10.552-0.959-15.507-2.808c-1.053-0.394-2.132-0.593-3.208-0.593c-3.024,0-5.923,1.625-7.563,4.239     c-1.605,2.559-1.761,5.61-0.427,8.373c2.401,4.975,5.241,9.566,8.439,13.647c1.582,2.019,1.868,4.705,0.746,7.01     C320.503,392.185,318.214,393.616,315.65,393.616z M275.712,355.613c3.369,0,6.593,1.804,8.416,4.708     c1.791,2.854,1.965,6.256,0.479,9.335c-2.436,5.043-5.313,9.696-8.554,13.832c-1.344,1.715-1.587,3.997-0.634,5.955     c0.967,1.987,2.864,3.173,5.074,3.173h35.158c2.211,0,4.107-1.186,5.074-3.173c0.954-1.958,0.711-4.24-0.634-5.955     c-3.242-4.138-6.12-8.791-8.553-13.829c-1.487-3.08-1.312-6.483,0.479-9.34c1.822-2.904,5.046-4.708,8.411-4.708     c1.195,0,2.393,0.221,3.558,0.655c4.844,1.808,9.944,2.731,15.158,2.745h0.124c12.141,0,23.35-4.795,31.563-13.5     c8.538-9.051,12.829-21.099,12.082-33.926c-1.45-24.917-17.663-34.396-31.008-37.961c-7.571-2.022-12.212-9.401-10.793-17.165     c0.58-3.177,0.808-6.441,0.676-9.704c-0.897-22.232-20.457-41.437-42.712-41.936c-0.337-0.008-0.673-0.012-1.006-0.012     c-24.126,0-43.755,19.628-43.755,43.755c0,2.707,0.25,5.419,0.744,8.063c1.394,7.466-3.349,15.136-10.574,17.096     c-13.487,3.661-29.86,13.232-31.266,38.047c-0.702,12.397,3.756,24.651,12.233,33.622c8.301,8.783,19.462,13.62,31.429,13.619     l0.222-0.001c5.176-0.025,10.239-0.947,15.046-2.741C273.316,355.834,274.515,355.613,275.712,355.613z"
   id="path4"
   style="fill:#a7a7a7;fill-opacity:1" />
		</g>
	</g>
</g>
</svg>
