<?xml version="1.0" encoding="UTF-8" standalone="no"?>
<!-- Uploaded to: SVG Repo, www.svgrepo.com, Generator: SVG Repo Mixer Tools -->

<svg
   fill="#000000"
   width="800px"
   height="800px"
   viewBox="0 0 56 56"
   version="1.1"
   id="svg1"
   sodipodi:docname="fatigue.svg"
   inkscape:version="1.4 (e7c3feb1, 2024-10-09)"
   xmlns:inkscape="http://www.inkscape.org/namespaces/inkscape"
   xmlns:sodipodi="http://sodipodi.sourceforge.net/DTD/sodipodi-0.dtd"
   xmlns:xlink="http://www.w3.org/1999/xlink"
   xmlns="http://www.w3.org/2000/svg"
   xmlns:svg="http://www.w3.org/2000/svg">
  <defs
     id="defs1">
    <linearGradient
       id="linearGradient4"
       inkscape:collect="always">
      <stop
         style="stop-color:#00b5cc;stop-opacity:1;"
         offset="0"
         id="stop5" />
      <stop
         style="stop-color:#0365ff;stop-opacity:1;"
         offset="1"
         id="stop6" />
    </linearGradient>
    <linearGradient
       inkscape:collect="always"
       xlink:href="#linearGradient4"
       id="linearGradient6"
       x1="24.99115"
       y1="23.646017"
       x2="37.238937"
       y2="45.451328"
       gradientUnits="userSpaceOnUse" />
  </defs>
  <sodipodi:namedview
     id="namedview1"
     pagecolor="#ffffff"
     bordercolor="#000000"
     borderopacity="0.25"
     inkscape:showpageshadow="2"
     inkscape:pageopacity="0.0"
     inkscape:pagecheckerboard="0"
     inkscape:deskcolor="#d1d1d1"
     inkscape:zoom="0.98875"
     inkscape:cx="399.49431"
     inkscape:cy="399.49431"
     inkscape:window-width="1200"
     inkscape:window-height="975"
     inkscape:window-x="0"
     inkscape:window-y="31"
     inkscape:window-maximized="0"
     inkscape:current-layer="svg1" />
  <path
     d="M 16.5156 49.5742 L 39.2734 49.5742 C 41.6640 49.5742 43.0937 48.2617 43.0937 45.7305 L 43.0937 45.1211 C 43.1172 38.6523 36.2266 33.4023 33.2031 30.5430 C 32.3593 29.7461 31.9140 29.0196 31.9140 27.9649 C 31.9140 26.9102 32.3593 26.2071 33.2031 25.3867 C 36.2031 22.4805 43.0937 17.5586 43.0937 10.8320 L 43.0937 10.2696 C 43.0937 7.7383 41.6640 6.4258 39.2734 6.4258 L 16.5156 6.4258 C 14.1718 6.4258 12.8828 7.7383 12.8828 10.0586 L 12.8828 10.8320 C 12.8828 17.5586 19.7734 22.4805 22.7969 25.3867 C 23.6406 26.2071 24.0859 26.9102 24.0859 27.9649 C 24.0859 29.0196 23.6406 29.7461 22.7969 30.5430 C 19.7734 33.4023 12.8828 38.6523 12.8828 45.1211 L 12.8828 45.9414 C 12.8828 48.2617 14.1718 49.5742 16.5156 49.5742 Z M 17.3828 13.4336 L 38.6172 13.4336 C 39.5078 13.4336 39.6484 14.1367 39.1328 15.0977 C 37.0234 18.8945 29.9218 24.9883 28.0000 24.9883 C 26.0781 24.9883 18.9766 18.9414 16.8672 15.0977 C 16.3515 14.1367 16.4922 13.4336 17.3828 13.4336 Z"
     id="path1"
     style="fill:url(#linearGradient6);fill-opacity:1" />
</svg>
