<?xml version="1.0" encoding="iso-8859-1"?>
<!-- Uploaded to: SVG Repo, www.svgrepo.com, Generator: SVG Repo Mixer Tools -->
<!DOCTYPE svg PUBLIC "-//W3C//DTD SVG 1.1//EN" "http://www.w3.org/Graphics/SVG/1.1/DTD/svg11.dtd">
<svg fill="#000000" version="1.1" id="Capa_1" xmlns="http://www.w3.org/2000/svg" xmlns:xlink="http://www.w3.org/1999/xlink" 
	 width="800px" height="800px" viewBox="0 0 45.492 45.492"
	 xml:space="preserve">
<g>
	<g>
		<path d="M22.746,0C10.203,0,0,10.204,0,22.746s10.203,22.746,22.746,22.746c12.543,0,22.747-10.204,22.747-22.746
			S35.289,0,22.746,0z M25.52,37.512v-1.369c0-1.524-1.229-2.76-2.753-2.76c-1.524,0-2.752,1.235-2.752,2.76v1.369
			c-6.115-1.134-10.9-5.92-12.033-12.035h1.105c1.525,0,2.76-1.228,2.76-2.751s-1.234-2.751-2.76-2.751H7.982
			C9.115,13.936,13.9,9.115,20.015,7.982v1.369c0,1.524,1.228,2.759,2.752,2.759c1.523,0,2.753-1.235,2.753-2.759V7.982
			c6.036,1.133,10.858,5.954,11.991,11.992h-1.104c-1.525,0-2.76,1.227-2.76,2.751s1.233,2.751,2.76,2.751h1.104
			C36.378,31.592,31.556,36.378,25.52,37.512z"/>
		<circle cx="22.746" cy="22.747" r="4.446"/>
	</g>
</g>
</svg>