<?xml version="1.0" encoding="UTF-8" standalone="no"?>
<!-- Uploaded to: SVG Repo, www.svgrepo.com, Generator: SVG Repo Mixer Tools -->

<svg
   width="800px"
   height="800px"
   viewBox="0 0 24 24"
   fill="none"
   version="1.1"
   id="svg1"
   sodipodi:docname="stress.svg"
   inkscape:version="1.4 (e7c3feb1, 2024-10-09)"
   xmlns:inkscape="http://www.inkscape.org/namespaces/inkscape"
   xmlns:sodipodi="http://sodipodi.sourceforge.net/DTD/sodipodi-0.dtd"
   xmlns="http://www.w3.org/2000/svg"
   xmlns:svg="http://www.w3.org/2000/svg">
  <defs
     id="defs1" />
  <sodipodi:namedview
     id="namedview1"
     pagecolor="#ffffff"
     bordercolor="#000000"
     borderopacity="0.25"
     inkscape:showpageshadow="2"
     inkscape:pageopacity="0.0"
     inkscape:pagecheckerboard="0"
     inkscape:deskcolor="#d1d1d1"
     inkscape:zoom="0.98875"
     inkscape:cx="399.49431"
     inkscape:cy="400"
     inkscape:window-width="1200"
     inkscape:window-height="968"
     inkscape:window-x="0"
     inkscape:window-y="31"
     inkscape:window-maximized="0"
     inkscape:current-layer="svg1" />
  <path
     d="M10 18V21M14 20V21M21 12V13C21 15.2091 19.2091 17 17 17V21H7V17C4.79086 17 3 15.2091 3 13V12C3 7.02944 7.02944 3 12 3C16.9706 3 21 7.02944 21 12ZM10 10.5C10 11.6046 9.10457 12.5 8 12.5C6.89543 12.5 6 11.6046 6 10.5C6 9.39543 6.89543 8.5 8 8.5C9.10457 8.5 10 9.39543 10 10.5ZM18 10.5C18 11.6046 17.1046 12.5 16 12.5C14.8954 12.5 14 11.6046 14 10.5C14 9.39543 14.8954 8.5 16 8.5C17.1046 8.5 18 9.39543 18 10.5Z"
     stroke="#000000"
     stroke-width="2"
     stroke-linecap="round"
     stroke-linejoin="round"
     id="path1"
     style="stroke:#b30000;stroke-opacity:1" />
</svg>
